<?xml version="1.0" encoding="utf-8" standalone="no"?>
<!DOCTYPE svg PUBLIC "-//W3C//DTD SVG 1.1//EN"
  "http://www.w3.org/Graphics/SVG/1.1/DTD/svg11.dtd">
<!-- Created with matplotlib (http://matplotlib.org/) -->
<svg height="720pt" version="1.1" viewBox="0 0 1080 720" width="1080pt" xmlns="http://www.w3.org/2000/svg" xmlns:xlink="http://www.w3.org/1999/xlink">
 <defs>
  <style type="text/css">
*{stroke-linecap:butt;stroke-linejoin:round;stroke-miterlimit:100000;}
  </style>
 </defs>
 <g id="figure_1">
  <g id="patch_1">
   <path d="M 0 720 
L 1080 720 
L 1080 0 
L 0 0 
z
" style="fill:#ffffff;"/>
  </g>
  <g id="axes_1">
   <g id="patch_2">
    <path d="M 135 648 
L 972 648 
L 972 72 
L 135 72 
z
" style="fill:#ffffff;"/>
   </g>
   <g id="line2d_1">
    <defs>
     <path d="M 0 3 
C 0.795609 3 1.55874 2.683901 2.12132 2.12132 
C 2.683901 1.55874 3 0.795609 3 0 
C 3 -0.795609 2.683901 -1.55874 2.12132 -2.12132 
C 1.55874 -2.683901 0.795609 -3 0 -3 
C -0.795609 -3 -1.55874 -2.683901 -2.12132 -2.12132 
C -2.683901 -1.55874 -3 -0.795609 -3 0 
C -3 0.795609 -2.683901 1.55874 -2.12132 2.12132 
C -1.55874 2.683901 -0.795609 3 0 3 
z
" id="m6fc53b030c" style="stroke:#000000;stroke-width:0.5;"/>
    </defs>
    <g clip-path="url(#p618d097f0a)">
     <use style="fill:#ff0000;opacity:0.5;stroke:#000000;stroke-width:0.5;" x="902.25" xlink:href="#m6fc53b030c" y="380.088"/>
     <use style="fill:#ff0000;opacity:0.5;stroke:#000000;stroke-width:0.5;" x="867.375" xlink:href="#m6fc53b030c" y="371.92725"/>
     <use style="fill:#ff0000;opacity:0.5;stroke:#000000;stroke-width:0.5;" x="832.5" xlink:href="#m6fc53b030c" y="364.185"/>
     <use style="fill:#ff0000;opacity:0.5;stroke:#000000;stroke-width:0.5;" x="762.75" xlink:href="#m6fc53b030c" y="350.0955"/>
     <use style="fill:#ff0000;opacity:0.5;stroke:#000000;stroke-width:0.5;" x="693.0" xlink:href="#m6fc53b030c" y="338.02875"/>
     <use style="fill:#ff0000;opacity:0.5;stroke:#000000;stroke-width:0.5;" x="623.25" xlink:href="#m6fc53b030c" y="328.26375"/>
     <use style="fill:#ff0000;opacity:0.5;stroke:#000000;stroke-width:0.5;" x="553.5" xlink:href="#m6fc53b030c" y="321.498"/>
     <use style="fill:#ff0000;opacity:0.5;stroke:#000000;stroke-width:0.5;" x="483.75" xlink:href="#m6fc53b030c" y="318.15"/>
     <use style="fill:#ff0000;opacity:0.5;stroke:#000000;stroke-width:0.5;" x="414.0" xlink:href="#m6fc53b030c" y="318.8475"/>
     <use style="fill:#ff0000;opacity:0.5;stroke:#000000;stroke-width:0.5;" x="344.25" xlink:href="#m6fc53b030c" y="324.567"/>
     <use style="fill:#ff0000;opacity:0.5;stroke:#000000;stroke-width:0.5;" x="309.375" xlink:href="#m6fc53b030c" y="330.147"/>
     <use style="fill:#ff0000;opacity:0.5;stroke:#000000;stroke-width:0.5;" x="274.5" xlink:href="#m6fc53b030c" y="338.517"/>
     <use style="fill:#ff0000;opacity:0.5;stroke:#000000;stroke-width:0.5;" x="257.0625" xlink:href="#m6fc53b030c" y="344.5155"/>
     <use style="fill:#ff0000;opacity:0.5;stroke:#000000;stroke-width:0.5;" x="239.625" xlink:href="#m6fc53b030c" y="351.909"/>
     <use style="fill:#ff0000;opacity:0.5;stroke:#000000;stroke-width:0.5;" x="222.1875" xlink:href="#m6fc53b030c" y="361.674"/>
     <use style="fill:#ff0000;opacity:0.5;stroke:#000000;stroke-width:0.5;" x="213.46875" xlink:href="#m6fc53b030c" y="367.9515"/>
     <use style="fill:#ff0000;opacity:0.5;stroke:#000000;stroke-width:0.5;" x="204.75" xlink:href="#m6fc53b030c" y="380.925"/>
     <use style="fill:#ff0000;opacity:0.5;stroke:#000000;stroke-width:0.5;" x="213.46875" xlink:href="#m6fc53b030c" y="392.29425"/>
     <use style="fill:#ff0000;opacity:0.5;stroke:#000000;stroke-width:0.5;" x="222.1875" xlink:href="#m6fc53b030c" y="396.27"/>
     <use style="fill:#ff0000;opacity:0.5;stroke:#000000;stroke-width:0.5;" x="239.625" xlink:href="#m6fc53b030c" y="399.897"/>
     <use style="fill:#ff0000;opacity:0.5;stroke:#000000;stroke-width:0.5;" x="257.0625" xlink:href="#m6fc53b030c" y="401.571"/>
     <use style="fill:#ff0000;opacity:0.5;stroke:#000000;stroke-width:0.5;" x="274.5" xlink:href="#m6fc53b030c" y="402.5475"/>
     <use style="fill:#ff0000;opacity:0.5;stroke:#000000;stroke-width:0.5;" x="309.375" xlink:href="#m6fc53b030c" y="403.1055"/>
     <use style="fill:#ff0000;opacity:0.5;stroke:#000000;stroke-width:0.5;" x="344.25" xlink:href="#m6fc53b030c" y="403.03575"/>
     <use style="fill:#ff0000;opacity:0.5;stroke:#000000;stroke-width:0.5;" x="414.0" xlink:href="#m6fc53b030c" y="400.455"/>
     <use style="fill:#ff0000;opacity:0.5;stroke:#000000;stroke-width:0.5;" x="483.75" xlink:href="#m6fc53b030c" y="397.665"/>
     <use style="fill:#ff0000;opacity:0.5;stroke:#000000;stroke-width:0.5;" x="553.5" xlink:href="#m6fc53b030c" y="394.875"/>
     <use style="fill:#ff0000;opacity:0.5;stroke:#000000;stroke-width:0.5;" x="623.25" xlink:href="#m6fc53b030c" y="392.085"/>
     <use style="fill:#ff0000;opacity:0.5;stroke:#000000;stroke-width:0.5;" x="693.0" xlink:href="#m6fc53b030c" y="389.295"/>
     <use style="fill:#ff0000;opacity:0.5;stroke:#000000;stroke-width:0.5;" x="762.75" xlink:href="#m6fc53b030c" y="386.505"/>
     <use style="fill:#ff0000;opacity:0.5;stroke:#000000;stroke-width:0.5;" x="832.5" xlink:href="#m6fc53b030c" y="383.715"/>
     <use style="fill:#ff0000;opacity:0.5;stroke:#000000;stroke-width:0.5;" x="867.375" xlink:href="#m6fc53b030c" y="382.32"/>
     <use style="fill:#ff0000;opacity:0.5;stroke:#000000;stroke-width:0.5;" x="902.25" xlink:href="#m6fc53b030c" y="380.925"/>
    </g>
   </g>
   <g id="line2d_2">
    <path clip-path="url(#p618d097f0a)" d="M 902.226552 380.03213 
L 878.594428 374.53531 
L 854.93368 369.178964 
L 831.246414 363.982609 
L 807.534759 358.965638 
L 783.800864 354.147316 
L 760.046889 349.546783 
L 736.274997 345.183046 
L 712.487351 341.074979 
L 688.686096 337.241318 
L 664.873349 333.700661 
L 641.051193 330.471467 
L 617.221664 327.572054 
L 593.386738 325.020604 
L 569.548316 322.835161 
L 545.708218 321.033639 
L 521.86817 319.633828 
L 498.029752 318.653399 
L 474.194432 318.10992 
L 450.363539 318.020871 
L 426.538255 318.403657 
L 402.745689 319.277159 
L 379.181954 320.717624 
L 355.938928 322.867245 
L 333.075566 325.862891 
L 310.644682 329.832351 
L 288.690762 334.895904 
L 267.247949 341.169045 
L 246.649507 348.680394 
L 228.757297 357.338612 
L 213.76063 367.821674 
L 205.909652 376.622118 
L 204.847496 380.98816 
L 206.468826 385.65513 
L 213.818548 392.578211 
L 227.127114 397.614881 
L 246.036138 400.705518 
L 268.823998 402.208189 
L 292.388792 403.016613 
L 316.110038 403.249032 
L 339.993323 403.009691 
L 364.043298 402.407228 
L 388.264069 401.55503 
L 412.659726 400.571507 
L 437.136814 399.566241 
L 461.614005 398.56664 
L 486.091551 397.572144 
L 510.5695 396.5822 
L 535.047902 395.596252 
L 559.526805 394.613747 
L 584.006258 393.634127 
L 608.486311 392.65684 
L 632.967011 391.681329 
L 657.448409 390.70704 
L 681.930554 389.733416 
L 706.413057 388.759921 
L 730.894884 387.786041 
L 755.376031 386.811223 
L 779.856547 385.834913 
L 804.336479 384.856554 
L 828.815878 383.875592 
L 853.294792 382.891471 
L 877.773271 381.903638 
L 902.251363 380.911537 
" style="fill:none;opacity:0.5;stroke:#0000ff;stroke-linecap:square;"/>
    <defs>
     <path d="M 0 3 
C 0.795609 3 1.55874 2.683901 2.12132 2.12132 
C 2.683901 1.55874 3 0.795609 3 0 
C 3 -0.795609 2.683901 -1.55874 2.12132 -2.12132 
C 1.55874 -2.683901 0.795609 -3 0 -3 
C -0.795609 -3 -1.55874 -2.683901 -2.12132 -2.12132 
C -2.683901 -1.55874 -3 -0.795609 -3 0 
C -3 0.795609 -2.683901 1.55874 -2.12132 2.12132 
C -1.55874 2.683901 -0.795609 3 0 3 
z
" id="mc39c04b4e2" style="stroke:#000000;stroke-width:0.5;"/>
    </defs>
    <g clip-path="url(#p618d097f0a)">
     <use style="fill:#0000ff;opacity:0.5;stroke:#000000;stroke-width:0.5;" x="902.226551601" xlink:href="#mc39c04b4e2" y="380.032129832"/>
     <use style="fill:#0000ff;opacity:0.5;stroke:#000000;stroke-width:0.5;" x="878.594427683" xlink:href="#mc39c04b4e2" y="374.535309928"/>
     <use style="fill:#0000ff;opacity:0.5;stroke:#000000;stroke-width:0.5;" x="854.933680125" xlink:href="#mc39c04b4e2" y="369.178964495"/>
     <use style="fill:#0000ff;opacity:0.5;stroke:#000000;stroke-width:0.5;" x="831.246413821" xlink:href="#mc39c04b4e2" y="363.982609423"/>
     <use style="fill:#0000ff;opacity:0.5;stroke:#000000;stroke-width:0.5;" x="807.534758807" xlink:href="#mc39c04b4e2" y="358.965637528"/>
     <use style="fill:#0000ff;opacity:0.5;stroke:#000000;stroke-width:0.5;" x="783.800863733" xlink:href="#mc39c04b4e2" y="354.147315903"/>
     <use style="fill:#0000ff;opacity:0.5;stroke:#000000;stroke-width:0.5;" x="760.046888673" xlink:href="#mc39c04b4e2" y="349.546783102"/>
     <use style="fill:#0000ff;opacity:0.5;stroke:#000000;stroke-width:0.5;" x="736.274997252" xlink:href="#mc39c04b4e2" y="345.183046289"/>
     <use style="fill:#0000ff;opacity:0.5;stroke:#000000;stroke-width:0.5;" x="712.487350863" xlink:href="#mc39c04b4e2" y="341.074979006"/>
     <use style="fill:#0000ff;opacity:0.5;stroke:#000000;stroke-width:0.5;" x="688.686096292" xlink:href="#mc39c04b4e2" y="337.241318154"/>
     <use style="fill:#0000ff;opacity:0.5;stroke:#000000;stroke-width:0.5;" x="664.873349217" xlink:href="#mc39c04b4e2" y="333.700661224"/>
     <use style="fill:#0000ff;opacity:0.5;stroke:#000000;stroke-width:0.5;" x="641.051193189" xlink:href="#mc39c04b4e2" y="330.4714669"/>
     <use style="fill:#0000ff;opacity:0.5;stroke:#000000;stroke-width:0.5;" x="617.221664097" xlink:href="#mc39c04b4e2" y="327.57205428"/>
     <use style="fill:#0000ff;opacity:0.5;stroke:#000000;stroke-width:0.5;" x="593.386737558" xlink:href="#mc39c04b4e2" y="325.020604031"/>
     <use style="fill:#0000ff;opacity:0.5;stroke:#000000;stroke-width:0.5;" x="569.548315643" xlink:href="#mc39c04b4e2" y="322.835161052"/>
     <use style="fill:#0000ff;opacity:0.5;stroke:#000000;stroke-width:0.5;" x="545.708218452" xlink:href="#mc39c04b4e2" y="321.033639324"/>
     <use style="fill:#0000ff;opacity:0.5;stroke:#000000;stroke-width:0.5;" x="521.868169505" xlink:href="#mc39c04b4e2" y="319.633827981"/>
     <use style="fill:#0000ff;opacity:0.5;stroke:#000000;stroke-width:0.5;" x="498.029751663" xlink:href="#mc39c04b4e2" y="318.653398788"/>
     <use style="fill:#0000ff;opacity:0.5;stroke:#000000;stroke-width:0.5;" x="474.194431942" xlink:href="#mc39c04b4e2" y="318.109920409"/>
     <use style="fill:#0000ff;opacity:0.5;stroke:#000000;stroke-width:0.5;" x="450.363539013" xlink:href="#mc39c04b4e2" y="318.020871487"/>
     <use style="fill:#0000ff;opacity:0.5;stroke:#000000;stroke-width:0.5;" x="426.538254519" xlink:href="#mc39c04b4e2" y="318.403657237"/>
     <use style="fill:#0000ff;opacity:0.5;stroke:#000000;stroke-width:0.5;" x="402.745689458" xlink:href="#mc39c04b4e2" y="319.277159005"/>
     <use style="fill:#0000ff;opacity:0.5;stroke:#000000;stroke-width:0.5;" x="379.18195384" xlink:href="#mc39c04b4e2" y="320.717623995"/>
     <use style="fill:#0000ff;opacity:0.5;stroke:#000000;stroke-width:0.5;" x="355.938927829" xlink:href="#mc39c04b4e2" y="322.867245148"/>
     <use style="fill:#0000ff;opacity:0.5;stroke:#000000;stroke-width:0.5;" x="333.075566442" xlink:href="#mc39c04b4e2" y="325.862891463"/>
     <use style="fill:#0000ff;opacity:0.5;stroke:#000000;stroke-width:0.5;" x="310.644682273" xlink:href="#mc39c04b4e2" y="329.832351145"/>
     <use style="fill:#0000ff;opacity:0.5;stroke:#000000;stroke-width:0.5;" x="288.690761847" xlink:href="#mc39c04b4e2" y="334.895904243"/>
     <use style="fill:#0000ff;opacity:0.5;stroke:#000000;stroke-width:0.5;" x="267.247949474" xlink:href="#mc39c04b4e2" y="341.169044639"/>
     <use style="fill:#0000ff;opacity:0.5;stroke:#000000;stroke-width:0.5;" x="246.649507277" xlink:href="#mc39c04b4e2" y="348.68039435"/>
     <use style="fill:#0000ff;opacity:0.5;stroke:#000000;stroke-width:0.5;" x="228.757296957" xlink:href="#mc39c04b4e2" y="357.338612499"/>
     <use style="fill:#0000ff;opacity:0.5;stroke:#000000;stroke-width:0.5;" x="213.760629556" xlink:href="#mc39c04b4e2" y="367.821673678"/>
     <use style="fill:#0000ff;opacity:0.5;stroke:#000000;stroke-width:0.5;" x="205.909651896" xlink:href="#mc39c04b4e2" y="376.622118129"/>
     <use style="fill:#0000ff;opacity:0.5;stroke:#000000;stroke-width:0.5;" x="204.847495599" xlink:href="#mc39c04b4e2" y="380.988159977"/>
     <use style="fill:#0000ff;opacity:0.5;stroke:#000000;stroke-width:0.5;" x="206.468825812" xlink:href="#mc39c04b4e2" y="385.65513044"/>
     <use style="fill:#0000ff;opacity:0.5;stroke:#000000;stroke-width:0.5;" x="213.818548445" xlink:href="#mc39c04b4e2" y="392.578211322"/>
     <use style="fill:#0000ff;opacity:0.5;stroke:#000000;stroke-width:0.5;" x="227.127113726" xlink:href="#mc39c04b4e2" y="397.614881426"/>
     <use style="fill:#0000ff;opacity:0.5;stroke:#000000;stroke-width:0.5;" x="246.036138404" xlink:href="#mc39c04b4e2" y="400.705517792"/>
     <use style="fill:#0000ff;opacity:0.5;stroke:#000000;stroke-width:0.5;" x="268.823997872" xlink:href="#mc39c04b4e2" y="402.208189321"/>
     <use style="fill:#0000ff;opacity:0.5;stroke:#000000;stroke-width:0.5;" x="292.388792272" xlink:href="#mc39c04b4e2" y="403.016612515"/>
     <use style="fill:#0000ff;opacity:0.5;stroke:#000000;stroke-width:0.5;" x="316.110037723" xlink:href="#mc39c04b4e2" y="403.249032412"/>
     <use style="fill:#0000ff;opacity:0.5;stroke:#000000;stroke-width:0.5;" x="339.993322774" xlink:href="#mc39c04b4e2" y="403.009691152"/>
     <use style="fill:#0000ff;opacity:0.5;stroke:#000000;stroke-width:0.5;" x="364.043297648" xlink:href="#mc39c04b4e2" y="402.407227997"/>
     <use style="fill:#0000ff;opacity:0.5;stroke:#000000;stroke-width:0.5;" x="388.264068707" xlink:href="#mc39c04b4e2" y="401.555029599"/>
     <use style="fill:#0000ff;opacity:0.5;stroke:#000000;stroke-width:0.5;" x="412.659726283" xlink:href="#mc39c04b4e2" y="400.571506864"/>
     <use style="fill:#0000ff;opacity:0.5;stroke:#000000;stroke-width:0.5;" x="437.136813794" xlink:href="#mc39c04b4e2" y="399.566240619"/>
     <use style="fill:#0000ff;opacity:0.5;stroke:#000000;stroke-width:0.5;" x="461.614005354" xlink:href="#mc39c04b4e2" y="398.566639507"/>
     <use style="fill:#0000ff;opacity:0.5;stroke:#000000;stroke-width:0.5;" x="486.091551167" xlink:href="#mc39c04b4e2" y="397.572144193"/>
     <use style="fill:#0000ff;opacity:0.5;stroke:#000000;stroke-width:0.5;" x="510.569500243" xlink:href="#mc39c04b4e2" y="396.582200081"/>
     <use style="fill:#0000ff;opacity:0.5;stroke:#000000;stroke-width:0.5;" x="535.047901772" xlink:href="#mc39c04b4e2" y="395.596252458"/>
     <use style="fill:#0000ff;opacity:0.5;stroke:#000000;stroke-width:0.5;" x="559.526804876" xlink:href="#mc39c04b4e2" y="394.613746508"/>
     <use style="fill:#0000ff;opacity:0.5;stroke:#000000;stroke-width:0.5;" x="584.006258206" xlink:href="#mc39c04b4e2" y="393.634127329"/>
     <use style="fill:#0000ff;opacity:0.5;stroke:#000000;stroke-width:0.5;" x="608.486310729" xlink:href="#mc39c04b4e2" y="392.656839898"/>
     <use style="fill:#0000ff;opacity:0.5;stroke:#000000;stroke-width:0.5;" x="632.967011397" xlink:href="#mc39c04b4e2" y="391.681329088"/>
     <use style="fill:#0000ff;opacity:0.5;stroke:#000000;stroke-width:0.5;" x="657.448409281" xlink:href="#mc39c04b4e2" y="390.707039657"/>
     <use style="fill:#0000ff;opacity:0.5;stroke:#000000;stroke-width:0.5;" x="681.93055358" xlink:href="#mc39c04b4e2" y="389.733416257"/>
     <use style="fill:#0000ff;opacity:0.5;stroke:#000000;stroke-width:0.5;" x="706.413057165" xlink:href="#mc39c04b4e2" y="388.759920779"/>
     <use style="fill:#0000ff;opacity:0.5;stroke:#000000;stroke-width:0.5;" x="730.894884433" xlink:href="#mc39c04b4e2" y="387.786040867"/>
     <use style="fill:#0000ff;opacity:0.5;stroke:#000000;stroke-width:0.5;" x="755.376031303" xlink:href="#mc39c04b4e2" y="386.811223232"/>
     <use style="fill:#0000ff;opacity:0.5;stroke:#000000;stroke-width:0.5;" x="779.856546633" xlink:href="#mc39c04b4e2" y="385.83491259"/>
     <use style="fill:#0000ff;opacity:0.5;stroke:#000000;stroke-width:0.5;" x="804.336479019" xlink:href="#mc39c04b4e2" y="384.856553771"/>
     <use style="fill:#0000ff;opacity:0.5;stroke:#000000;stroke-width:0.5;" x="828.81587786" xlink:href="#mc39c04b4e2" y="383.875591682"/>
     <use style="fill:#0000ff;opacity:0.5;stroke:#000000;stroke-width:0.5;" x="853.294792129" xlink:href="#mc39c04b4e2" y="382.89147135"/>
     <use style="fill:#0000ff;opacity:0.5;stroke:#000000;stroke-width:0.5;" x="877.773270812" xlink:href="#mc39c04b4e2" y="381.903637913"/>
     <use style="fill:#0000ff;opacity:0.5;stroke:#000000;stroke-width:0.5;" x="902.251362902" xlink:href="#mc39c04b4e2" y="380.91153661"/>
    </g>
   </g>
   <g id="patch_3">
    <path d="M 135 72 
L 972 72 
" style="fill:none;stroke:#000000;stroke-linecap:square;stroke-linejoin:miter;"/>
   </g>
   <g id="patch_4">
    <path d="M 972 648 
L 972 72 
" style="fill:none;stroke:#000000;stroke-linecap:square;stroke-linejoin:miter;"/>
   </g>
   <g id="patch_5">
    <path d="M 135 648 
L 972 648 
" style="fill:none;stroke:#000000;stroke-linecap:square;stroke-linejoin:miter;"/>
   </g>
   <g id="patch_6">
    <path d="M 135 648 
L 135 72 
" style="fill:none;stroke:#000000;stroke-linecap:square;stroke-linejoin:miter;"/>
   </g>
   <g id="matplotlib.axis_1">
    <g id="xtick_1">
     <g id="line2d_3">
      <defs>
       <path d="M 0 0 
L 0 -4 
" id="ma8042d49c9" style="stroke:#000000;stroke-width:0.5;"/>
      </defs>
      <g>
       <use style="stroke:#000000;stroke-width:0.5;" x="204.75" xlink:href="#ma8042d49c9" y="648.0"/>
      </g>
     </g>
     <g id="line2d_4">
      <defs>
       <path d="M 0 0 
L 0 4 
" id="mefcb60cd42" style="stroke:#000000;stroke-width:0.5;"/>
      </defs>
      <g>
       <use style="stroke:#000000;stroke-width:0.5;" x="204.75" xlink:href="#mefcb60cd42" y="72.0"/>
      </g>
     </g>
     <g id="text_1">
      <!-- 0.0 -->
      <defs>
       <path d="M 31.78125 66.40625 
Q 24.171875 66.40625 20.328125 58.90625 
Q 16.5 51.421875 16.5 36.375 
Q 16.5 21.390625 20.328125 13.890625 
Q 24.171875 6.390625 31.78125 6.390625 
Q 39.453125 6.390625 43.28125 13.890625 
Q 47.125 21.390625 47.125 36.375 
Q 47.125 51.421875 43.28125 58.90625 
Q 39.453125 66.40625 31.78125 66.40625 
M 31.78125 74.21875 
Q 44.046875 74.21875 50.515625 64.515625 
Q 56.984375 54.828125 56.984375 36.375 
Q 56.984375 17.96875 50.515625 8.265625 
Q 44.046875 -1.421875 31.78125 -1.421875 
Q 19.53125 -1.421875 13.0625 8.265625 
Q 6.59375 17.96875 6.59375 36.375 
Q 6.59375 54.828125 13.0625 64.515625 
Q 19.53125 74.21875 31.78125 74.21875 
" id="BitstreamVeraSans-Roman-30"/>
       <path d="M 10.6875 12.40625 
L 21 12.40625 
L 21 0 
L 10.6875 0 
z
" id="BitstreamVeraSans-Roman-2e"/>
      </defs>
      <g transform="translate(195.208125 661.118125)scale(0.12 -0.12)">
       <use xlink:href="#BitstreamVeraSans-Roman-30"/>
       <use x="63.623046875" xlink:href="#BitstreamVeraSans-Roman-2e"/>
       <use x="95.41015625" xlink:href="#BitstreamVeraSans-Roman-30"/>
      </g>
     </g>
    </g>
    <g id="xtick_2">
     <g id="line2d_5">
      <g>
       <use style="stroke:#000000;stroke-width:0.5;" x="344.25" xlink:href="#ma8042d49c9" y="648.0"/>
      </g>
     </g>
     <g id="line2d_6">
      <g>
       <use style="stroke:#000000;stroke-width:0.5;" x="344.25" xlink:href="#mefcb60cd42" y="72.0"/>
      </g>
     </g>
     <g id="text_2">
      <!-- 0.2 -->
      <defs>
       <path d="M 19.1875 8.296875 
L 53.609375 8.296875 
L 53.609375 0 
L 7.328125 0 
L 7.328125 8.296875 
Q 12.9375 14.109375 22.625 23.890625 
Q 32.328125 33.6875 34.8125 36.53125 
Q 39.546875 41.84375 41.421875 45.53125 
Q 43.3125 49.21875 43.3125 52.78125 
Q 43.3125 58.59375 39.234375 62.25 
Q 35.15625 65.921875 28.609375 65.921875 
Q 23.96875 65.921875 18.8125 64.3125 
Q 13.671875 62.703125 7.8125 59.421875 
L 7.8125 69.390625 
Q 13.765625 71.78125 18.9375 73 
Q 24.125 74.21875 28.421875 74.21875 
Q 39.75 74.21875 46.484375 68.546875 
Q 53.21875 62.890625 53.21875 53.421875 
Q 53.21875 48.921875 51.53125 44.890625 
Q 49.859375 40.875 45.40625 35.40625 
Q 44.1875 33.984375 37.640625 27.21875 
Q 31.109375 20.453125 19.1875 8.296875 
" id="BitstreamVeraSans-Roman-32"/>
      </defs>
      <g transform="translate(334.708125 661.118125)scale(0.12 -0.12)">
       <use xlink:href="#BitstreamVeraSans-Roman-30"/>
       <use x="63.623046875" xlink:href="#BitstreamVeraSans-Roman-2e"/>
       <use x="95.41015625" xlink:href="#BitstreamVeraSans-Roman-32"/>
      </g>
     </g>
    </g>
    <g id="xtick_3">
     <g id="line2d_7">
      <g>
       <use style="stroke:#000000;stroke-width:0.5;" x="483.75" xlink:href="#ma8042d49c9" y="648.0"/>
      </g>
     </g>
     <g id="line2d_8">
      <g>
       <use style="stroke:#000000;stroke-width:0.5;" x="483.75" xlink:href="#mefcb60cd42" y="72.0"/>
      </g>
     </g>
     <g id="text_3">
      <!-- 0.4 -->
      <defs>
       <path d="M 37.796875 64.3125 
L 12.890625 25.390625 
L 37.796875 25.390625 
z
M 35.203125 72.90625 
L 47.609375 72.90625 
L 47.609375 25.390625 
L 58.015625 25.390625 
L 58.015625 17.1875 
L 47.609375 17.1875 
L 47.609375 0 
L 37.796875 0 
L 37.796875 17.1875 
L 4.890625 17.1875 
L 4.890625 26.703125 
z
" id="BitstreamVeraSans-Roman-34"/>
      </defs>
      <g transform="translate(474.208125 661.118125)scale(0.12 -0.12)">
       <use xlink:href="#BitstreamVeraSans-Roman-30"/>
       <use x="63.623046875" xlink:href="#BitstreamVeraSans-Roman-2e"/>
       <use x="95.41015625" xlink:href="#BitstreamVeraSans-Roman-34"/>
      </g>
     </g>
    </g>
    <g id="xtick_4">
     <g id="line2d_9">
      <g>
       <use style="stroke:#000000;stroke-width:0.5;" x="623.25" xlink:href="#ma8042d49c9" y="648.0"/>
      </g>
     </g>
     <g id="line2d_10">
      <g>
       <use style="stroke:#000000;stroke-width:0.5;" x="623.25" xlink:href="#mefcb60cd42" y="72.0"/>
      </g>
     </g>
     <g id="text_4">
      <!-- 0.6 -->
      <defs>
       <path d="M 33.015625 40.375 
Q 26.375 40.375 22.484375 35.828125 
Q 18.609375 31.296875 18.609375 23.390625 
Q 18.609375 15.53125 22.484375 10.953125 
Q 26.375 6.390625 33.015625 6.390625 
Q 39.65625 6.390625 43.53125 10.953125 
Q 47.40625 15.53125 47.40625 23.390625 
Q 47.40625 31.296875 43.53125 35.828125 
Q 39.65625 40.375 33.015625 40.375 
M 52.59375 71.296875 
L 52.59375 62.3125 
Q 48.875 64.0625 45.09375 64.984375 
Q 41.3125 65.921875 37.59375 65.921875 
Q 27.828125 65.921875 22.671875 59.328125 
Q 17.53125 52.734375 16.796875 39.40625 
Q 19.671875 43.65625 24.015625 45.921875 
Q 28.375 48.1875 33.59375 48.1875 
Q 44.578125 48.1875 50.953125 41.515625 
Q 57.328125 34.859375 57.328125 23.390625 
Q 57.328125 12.15625 50.6875 5.359375 
Q 44.046875 -1.421875 33.015625 -1.421875 
Q 20.359375 -1.421875 13.671875 8.265625 
Q 6.984375 17.96875 6.984375 36.375 
Q 6.984375 53.65625 15.1875 63.9375 
Q 23.390625 74.21875 37.203125 74.21875 
Q 40.921875 74.21875 44.703125 73.484375 
Q 48.484375 72.75 52.59375 71.296875 
" id="BitstreamVeraSans-Roman-36"/>
      </defs>
      <g transform="translate(613.708125 661.118125)scale(0.12 -0.12)">
       <use xlink:href="#BitstreamVeraSans-Roman-30"/>
       <use x="63.623046875" xlink:href="#BitstreamVeraSans-Roman-2e"/>
       <use x="95.41015625" xlink:href="#BitstreamVeraSans-Roman-36"/>
      </g>
     </g>
    </g>
    <g id="xtick_5">
     <g id="line2d_11">
      <g>
       <use style="stroke:#000000;stroke-width:0.5;" x="762.75" xlink:href="#ma8042d49c9" y="648.0"/>
      </g>
     </g>
     <g id="line2d_12">
      <g>
       <use style="stroke:#000000;stroke-width:0.5;" x="762.75" xlink:href="#mefcb60cd42" y="72.0"/>
      </g>
     </g>
     <g id="text_5">
      <!-- 0.8 -->
      <defs>
       <path d="M 31.78125 34.625 
Q 24.75 34.625 20.71875 30.859375 
Q 16.703125 27.09375 16.703125 20.515625 
Q 16.703125 13.921875 20.71875 10.15625 
Q 24.75 6.390625 31.78125 6.390625 
Q 38.8125 6.390625 42.859375 10.171875 
Q 46.921875 13.96875 46.921875 20.515625 
Q 46.921875 27.09375 42.890625 30.859375 
Q 38.875 34.625 31.78125 34.625 
M 21.921875 38.8125 
Q 15.578125 40.375 12.03125 44.71875 
Q 8.5 49.078125 8.5 55.328125 
Q 8.5 64.0625 14.71875 69.140625 
Q 20.953125 74.21875 31.78125 74.21875 
Q 42.671875 74.21875 48.875 69.140625 
Q 55.078125 64.0625 55.078125 55.328125 
Q 55.078125 49.078125 51.53125 44.71875 
Q 48 40.375 41.703125 38.8125 
Q 48.828125 37.15625 52.796875 32.3125 
Q 56.78125 27.484375 56.78125 20.515625 
Q 56.78125 9.90625 50.3125 4.234375 
Q 43.84375 -1.421875 31.78125 -1.421875 
Q 19.734375 -1.421875 13.25 4.234375 
Q 6.78125 9.90625 6.78125 20.515625 
Q 6.78125 27.484375 10.78125 32.3125 
Q 14.796875 37.15625 21.921875 38.8125 
M 18.3125 54.390625 
Q 18.3125 48.734375 21.84375 45.5625 
Q 25.390625 42.390625 31.78125 42.390625 
Q 38.140625 42.390625 41.71875 45.5625 
Q 45.3125 48.734375 45.3125 54.390625 
Q 45.3125 60.0625 41.71875 63.234375 
Q 38.140625 66.40625 31.78125 66.40625 
Q 25.390625 66.40625 21.84375 63.234375 
Q 18.3125 60.0625 18.3125 54.390625 
" id="BitstreamVeraSans-Roman-38"/>
      </defs>
      <g transform="translate(753.208125 661.118125)scale(0.12 -0.12)">
       <use xlink:href="#BitstreamVeraSans-Roman-30"/>
       <use x="63.623046875" xlink:href="#BitstreamVeraSans-Roman-2e"/>
       <use x="95.41015625" xlink:href="#BitstreamVeraSans-Roman-38"/>
      </g>
     </g>
    </g>
    <g id="xtick_6">
     <g id="line2d_13">
      <g>
       <use style="stroke:#000000;stroke-width:0.5;" x="902.25" xlink:href="#ma8042d49c9" y="648.0"/>
      </g>
     </g>
     <g id="line2d_14">
      <g>
       <use style="stroke:#000000;stroke-width:0.5;" x="902.25" xlink:href="#mefcb60cd42" y="72.0"/>
      </g>
     </g>
     <g id="text_6">
      <!-- 1.0 -->
      <defs>
       <path d="M 12.40625 8.296875 
L 28.515625 8.296875 
L 28.515625 63.921875 
L 10.984375 60.40625 
L 10.984375 69.390625 
L 28.421875 72.90625 
L 38.28125 72.90625 
L 38.28125 8.296875 
L 54.390625 8.296875 
L 54.390625 0 
L 12.40625 0 
z
" id="BitstreamVeraSans-Roman-31"/>
      </defs>
      <g transform="translate(892.708125 661.118125)scale(0.12 -0.12)">
       <use xlink:href="#BitstreamVeraSans-Roman-31"/>
       <use x="63.623046875" xlink:href="#BitstreamVeraSans-Roman-2e"/>
       <use x="95.41015625" xlink:href="#BitstreamVeraSans-Roman-30"/>
      </g>
     </g>
    </g>
   </g>
   <g id="matplotlib.axis_2">
    <g id="ytick_1">
     <g id="line2d_15">
      <defs>
       <path d="M 0 0 
L 4 0 
" id="mc753400b4b" style="stroke:#000000;stroke-width:0.5;"/>
      </defs>
      <g>
       <use style="stroke:#000000;stroke-width:0.5;" x="135.0" xlink:href="#mc753400b4b" y="590.175"/>
      </g>
     </g>
     <g id="line2d_16">
      <defs>
       <path d="M 0 0 
L -4 0 
" id="m00232b9f8b" style="stroke:#000000;stroke-width:0.5;"/>
      </defs>
      <g>
       <use style="stroke:#000000;stroke-width:0.5;" x="972.0" xlink:href="#m00232b9f8b" y="590.175"/>
      </g>
     </g>
     <g id="text_7">
      <!-- −0.3 -->
      <defs>
       <path d="M 10.59375 35.5 
L 73.1875 35.5 
L 73.1875 27.203125 
L 10.59375 27.203125 
z
" id="BitstreamVeraSans-Roman-2212"/>
       <path d="M 40.578125 39.3125 
Q 47.65625 37.796875 51.625 33 
Q 55.609375 28.21875 55.609375 21.1875 
Q 55.609375 10.40625 48.1875 4.484375 
Q 40.765625 -1.421875 27.09375 -1.421875 
Q 22.515625 -1.421875 17.65625 -0.515625 
Q 12.796875 0.390625 7.625 2.203125 
L 7.625 11.71875 
Q 11.71875 9.328125 16.59375 8.109375 
Q 21.484375 6.890625 26.8125 6.890625 
Q 36.078125 6.890625 40.9375 10.546875 
Q 45.796875 14.203125 45.796875 21.1875 
Q 45.796875 27.640625 41.28125 31.265625 
Q 36.765625 34.90625 28.71875 34.90625 
L 20.21875 34.90625 
L 20.21875 43.015625 
L 29.109375 43.015625 
Q 36.375 43.015625 40.234375 45.921875 
Q 44.09375 48.828125 44.09375 54.296875 
Q 44.09375 59.90625 40.109375 62.90625 
Q 36.140625 65.921875 28.71875 65.921875 
Q 24.65625 65.921875 20.015625 65.03125 
Q 15.375 64.15625 9.8125 62.3125 
L 9.8125 71.09375 
Q 15.4375 72.65625 20.34375 73.4375 
Q 25.25 74.21875 29.59375 74.21875 
Q 40.828125 74.21875 47.359375 69.109375 
Q 53.90625 64.015625 53.90625 55.328125 
Q 53.90625 49.265625 50.4375 45.09375 
Q 46.96875 40.921875 40.578125 39.3125 
" id="BitstreamVeraSans-Roman-33"/>
      </defs>
      <g transform="translate(101.860625 593.48625)scale(0.12 -0.12)">
       <use xlink:href="#BitstreamVeraSans-Roman-2212"/>
       <use x="83.7890625" xlink:href="#BitstreamVeraSans-Roman-30"/>
       <use x="147.412109375" xlink:href="#BitstreamVeraSans-Roman-2e"/>
       <use x="179.19921875" xlink:href="#BitstreamVeraSans-Roman-33"/>
      </g>
     </g>
    </g>
    <g id="ytick_2">
     <g id="line2d_17">
      <g>
       <use style="stroke:#000000;stroke-width:0.5;" x="135.0" xlink:href="#mc753400b4b" y="520.425"/>
      </g>
     </g>
     <g id="line2d_18">
      <g>
       <use style="stroke:#000000;stroke-width:0.5;" x="972.0" xlink:href="#m00232b9f8b" y="520.425"/>
      </g>
     </g>
     <g id="text_8">
      <!-- −0.2 -->
      <g transform="translate(101.860625 523.73625)scale(0.12 -0.12)">
       <use xlink:href="#BitstreamVeraSans-Roman-2212"/>
       <use x="83.7890625" xlink:href="#BitstreamVeraSans-Roman-30"/>
       <use x="147.412109375" xlink:href="#BitstreamVeraSans-Roman-2e"/>
       <use x="179.19921875" xlink:href="#BitstreamVeraSans-Roman-32"/>
      </g>
     </g>
    </g>
    <g id="ytick_3">
     <g id="line2d_19">
      <g>
       <use style="stroke:#000000;stroke-width:0.5;" x="135.0" xlink:href="#mc753400b4b" y="450.675"/>
      </g>
     </g>
     <g id="line2d_20">
      <g>
       <use style="stroke:#000000;stroke-width:0.5;" x="972.0" xlink:href="#m00232b9f8b" y="450.675"/>
      </g>
     </g>
     <g id="text_9">
      <!-- −0.1 -->
      <g transform="translate(101.860625 453.98625)scale(0.12 -0.12)">
       <use xlink:href="#BitstreamVeraSans-Roman-2212"/>
       <use x="83.7890625" xlink:href="#BitstreamVeraSans-Roman-30"/>
       <use x="147.412109375" xlink:href="#BitstreamVeraSans-Roman-2e"/>
       <use x="179.19921875" xlink:href="#BitstreamVeraSans-Roman-31"/>
      </g>
     </g>
    </g>
    <g id="ytick_4">
     <g id="line2d_21">
      <g>
       <use style="stroke:#000000;stroke-width:0.5;" x="135.0" xlink:href="#mc753400b4b" y="380.925"/>
      </g>
     </g>
     <g id="line2d_22">
      <g>
       <use style="stroke:#000000;stroke-width:0.5;" x="972.0" xlink:href="#m00232b9f8b" y="380.925"/>
      </g>
     </g>
     <g id="text_10">
      <!-- 0.0 -->
      <g transform="translate(111.91625 384.23625)scale(0.12 -0.12)">
       <use xlink:href="#BitstreamVeraSans-Roman-30"/>
       <use x="63.623046875" xlink:href="#BitstreamVeraSans-Roman-2e"/>
       <use x="95.41015625" xlink:href="#BitstreamVeraSans-Roman-30"/>
      </g>
     </g>
    </g>
    <g id="ytick_5">
     <g id="line2d_23">
      <g>
       <use style="stroke:#000000;stroke-width:0.5;" x="135.0" xlink:href="#mc753400b4b" y="311.175"/>
      </g>
     </g>
     <g id="line2d_24">
      <g>
       <use style="stroke:#000000;stroke-width:0.5;" x="972.0" xlink:href="#m00232b9f8b" y="311.175"/>
      </g>
     </g>
     <g id="text_11">
      <!-- 0.1 -->
      <g transform="translate(111.91625 314.48625)scale(0.12 -0.12)">
       <use xlink:href="#BitstreamVeraSans-Roman-30"/>
       <use x="63.623046875" xlink:href="#BitstreamVeraSans-Roman-2e"/>
       <use x="95.41015625" xlink:href="#BitstreamVeraSans-Roman-31"/>
      </g>
     </g>
    </g>
    <g id="ytick_6">
     <g id="line2d_25">
      <g>
       <use style="stroke:#000000;stroke-width:0.5;" x="135.0" xlink:href="#mc753400b4b" y="241.425"/>
      </g>
     </g>
     <g id="line2d_26">
      <g>
       <use style="stroke:#000000;stroke-width:0.5;" x="972.0" xlink:href="#m00232b9f8b" y="241.425"/>
      </g>
     </g>
     <g id="text_12">
      <!-- 0.2 -->
      <g transform="translate(111.91625 244.73625)scale(0.12 -0.12)">
       <use xlink:href="#BitstreamVeraSans-Roman-30"/>
       <use x="63.623046875" xlink:href="#BitstreamVeraSans-Roman-2e"/>
       <use x="95.41015625" xlink:href="#BitstreamVeraSans-Roman-32"/>
      </g>
     </g>
    </g>
    <g id="ytick_7">
     <g id="line2d_27">
      <g>
       <use style="stroke:#000000;stroke-width:0.5;" x="135.0" xlink:href="#mc753400b4b" y="171.675"/>
      </g>
     </g>
     <g id="line2d_28">
      <g>
       <use style="stroke:#000000;stroke-width:0.5;" x="972.0" xlink:href="#m00232b9f8b" y="171.675"/>
      </g>
     </g>
     <g id="text_13">
      <!-- 0.3 -->
      <g transform="translate(111.91625 174.98625)scale(0.12 -0.12)">
       <use xlink:href="#BitstreamVeraSans-Roman-30"/>
       <use x="63.623046875" xlink:href="#BitstreamVeraSans-Roman-2e"/>
       <use x="95.41015625" xlink:href="#BitstreamVeraSans-Roman-33"/>
      </g>
     </g>
    </g>
    <g id="ytick_8">
     <g id="line2d_29">
      <g>
       <use style="stroke:#000000;stroke-width:0.5;" x="135.0" xlink:href="#mc753400b4b" y="101.925"/>
      </g>
     </g>
     <g id="line2d_30">
      <g>
       <use style="stroke:#000000;stroke-width:0.5;" x="972.0" xlink:href="#m00232b9f8b" y="101.925"/>
      </g>
     </g>
     <g id="text_14">
      <!-- 0.4 -->
      <g transform="translate(111.91625 105.23625)scale(0.12 -0.12)">
       <use xlink:href="#BitstreamVeraSans-Roman-30"/>
       <use x="63.623046875" xlink:href="#BitstreamVeraSans-Roman-2e"/>
       <use x="95.41015625" xlink:href="#BitstreamVeraSans-Roman-34"/>
      </g>
     </g>
    </g>
   </g>
   <g id="text_15">
    <!-- clarkx  residuals: 0.000001  0 -->
    <defs>
     <path id="BitstreamVeraSans-Roman-20"/>
     <path d="M 34.28125 27.484375 
Q 23.390625 27.484375 19.1875 25 
Q 14.984375 22.515625 14.984375 16.5 
Q 14.984375 11.71875 18.140625 8.90625 
Q 21.296875 6.109375 26.703125 6.109375 
Q 34.1875 6.109375 38.703125 11.40625 
Q 43.21875 16.703125 43.21875 25.484375 
L 43.21875 27.484375 
z
M 52.203125 31.203125 
L 52.203125 0 
L 43.21875 0 
L 43.21875 8.296875 
Q 40.140625 3.328125 35.546875 0.953125 
Q 30.953125 -1.421875 24.3125 -1.421875 
Q 15.921875 -1.421875 10.953125 3.296875 
Q 6 8.015625 6 15.921875 
Q 6 25.140625 12.171875 29.828125 
Q 18.359375 34.515625 30.609375 34.515625 
L 43.21875 34.515625 
L 43.21875 35.40625 
Q 43.21875 41.609375 39.140625 45 
Q 35.0625 48.390625 27.6875 48.390625 
Q 23 48.390625 18.546875 47.265625 
Q 14.109375 46.140625 10.015625 43.890625 
L 10.015625 52.203125 
Q 14.9375 54.109375 19.578125 55.046875 
Q 24.21875 56 28.609375 56 
Q 40.484375 56 46.34375 49.84375 
Q 52.203125 43.703125 52.203125 31.203125 
" id="BitstreamVeraSans-Roman-61"/>
     <path d="M 9.421875 75.984375 
L 18.40625 75.984375 
L 18.40625 0 
L 9.421875 0 
z
" id="BitstreamVeraSans-Roman-6c"/>
     <path d="M 9.078125 75.984375 
L 18.109375 75.984375 
L 18.109375 31.109375 
L 44.921875 54.6875 
L 56.390625 54.6875 
L 27.390625 29.109375 
L 57.625 0 
L 45.90625 0 
L 18.109375 26.703125 
L 18.109375 0 
L 9.078125 0 
z
" id="BitstreamVeraSans-Roman-6b"/>
     <path d="M 11.71875 12.40625 
L 22.015625 12.40625 
L 22.015625 0 
L 11.71875 0 
z
M 11.71875 51.703125 
L 22.015625 51.703125 
L 22.015625 39.3125 
L 11.71875 39.3125 
z
" id="BitstreamVeraSans-Roman-3a"/>
     <path d="M 9.421875 54.6875 
L 18.40625 54.6875 
L 18.40625 0 
L 9.421875 0 
z
M 9.421875 75.984375 
L 18.40625 75.984375 
L 18.40625 64.59375 
L 9.421875 64.59375 
z
" id="BitstreamVeraSans-Roman-69"/>
     <path d="M 54.890625 54.6875 
L 35.109375 28.078125 
L 55.90625 0 
L 45.3125 0 
L 29.390625 21.484375 
L 13.484375 0 
L 2.875 0 
L 24.125 28.609375 
L 4.6875 54.6875 
L 15.28125 54.6875 
L 29.78125 35.203125 
L 44.28125 54.6875 
z
" id="BitstreamVeraSans-Roman-78"/>
     <path d="M 56.203125 29.59375 
L 56.203125 25.203125 
L 14.890625 25.203125 
Q 15.484375 15.921875 20.484375 11.0625 
Q 25.484375 6.203125 34.421875 6.203125 
Q 39.59375 6.203125 44.453125 7.46875 
Q 49.3125 8.734375 54.109375 11.28125 
L 54.109375 2.78125 
Q 49.265625 0.734375 44.1875 -0.34375 
Q 39.109375 -1.421875 33.890625 -1.421875 
Q 20.796875 -1.421875 13.15625 6.1875 
Q 5.515625 13.8125 5.515625 26.8125 
Q 5.515625 40.234375 12.765625 48.109375 
Q 20.015625 56 32.328125 56 
Q 43.359375 56 49.78125 48.890625 
Q 56.203125 41.796875 56.203125 29.59375 
M 47.21875 32.234375 
Q 47.125 39.59375 43.09375 43.984375 
Q 39.0625 48.390625 32.421875 48.390625 
Q 24.90625 48.390625 20.390625 44.140625 
Q 15.875 39.890625 15.1875 32.171875 
z
" id="BitstreamVeraSans-Roman-65"/>
     <path d="M 45.40625 46.390625 
L 45.40625 75.984375 
L 54.390625 75.984375 
L 54.390625 0 
L 45.40625 0 
L 45.40625 8.203125 
Q 42.578125 3.328125 38.25 0.953125 
Q 33.9375 -1.421875 27.875 -1.421875 
Q 17.96875 -1.421875 11.734375 6.484375 
Q 5.515625 14.40625 5.515625 27.296875 
Q 5.515625 40.1875 11.734375 48.09375 
Q 17.96875 56 27.875 56 
Q 33.9375 56 38.25 53.625 
Q 42.578125 51.265625 45.40625 46.390625 
M 14.796875 27.296875 
Q 14.796875 17.390625 18.875 11.75 
Q 22.953125 6.109375 30.078125 6.109375 
Q 37.203125 6.109375 41.296875 11.75 
Q 45.40625 17.390625 45.40625 27.296875 
Q 45.40625 37.203125 41.296875 42.84375 
Q 37.203125 48.484375 30.078125 48.484375 
Q 22.953125 48.484375 18.875 42.84375 
Q 14.796875 37.203125 14.796875 27.296875 
" id="BitstreamVeraSans-Roman-64"/>
     <path d="M 8.5 21.578125 
L 8.5 54.6875 
L 17.484375 54.6875 
L 17.484375 21.921875 
Q 17.484375 14.15625 20.5 10.265625 
Q 23.53125 6.390625 29.59375 6.390625 
Q 36.859375 6.390625 41.078125 11.03125 
Q 45.3125 15.671875 45.3125 23.6875 
L 45.3125 54.6875 
L 54.296875 54.6875 
L 54.296875 0 
L 45.3125 0 
L 45.3125 8.40625 
Q 42.046875 3.421875 37.71875 1 
Q 33.40625 -1.421875 27.6875 -1.421875 
Q 18.265625 -1.421875 13.375 4.4375 
Q 8.5 10.296875 8.5 21.578125 
" id="BitstreamVeraSans-Roman-75"/>
     <path d="M 41.109375 46.296875 
Q 39.59375 47.171875 37.8125 47.578125 
Q 36.03125 48 33.890625 48 
Q 26.265625 48 22.1875 43.046875 
Q 18.109375 38.09375 18.109375 28.8125 
L 18.109375 0 
L 9.078125 0 
L 9.078125 54.6875 
L 18.109375 54.6875 
L 18.109375 46.1875 
Q 20.953125 51.171875 25.484375 53.578125 
Q 30.03125 56 36.53125 56 
Q 37.453125 56 38.578125 55.875 
Q 39.703125 55.765625 41.0625 55.515625 
z
" id="BitstreamVeraSans-Roman-72"/>
     <path d="M 44.28125 53.078125 
L 44.28125 44.578125 
Q 40.484375 46.53125 36.375 47.5 
Q 32.28125 48.484375 27.875 48.484375 
Q 21.1875 48.484375 17.84375 46.4375 
Q 14.5 44.390625 14.5 40.28125 
Q 14.5 37.15625 16.890625 35.375 
Q 19.28125 33.59375 26.515625 31.984375 
L 29.59375 31.296875 
Q 39.15625 29.25 43.1875 25.515625 
Q 47.21875 21.78125 47.21875 15.09375 
Q 47.21875 7.46875 41.1875 3.015625 
Q 35.15625 -1.421875 24.609375 -1.421875 
Q 20.21875 -1.421875 15.453125 -0.5625 
Q 10.6875 0.296875 5.421875 2 
L 5.421875 11.28125 
Q 10.40625 8.6875 15.234375 7.390625 
Q 20.0625 6.109375 24.8125 6.109375 
Q 31.15625 6.109375 34.5625 8.28125 
Q 37.984375 10.453125 37.984375 14.40625 
Q 37.984375 18.0625 35.515625 20.015625 
Q 33.0625 21.96875 24.703125 23.78125 
L 21.578125 24.515625 
Q 13.234375 26.265625 9.515625 29.90625 
Q 5.8125 33.546875 5.8125 39.890625 
Q 5.8125 47.609375 11.28125 51.796875 
Q 16.75 56 26.8125 56 
Q 31.78125 56 36.171875 55.265625 
Q 40.578125 54.546875 44.28125 53.078125 
" id="BitstreamVeraSans-Roman-73"/>
     <path d="M 48.78125 52.59375 
L 48.78125 44.1875 
Q 44.96875 46.296875 41.140625 47.34375 
Q 37.3125 48.390625 33.40625 48.390625 
Q 24.65625 48.390625 19.8125 42.84375 
Q 14.984375 37.3125 14.984375 27.296875 
Q 14.984375 17.28125 19.8125 11.734375 
Q 24.65625 6.203125 33.40625 6.203125 
Q 37.3125 6.203125 41.140625 7.25 
Q 44.96875 8.296875 48.78125 10.40625 
L 48.78125 2.09375 
Q 45.015625 0.34375 40.984375 -0.53125 
Q 36.96875 -1.421875 32.421875 -1.421875 
Q 20.0625 -1.421875 12.78125 6.34375 
Q 5.515625 14.109375 5.515625 27.296875 
Q 5.515625 40.671875 12.859375 48.328125 
Q 20.21875 56 33.015625 56 
Q 37.15625 56 41.109375 55.140625 
Q 45.0625 54.296875 48.78125 52.59375 
" id="BitstreamVeraSans-Roman-63"/>
    </defs>
    <g transform="translate(446.499 67.0)scale(0.144 -0.144)">
     <use xlink:href="#BitstreamVeraSans-Roman-63"/>
     <use x="54.98046875" xlink:href="#BitstreamVeraSans-Roman-6c"/>
     <use x="82.763671875" xlink:href="#BitstreamVeraSans-Roman-61"/>
     <use x="144.04296875" xlink:href="#BitstreamVeraSans-Roman-72"/>
     <use x="185.15625" xlink:href="#BitstreamVeraSans-Roman-6b"/>
     <use x="243.06640625" xlink:href="#BitstreamVeraSans-Roman-78"/>
     <use x="302.24609375" xlink:href="#BitstreamVeraSans-Roman-20"/>
     <use x="334.033203125" xlink:href="#BitstreamVeraSans-Roman-20"/>
     <use x="365.8203125" xlink:href="#BitstreamVeraSans-Roman-72"/>
     <use x="406.90234375" xlink:href="#BitstreamVeraSans-Roman-65"/>
     <use x="468.42578125" xlink:href="#BitstreamVeraSans-Roman-73"/>
     <use x="520.525390625" xlink:href="#BitstreamVeraSans-Roman-69"/>
     <use x="548.30859375" xlink:href="#BitstreamVeraSans-Roman-64"/>
     <use x="611.78515625" xlink:href="#BitstreamVeraSans-Roman-75"/>
     <use x="675.1640625" xlink:href="#BitstreamVeraSans-Roman-61"/>
     <use x="736.443359375" xlink:href="#BitstreamVeraSans-Roman-6c"/>
     <use x="764.2265625" xlink:href="#BitstreamVeraSans-Roman-73"/>
     <use x="816.326171875" xlink:href="#BitstreamVeraSans-Roman-3a"/>
     <use x="850.017578125" xlink:href="#BitstreamVeraSans-Roman-20"/>
     <use x="881.8046875" xlink:href="#BitstreamVeraSans-Roman-30"/>
     <use x="945.427734375" xlink:href="#BitstreamVeraSans-Roman-2e"/>
     <use x="977.21484375" xlink:href="#BitstreamVeraSans-Roman-30"/>
     <use x="1040.83789062" xlink:href="#BitstreamVeraSans-Roman-30"/>
     <use x="1104.4609375" xlink:href="#BitstreamVeraSans-Roman-30"/>
     <use x="1168.08398438" xlink:href="#BitstreamVeraSans-Roman-30"/>
     <use x="1231.70703125" xlink:href="#BitstreamVeraSans-Roman-30"/>
     <use x="1295.33007812" xlink:href="#BitstreamVeraSans-Roman-31"/>
     <use x="1358.953125" xlink:href="#BitstreamVeraSans-Roman-20"/>
     <use x="1390.74023438" xlink:href="#BitstreamVeraSans-Roman-20"/>
     <use x="1422.52734375" xlink:href="#BitstreamVeraSans-Roman-30"/>
    </g>
   </g>
  </g>
 </g>
 <defs>
  <clipPath id="p618d097f0a">
   <rect height="576.0" width="837.0" x="135.0" y="72.0"/>
  </clipPath>
 </defs>
</svg>
