<?xml version="1.0" encoding="utf-8" standalone="no"?>
<!DOCTYPE svg PUBLIC "-//W3C//DTD SVG 1.1//EN"
  "http://www.w3.org/Graphics/SVG/1.1/DTD/svg11.dtd">
<!-- Created with matplotlib (http://matplotlib.org/) -->
<svg height="720pt" version="1.1" viewBox="0 0 1080 720" width="1080pt" xmlns="http://www.w3.org/2000/svg" xmlns:xlink="http://www.w3.org/1999/xlink">
 <defs>
  <style type="text/css">
*{stroke-linecap:butt;stroke-linejoin:round;stroke-miterlimit:100000;}
  </style>
 </defs>
 <g id="figure_1">
  <g id="patch_1">
   <path d="M 0 720 
L 1080 720 
L 1080 0 
L 0 0 
z
" style="fill:#ffffff;"/>
  </g>
  <g id="axes_1">
   <g id="patch_2">
    <path d="M 135 648 
L 972 648 
L 972 72 
L 135 72 
z
" style="fill:#ffffff;"/>
   </g>
   <g id="line2d_1">
    <defs>
     <path d="M 0 3 
C 0.795609 3 1.55874 2.683901 2.12132 2.12132 
C 2.683901 1.55874 3 0.795609 3 0 
C 3 -0.795609 2.683901 -1.55874 2.12132 -2.12132 
C 1.55874 -2.683901 0.795609 -3 0 -3 
C -0.795609 -3 -1.55874 -2.683901 -2.12132 -2.12132 
C -2.683901 -1.55874 -3 -0.795609 -3 0 
C -3 0.795609 -2.683901 1.55874 -2.12132 2.12132 
C -1.55874 2.683901 -0.795609 3 0 3 
z
" id="m49f18182ad" style="stroke:#000000;stroke-width:0.5;"/>
    </defs>
    <g clip-path="url(#p980760809f)">
     <use style="fill:#ff0000;opacity:0.5;stroke:#000000;stroke-width:0.5;" x="902.25" xlink:href="#m49f18182ad" y="373.95"/>
     <use style="fill:#ff0000;opacity:0.5;stroke:#000000;stroke-width:0.5;" x="900.018" xlink:href="#m49f18182ad" y="373.650075"/>
     <use style="fill:#ff0000;opacity:0.5;stroke:#000000;stroke-width:0.5;" x="893.370825" xlink:href="#m49f18182ad" y="372.645675"/>
     <use style="fill:#ff0000;opacity:0.5;stroke:#000000;stroke-width:0.5;" x="882.4689" xlink:href="#m49f18182ad" y="370.915875"/>
     <use style="fill:#ff0000;opacity:0.5;stroke:#000000;stroke-width:0.5;" x="867.58425" xlink:href="#m49f18182ad" y="368.418825"/>
     <use style="fill:#ff0000;opacity:0.5;stroke:#000000;stroke-width:0.5;" x="849.0726" xlink:href="#m49f18182ad" y="365.17545"/>
     <use style="fill:#ff0000;opacity:0.5;stroke:#000000;stroke-width:0.5;" x="827.24085" xlink:href="#m49f18182ad" y="361.26945"/>
     <use style="fill:#ff0000;opacity:0.5;stroke:#000000;stroke-width:0.5;" x="802.49355" xlink:href="#m49f18182ad" y="356.86125"/>
     <use style="fill:#ff0000;opacity:0.5;stroke:#000000;stroke-width:0.5;" x="775.200375" xlink:href="#m49f18182ad" y="352.167075"/>
     <use style="fill:#ff0000;opacity:0.5;stroke:#000000;stroke-width:0.5;" x="745.737975" xlink:href="#m49f18182ad" y="347.382225"/>
     <use style="fill:#ff0000;opacity:0.5;stroke:#000000;stroke-width:0.5;" x="714.44115" xlink:href="#m49f18182ad" y="342.6741"/>
     <use style="fill:#ff0000;opacity:0.5;stroke:#000000;stroke-width:0.5;" x="681.68655" xlink:href="#m49f18182ad" y="338.175225"/>
     <use style="fill:#ff0000;opacity:0.5;stroke:#000000;stroke-width:0.5;" x="647.864775" xlink:href="#m49f18182ad" y="333.976275"/>
     <use style="fill:#ff0000;opacity:0.5;stroke:#000000;stroke-width:0.5;" x="613.282725" xlink:href="#m49f18182ad" y="330.153975"/>
     <use style="fill:#ff0000;opacity:0.5;stroke:#000000;stroke-width:0.5;" x="578.3031" xlink:href="#m49f18182ad" y="326.819925"/>
     <use style="fill:#ff0000;opacity:0.5;stroke:#000000;stroke-width:0.5;" x="543.211875" xlink:href="#m49f18182ad" y="324.085725"/>
     <use style="fill:#ff0000;opacity:0.5;stroke:#000000;stroke-width:0.5;" x="508.295025" xlink:href="#m49f18182ad" y="322.0839"/>
     <use style="fill:#ff0000;opacity:0.5;stroke:#000000;stroke-width:0.5;" x="473.8734" xlink:href="#m49f18182ad" y="320.905125"/>
     <use style="fill:#ff0000;opacity:0.5;stroke:#000000;stroke-width:0.5;" x="440.3097" xlink:href="#m49f18182ad" y="320.5773"/>
     <use style="fill:#ff0000;opacity:0.5;stroke:#000000;stroke-width:0.5;" x="407.9457" xlink:href="#m49f18182ad" y="321.0795"/>
     <use style="fill:#ff0000;opacity:0.5;stroke:#000000;stroke-width:0.5;" x="377.1441" xlink:href="#m49f18182ad" y="322.355925"/>
     <use style="fill:#ff0000;opacity:0.5;stroke:#000000;stroke-width:0.5;" x="348.190875" xlink:href="#m49f18182ad" y="324.1206"/>
     <use style="fill:#ff0000;opacity:0.5;stroke:#000000;stroke-width:0.5;" x="321.392925" xlink:href="#m49f18182ad" y="326.31075"/>
     <use style="fill:#ff0000;opacity:0.5;stroke:#000000;stroke-width:0.5;" x="296.938575" xlink:href="#m49f18182ad" y="329.093775"/>
     <use style="fill:#ff0000;opacity:0.5;stroke:#000000;stroke-width:0.5;" x="275.0022" xlink:href="#m49f18182ad" y="332.658"/>
     <use style="fill:#ff0000;opacity:0.5;stroke:#000000;stroke-width:0.5;" x="255.79305" xlink:href="#m49f18182ad" y="337.19175"/>
     <use style="fill:#ff0000;opacity:0.5;stroke:#000000;stroke-width:0.5;" x="239.520375" xlink:href="#m49f18182ad" y="342.77175"/>
     <use style="fill:#ff0000;opacity:0.5;stroke:#000000;stroke-width:0.5;" x="226.309725" xlink:href="#m49f18182ad" y="349.49565"/>
     <use style="fill:#ff0000;opacity:0.5;stroke:#000000;stroke-width:0.5;" x="216.237825" xlink:href="#m49f18182ad" y="356.868225"/>
     <use style="fill:#ff0000;opacity:0.5;stroke:#000000;stroke-width:0.5;" x="209.332575" xlink:href="#m49f18182ad" y="364.00365"/>
     <use style="fill:#ff0000;opacity:0.5;stroke:#000000;stroke-width:0.5;" x="205.566075" xlink:href="#m49f18182ad" y="370.08585"/>
     <use style="fill:#ff0000;opacity:0.5;stroke:#000000;stroke-width:0.5;" x="204.75" xlink:href="#m49f18182ad" y="374.570775"/>
     <use style="fill:#ff0000;opacity:0.5;stroke:#000000;stroke-width:0.5;" x="208.1538" xlink:href="#m49f18182ad" y="379.299825"/>
     <use style="fill:#ff0000;opacity:0.5;stroke:#000000;stroke-width:0.5;" x="215.36595" xlink:href="#m49f18182ad" y="383.36625"/>
     <use style="fill:#ff0000;opacity:0.5;stroke:#000000;stroke-width:0.5;" x="225.6471" xlink:href="#m49f18182ad" y="387.153675"/>
     <use style="fill:#ff0000;opacity:0.5;stroke:#000000;stroke-width:0.5;" x="238.82985" xlink:href="#m49f18182ad" y="390.67605"/>
     <use style="fill:#ff0000;opacity:0.5;stroke:#000000;stroke-width:0.5;" x="254.976975" xlink:href="#m49f18182ad" y="393.821775"/>
     <use style="fill:#ff0000;opacity:0.5;stroke:#000000;stroke-width:0.5;" x="274.144275" xlink:href="#m49f18182ad" y="396.3816"/>
     <use style="fill:#ff0000;opacity:0.5;stroke:#000000;stroke-width:0.5;" x="296.380575" xlink:href="#m49f18182ad" y="398.188125"/>
     <use style="fill:#ff0000;opacity:0.5;stroke:#000000;stroke-width:0.5;" x="321.671925" xlink:href="#m49f18182ad" y="399.136725"/>
     <use style="fill:#ff0000;opacity:0.5;stroke:#000000;stroke-width:0.5;" x="349.76025" xlink:href="#m49f18182ad" y="399.262275"/>
     <use style="fill:#ff0000;opacity:0.5;stroke:#000000;stroke-width:0.5;" x="380.28285" xlink:href="#m49f18182ad" y="398.690325"/>
     <use style="fill:#ff0000;opacity:0.5;stroke:#000000;stroke-width:0.5;" x="412.884" xlink:href="#m49f18182ad" y="397.644075"/>
     <use style="fill:#ff0000;opacity:0.5;stroke:#000000;stroke-width:0.5;" x="447.235875" xlink:href="#m49f18182ad" y="396.304875"/>
     <use style="fill:#ff0000;opacity:0.5;stroke:#000000;stroke-width:0.5;" x="482.975775" xlink:href="#m49f18182ad" y="394.7913"/>
     <use style="fill:#ff0000;opacity:0.5;stroke:#000000;stroke-width:0.5;" x="519.789825" xlink:href="#m49f18182ad" y="393.138225"/>
     <use style="fill:#ff0000;opacity:0.5;stroke:#000000;stroke-width:0.5;" x="557.25255" xlink:href="#m49f18182ad" y="391.3596"/>
     <use style="fill:#ff0000;opacity:0.5;stroke:#000000;stroke-width:0.5;" x="594.91755" xlink:href="#m49f18182ad" y="389.47635"/>
     <use style="fill:#ff0000;opacity:0.5;stroke:#000000;stroke-width:0.5;" x="632.310525" xlink:href="#m49f18182ad" y="387.572175"/>
     <use style="fill:#ff0000;opacity:0.5;stroke:#000000;stroke-width:0.5;" x="668.915325" xlink:href="#m49f18182ad" y="385.730775"/>
     <use style="fill:#ff0000;opacity:0.5;stroke:#000000;stroke-width:0.5;" x="704.306475" xlink:href="#m49f18182ad" y="384.0219"/>
     <use style="fill:#ff0000;opacity:0.5;stroke:#000000;stroke-width:0.5;" x="738.0306" xlink:href="#m49f18182ad" y="382.44555"/>
     <use style="fill:#ff0000;opacity:0.5;stroke:#000000;stroke-width:0.5;" x="769.6692" xlink:href="#m49f18182ad" y="380.9529"/>
     <use style="fill:#ff0000;opacity:0.5;stroke:#000000;stroke-width:0.5;" x="798.78285" xlink:href="#m49f18182ad" y="379.481175"/>
     <use style="fill:#ff0000;opacity:0.5;stroke:#000000;stroke-width:0.5;" x="824.960025" xlink:href="#m49f18182ad" y="378.030375"/>
     <use style="fill:#ff0000;opacity:0.5;stroke:#000000;stroke-width:0.5;" x="847.8171" xlink:href="#m49f18182ad" y="376.677225"/>
     <use style="fill:#ff0000;opacity:0.5;stroke:#000000;stroke-width:0.5;" x="866.9844" xlink:href="#m49f18182ad" y="375.547275"/>
     <use style="fill:#ff0000;opacity:0.5;stroke:#000000;stroke-width:0.5;" x="882.224775" xlink:href="#m49f18182ad" y="374.74515"/>
     <use style="fill:#ff0000;opacity:0.5;stroke:#000000;stroke-width:0.5;" x="893.287125" xlink:href="#m49f18182ad" y="374.27085"/>
     <use style="fill:#ff0000;opacity:0.5;stroke:#000000;stroke-width:0.5;" x="899.997075" xlink:href="#m49f18182ad" y="374.054625"/>
     <use style="fill:#ff0000;opacity:0.5;stroke:#000000;stroke-width:0.5;" x="902.25" xlink:href="#m49f18182ad" y="373.998825"/>
    </g>
   </g>
   <g id="line2d_2">
    <path clip-path="url(#p980760809f)" d="M 902.239339 374.029999 
L 878.418075 370.161142 
L 854.509511 366.079767 
L 830.49571 361.870269 
L 806.438021 357.633733 
L 782.487913 353.487931 
L 758.609001 349.51134 
L 734.72157 345.730489 
L 710.821495 342.158672 
L 686.909677 338.809612 
L 662.986999 335.69696 
L 639.05433 332.834296 
L 615.112513 330.235126 
L 591.162361 327.912886 
L 567.204656 325.880945 
L 543.240137 324.1526 
L 519.277472 322.743096 
L 495.330193 321.673856 
L 471.406223 320.967235 
L 447.513385 320.645377 
L 423.659381 320.73021 
L 399.853197 321.243528 
L 376.11745 322.212624 
L 352.457292 323.674069 
L 328.871625 325.664931 
L 305.358858 328.221934 
L 282.346728 331.378184 
L 261.384749 335.587796 
L 242.603897 341.569694 
L 225.803162 349.844046 
L 213.130396 359.518907 
L 205.93567 369.734293 
L 204.730424 374.297197 
L 206.014435 377.020739 
L 214.274453 382.988153 
L 230.62815 388.617295 
L 251.54886 393.224337 
L 273.416073 396.286033 
L 296.158267 398.130943 
L 319.432704 399.093225 
L 342.960516 399.351759 
L 366.747285 399.061684 
L 390.797386 398.388568 
L 415.113258 397.509438 
L 439.527592 396.574848 
L 463.920657 395.603743 
L 488.293777 394.585213 
L 512.648281 393.508387 
L 536.997053 392.36379 
L 561.373672 391.160138 
L 585.780828 389.918782 
L 610.215395 388.661666 
L 634.632801 387.412987 
L 659.020253 386.195235 
L 683.392443 385.027429 
L 707.808085 383.896537 
L 732.236825 382.770136 
L 756.615977 381.616604 
L 780.943382 380.40189 
L 805.2249 379.092333 
L 829.594157 377.690803 
L 853.948682 376.295547 
L 878.164227 375.014326 
L 902.247404 373.944028 
" style="fill:none;opacity:0.5;stroke:#0000ff;stroke-linecap:square;"/>
    <defs>
     <path d="M 0 3 
C 0.795609 3 1.55874 2.683901 2.12132 2.12132 
C 2.683901 1.55874 3 0.795609 3 0 
C 3 -0.795609 2.683901 -1.55874 2.12132 -2.12132 
C 1.55874 -2.683901 0.795609 -3 0 -3 
C -0.795609 -3 -1.55874 -2.683901 -2.12132 -2.12132 
C -2.683901 -1.55874 -3 -0.795609 -3 0 
C -3 0.795609 -2.683901 1.55874 -2.12132 2.12132 
C -1.55874 2.683901 -0.795609 3 0 3 
z
" id="ma9859ba7a0" style="stroke:#000000;stroke-width:0.5;"/>
    </defs>
    <g clip-path="url(#p980760809f)">
     <use style="fill:#0000ff;opacity:0.5;stroke:#000000;stroke-width:0.5;" x="902.239339362" xlink:href="#ma9859ba7a0" y="374.029998707"/>
     <use style="fill:#0000ff;opacity:0.5;stroke:#000000;stroke-width:0.5;" x="878.418075266" xlink:href="#ma9859ba7a0" y="370.161142203"/>
     <use style="fill:#0000ff;opacity:0.5;stroke:#000000;stroke-width:0.5;" x="854.50951068" xlink:href="#ma9859ba7a0" y="366.07976685"/>
     <use style="fill:#0000ff;opacity:0.5;stroke:#000000;stroke-width:0.5;" x="830.49570998" xlink:href="#ma9859ba7a0" y="361.87026872"/>
     <use style="fill:#0000ff;opacity:0.5;stroke:#000000;stroke-width:0.5;" x="806.438021298" xlink:href="#ma9859ba7a0" y="357.633733495"/>
     <use style="fill:#0000ff;opacity:0.5;stroke:#000000;stroke-width:0.5;" x="782.487912742" xlink:href="#ma9859ba7a0" y="353.487930991"/>
     <use style="fill:#0000ff;opacity:0.5;stroke:#000000;stroke-width:0.5;" x="758.609001263" xlink:href="#ma9859ba7a0" y="349.511340324"/>
     <use style="fill:#0000ff;opacity:0.5;stroke:#000000;stroke-width:0.5;" x="734.721569635" xlink:href="#ma9859ba7a0" y="345.730488978"/>
     <use style="fill:#0000ff;opacity:0.5;stroke:#000000;stroke-width:0.5;" x="710.821495151" xlink:href="#ma9859ba7a0" y="342.158671861"/>
     <use style="fill:#0000ff;opacity:0.5;stroke:#000000;stroke-width:0.5;" x="686.909676662" xlink:href="#ma9859ba7a0" y="338.809611971"/>
     <use style="fill:#0000ff;opacity:0.5;stroke:#000000;stroke-width:0.5;" x="662.986999433" xlink:href="#ma9859ba7a0" y="335.696960289"/>
     <use style="fill:#0000ff;opacity:0.5;stroke:#000000;stroke-width:0.5;" x="639.054330341" xlink:href="#ma9859ba7a0" y="332.834295756"/>
     <use style="fill:#0000ff;opacity:0.5;stroke:#000000;stroke-width:0.5;" x="615.11251277" xlink:href="#ma9859ba7a0" y="330.235125631"/>
     <use style="fill:#0000ff;opacity:0.5;stroke:#000000;stroke-width:0.5;" x="591.162361259" xlink:href="#ma9859ba7a0" y="327.912886312"/>
     <use style="fill:#0000ff;opacity:0.5;stroke:#000000;stroke-width:0.5;" x="567.204655904" xlink:href="#ma9859ba7a0" y="325.880944691"/>
     <use style="fill:#0000ff;opacity:0.5;stroke:#000000;stroke-width:0.5;" x="543.240137081" xlink:href="#ma9859ba7a0" y="324.152600172"/>
     <use style="fill:#0000ff;opacity:0.5;stroke:#000000;stroke-width:0.5;" x="519.277472133" xlink:href="#ma9859ba7a0" y="322.743096492"/>
     <use style="fill:#0000ff;opacity:0.5;stroke:#000000;stroke-width:0.5;" x="495.330192961" xlink:href="#ma9859ba7a0" y="321.67385605"/>
     <use style="fill:#0000ff;opacity:0.5;stroke:#000000;stroke-width:0.5;" x="471.406222654" xlink:href="#ma9859ba7a0" y="320.967235492"/>
     <use style="fill:#0000ff;opacity:0.5;stroke:#000000;stroke-width:0.5;" x="447.513384831" xlink:href="#ma9859ba7a0" y="320.645377127"/>
     <use style="fill:#0000ff;opacity:0.5;stroke:#000000;stroke-width:0.5;" x="423.659381323" xlink:href="#ma9859ba7a0" y="320.730210457"/>
     <use style="fill:#0000ff;opacity:0.5;stroke:#000000;stroke-width:0.5;" x="399.853197337" xlink:href="#ma9859ba7a0" y="321.243527861"/>
     <use style="fill:#0000ff;opacity:0.5;stroke:#000000;stroke-width:0.5;" x="376.117449552" xlink:href="#ma9859ba7a0" y="322.212623542"/>
     <use style="fill:#0000ff;opacity:0.5;stroke:#000000;stroke-width:0.5;" x="352.457292007" xlink:href="#ma9859ba7a0" y="323.674069275"/>
     <use style="fill:#0000ff;opacity:0.5;stroke:#000000;stroke-width:0.5;" x="328.871624894" xlink:href="#ma9859ba7a0" y="325.664931057"/>
     <use style="fill:#0000ff;opacity:0.5;stroke:#000000;stroke-width:0.5;" x="305.358858062" xlink:href="#ma9859ba7a0" y="328.221934122"/>
     <use style="fill:#0000ff;opacity:0.5;stroke:#000000;stroke-width:0.5;" x="282.346728044" xlink:href="#ma9859ba7a0" y="331.378183902"/>
     <use style="fill:#0000ff;opacity:0.5;stroke:#000000;stroke-width:0.5;" x="261.384748669" xlink:href="#ma9859ba7a0" y="335.587795525"/>
     <use style="fill:#0000ff;opacity:0.5;stroke:#000000;stroke-width:0.5;" x="242.603897143" xlink:href="#ma9859ba7a0" y="341.569693734"/>
     <use style="fill:#0000ff;opacity:0.5;stroke:#000000;stroke-width:0.5;" x="225.803162219" xlink:href="#ma9859ba7a0" y="349.844045867"/>
     <use style="fill:#0000ff;opacity:0.5;stroke:#000000;stroke-width:0.5;" x="213.130396426" xlink:href="#ma9859ba7a0" y="359.518906634"/>
     <use style="fill:#0000ff;opacity:0.5;stroke:#000000;stroke-width:0.5;" x="205.93566954" xlink:href="#ma9859ba7a0" y="369.734292766"/>
     <use style="fill:#0000ff;opacity:0.5;stroke:#000000;stroke-width:0.5;" x="204.730424478" xlink:href="#ma9859ba7a0" y="374.297197121"/>
     <use style="fill:#0000ff;opacity:0.5;stroke:#000000;stroke-width:0.5;" x="206.014434983" xlink:href="#ma9859ba7a0" y="377.020739325"/>
     <use style="fill:#0000ff;opacity:0.5;stroke:#000000;stroke-width:0.5;" x="214.2744525" xlink:href="#ma9859ba7a0" y="382.98815336"/>
     <use style="fill:#0000ff;opacity:0.5;stroke:#000000;stroke-width:0.5;" x="230.628149568" xlink:href="#ma9859ba7a0" y="388.617294723"/>
     <use style="fill:#0000ff;opacity:0.5;stroke:#000000;stroke-width:0.5;" x="251.548860241" xlink:href="#ma9859ba7a0" y="393.224336611"/>
     <use style="fill:#0000ff;opacity:0.5;stroke:#000000;stroke-width:0.5;" x="273.416072925" xlink:href="#ma9859ba7a0" y="396.286032665"/>
     <use style="fill:#0000ff;opacity:0.5;stroke:#000000;stroke-width:0.5;" x="296.158266732" xlink:href="#ma9859ba7a0" y="398.130943177"/>
     <use style="fill:#0000ff;opacity:0.5;stroke:#000000;stroke-width:0.5;" x="319.432704048" xlink:href="#ma9859ba7a0" y="399.093224943"/>
     <use style="fill:#0000ff;opacity:0.5;stroke:#000000;stroke-width:0.5;" x="342.960516122" xlink:href="#ma9859ba7a0" y="399.351759193"/>
     <use style="fill:#0000ff;opacity:0.5;stroke:#000000;stroke-width:0.5;" x="366.747284887" xlink:href="#ma9859ba7a0" y="399.061683811"/>
     <use style="fill:#0000ff;opacity:0.5;stroke:#000000;stroke-width:0.5;" x="390.797386095" xlink:href="#ma9859ba7a0" y="398.388567645"/>
     <use style="fill:#0000ff;opacity:0.5;stroke:#000000;stroke-width:0.5;" x="415.11325799" xlink:href="#ma9859ba7a0" y="397.509438395"/>
     <use style="fill:#0000ff;opacity:0.5;stroke:#000000;stroke-width:0.5;" x="439.527592319" xlink:href="#ma9859ba7a0" y="396.574847502"/>
     <use style="fill:#0000ff;opacity:0.5;stroke:#000000;stroke-width:0.5;" x="463.920657136" xlink:href="#ma9859ba7a0" y="395.603742977"/>
     <use style="fill:#0000ff;opacity:0.5;stroke:#000000;stroke-width:0.5;" x="488.293776711" xlink:href="#ma9859ba7a0" y="394.585212917"/>
     <use style="fill:#0000ff;opacity:0.5;stroke:#000000;stroke-width:0.5;" x="512.648281241" xlink:href="#ma9859ba7a0" y="393.508386646"/>
     <use style="fill:#0000ff;opacity:0.5;stroke:#000000;stroke-width:0.5;" x="536.99705311" xlink:href="#ma9859ba7a0" y="392.363789794"/>
     <use style="fill:#0000ff;opacity:0.5;stroke:#000000;stroke-width:0.5;" x="561.373672438" xlink:href="#ma9859ba7a0" y="391.160137619"/>
     <use style="fill:#0000ff;opacity:0.5;stroke:#000000;stroke-width:0.5;" x="585.780827941" xlink:href="#ma9859ba7a0" y="389.918782144"/>
     <use style="fill:#0000ff;opacity:0.5;stroke:#000000;stroke-width:0.5;" x="610.215394703" xlink:href="#ma9859ba7a0" y="388.661665506"/>
     <use style="fill:#0000ff;opacity:0.5;stroke:#000000;stroke-width:0.5;" x="634.632800564" xlink:href="#ma9859ba7a0" y="387.412986574"/>
     <use style="fill:#0000ff;opacity:0.5;stroke:#000000;stroke-width:0.5;" x="659.020252592" xlink:href="#ma9859ba7a0" y="386.195234847"/>
     <use style="fill:#0000ff;opacity:0.5;stroke:#000000;stroke-width:0.5;" x="683.392442557" xlink:href="#ma9859ba7a0" y="385.027429488"/>
     <use style="fill:#0000ff;opacity:0.5;stroke:#000000;stroke-width:0.5;" x="707.808085175" xlink:href="#ma9859ba7a0" y="383.896537433"/>
     <use style="fill:#0000ff;opacity:0.5;stroke:#000000;stroke-width:0.5;" x="732.236825094" xlink:href="#ma9859ba7a0" y="382.770136254"/>
     <use style="fill:#0000ff;opacity:0.5;stroke:#000000;stroke-width:0.5;" x="756.615977094" xlink:href="#ma9859ba7a0" y="381.616603578"/>
     <use style="fill:#0000ff;opacity:0.5;stroke:#000000;stroke-width:0.5;" x="780.943381796" xlink:href="#ma9859ba7a0" y="380.401889517"/>
     <use style="fill:#0000ff;opacity:0.5;stroke:#000000;stroke-width:0.5;" x="805.224899652" xlink:href="#ma9859ba7a0" y="379.092332842"/>
     <use style="fill:#0000ff;opacity:0.5;stroke:#000000;stroke-width:0.5;" x="829.594156689" xlink:href="#ma9859ba7a0" y="377.69080336"/>
     <use style="fill:#0000ff;opacity:0.5;stroke:#000000;stroke-width:0.5;" x="853.948681871" xlink:href="#ma9859ba7a0" y="376.295547357"/>
     <use style="fill:#0000ff;opacity:0.5;stroke:#000000;stroke-width:0.5;" x="878.164227285" xlink:href="#ma9859ba7a0" y="375.014326482"/>
     <use style="fill:#0000ff;opacity:0.5;stroke:#000000;stroke-width:0.5;" x="902.247404034" xlink:href="#ma9859ba7a0" y="373.944027674"/>
    </g>
   </g>
   <g id="patch_3">
    <path d="M 135 72 
L 972 72 
" style="fill:none;stroke:#000000;stroke-linecap:square;stroke-linejoin:miter;"/>
   </g>
   <g id="patch_4">
    <path d="M 972 648 
L 972 72 
" style="fill:none;stroke:#000000;stroke-linecap:square;stroke-linejoin:miter;"/>
   </g>
   <g id="patch_5">
    <path d="M 135 648 
L 972 648 
" style="fill:none;stroke:#000000;stroke-linecap:square;stroke-linejoin:miter;"/>
   </g>
   <g id="patch_6">
    <path d="M 135 648 
L 135 72 
" style="fill:none;stroke:#000000;stroke-linecap:square;stroke-linejoin:miter;"/>
   </g>
   <g id="matplotlib.axis_1">
    <g id="xtick_1">
     <g id="line2d_3">
      <defs>
       <path d="M 0 0 
L 0 -4 
" id="m01c57be1cb" style="stroke:#000000;stroke-width:0.5;"/>
      </defs>
      <g>
       <use style="stroke:#000000;stroke-width:0.5;" x="204.75" xlink:href="#m01c57be1cb" y="648.0"/>
      </g>
     </g>
     <g id="line2d_4">
      <defs>
       <path d="M 0 0 
L 0 4 
" id="m9a174632c9" style="stroke:#000000;stroke-width:0.5;"/>
      </defs>
      <g>
       <use style="stroke:#000000;stroke-width:0.5;" x="204.75" xlink:href="#m9a174632c9" y="72.0"/>
      </g>
     </g>
     <g id="text_1">
      <!-- 0.0 -->
      <defs>
       <path d="M 31.78125 66.40625 
Q 24.171875 66.40625 20.328125 58.90625 
Q 16.5 51.421875 16.5 36.375 
Q 16.5 21.390625 20.328125 13.890625 
Q 24.171875 6.390625 31.78125 6.390625 
Q 39.453125 6.390625 43.28125 13.890625 
Q 47.125 21.390625 47.125 36.375 
Q 47.125 51.421875 43.28125 58.90625 
Q 39.453125 66.40625 31.78125 66.40625 
M 31.78125 74.21875 
Q 44.046875 74.21875 50.515625 64.515625 
Q 56.984375 54.828125 56.984375 36.375 
Q 56.984375 17.96875 50.515625 8.265625 
Q 44.046875 -1.421875 31.78125 -1.421875 
Q 19.53125 -1.421875 13.0625 8.265625 
Q 6.59375 17.96875 6.59375 36.375 
Q 6.59375 54.828125 13.0625 64.515625 
Q 19.53125 74.21875 31.78125 74.21875 
" id="BitstreamVeraSans-Roman-30"/>
       <path d="M 10.6875 12.40625 
L 21 12.40625 
L 21 0 
L 10.6875 0 
z
" id="BitstreamVeraSans-Roman-2e"/>
      </defs>
      <g transform="translate(195.208125 661.118125)scale(0.12 -0.12)">
       <use xlink:href="#BitstreamVeraSans-Roman-30"/>
       <use x="63.623046875" xlink:href="#BitstreamVeraSans-Roman-2e"/>
       <use x="95.41015625" xlink:href="#BitstreamVeraSans-Roman-30"/>
      </g>
     </g>
    </g>
    <g id="xtick_2">
     <g id="line2d_5">
      <g>
       <use style="stroke:#000000;stroke-width:0.5;" x="344.25" xlink:href="#m01c57be1cb" y="648.0"/>
      </g>
     </g>
     <g id="line2d_6">
      <g>
       <use style="stroke:#000000;stroke-width:0.5;" x="344.25" xlink:href="#m9a174632c9" y="72.0"/>
      </g>
     </g>
     <g id="text_2">
      <!-- 0.2 -->
      <defs>
       <path d="M 19.1875 8.296875 
L 53.609375 8.296875 
L 53.609375 0 
L 7.328125 0 
L 7.328125 8.296875 
Q 12.9375 14.109375 22.625 23.890625 
Q 32.328125 33.6875 34.8125 36.53125 
Q 39.546875 41.84375 41.421875 45.53125 
Q 43.3125 49.21875 43.3125 52.78125 
Q 43.3125 58.59375 39.234375 62.25 
Q 35.15625 65.921875 28.609375 65.921875 
Q 23.96875 65.921875 18.8125 64.3125 
Q 13.671875 62.703125 7.8125 59.421875 
L 7.8125 69.390625 
Q 13.765625 71.78125 18.9375 73 
Q 24.125 74.21875 28.421875 74.21875 
Q 39.75 74.21875 46.484375 68.546875 
Q 53.21875 62.890625 53.21875 53.421875 
Q 53.21875 48.921875 51.53125 44.890625 
Q 49.859375 40.875 45.40625 35.40625 
Q 44.1875 33.984375 37.640625 27.21875 
Q 31.109375 20.453125 19.1875 8.296875 
" id="BitstreamVeraSans-Roman-32"/>
      </defs>
      <g transform="translate(334.708125 661.118125)scale(0.12 -0.12)">
       <use xlink:href="#BitstreamVeraSans-Roman-30"/>
       <use x="63.623046875" xlink:href="#BitstreamVeraSans-Roman-2e"/>
       <use x="95.41015625" xlink:href="#BitstreamVeraSans-Roman-32"/>
      </g>
     </g>
    </g>
    <g id="xtick_3">
     <g id="line2d_7">
      <g>
       <use style="stroke:#000000;stroke-width:0.5;" x="483.75" xlink:href="#m01c57be1cb" y="648.0"/>
      </g>
     </g>
     <g id="line2d_8">
      <g>
       <use style="stroke:#000000;stroke-width:0.5;" x="483.75" xlink:href="#m9a174632c9" y="72.0"/>
      </g>
     </g>
     <g id="text_3">
      <!-- 0.4 -->
      <defs>
       <path d="M 37.796875 64.3125 
L 12.890625 25.390625 
L 37.796875 25.390625 
z
M 35.203125 72.90625 
L 47.609375 72.90625 
L 47.609375 25.390625 
L 58.015625 25.390625 
L 58.015625 17.1875 
L 47.609375 17.1875 
L 47.609375 0 
L 37.796875 0 
L 37.796875 17.1875 
L 4.890625 17.1875 
L 4.890625 26.703125 
z
" id="BitstreamVeraSans-Roman-34"/>
      </defs>
      <g transform="translate(474.208125 661.118125)scale(0.12 -0.12)">
       <use xlink:href="#BitstreamVeraSans-Roman-30"/>
       <use x="63.623046875" xlink:href="#BitstreamVeraSans-Roman-2e"/>
       <use x="95.41015625" xlink:href="#BitstreamVeraSans-Roman-34"/>
      </g>
     </g>
    </g>
    <g id="xtick_4">
     <g id="line2d_9">
      <g>
       <use style="stroke:#000000;stroke-width:0.5;" x="623.25" xlink:href="#m01c57be1cb" y="648.0"/>
      </g>
     </g>
     <g id="line2d_10">
      <g>
       <use style="stroke:#000000;stroke-width:0.5;" x="623.25" xlink:href="#m9a174632c9" y="72.0"/>
      </g>
     </g>
     <g id="text_4">
      <!-- 0.6 -->
      <defs>
       <path d="M 33.015625 40.375 
Q 26.375 40.375 22.484375 35.828125 
Q 18.609375 31.296875 18.609375 23.390625 
Q 18.609375 15.53125 22.484375 10.953125 
Q 26.375 6.390625 33.015625 6.390625 
Q 39.65625 6.390625 43.53125 10.953125 
Q 47.40625 15.53125 47.40625 23.390625 
Q 47.40625 31.296875 43.53125 35.828125 
Q 39.65625 40.375 33.015625 40.375 
M 52.59375 71.296875 
L 52.59375 62.3125 
Q 48.875 64.0625 45.09375 64.984375 
Q 41.3125 65.921875 37.59375 65.921875 
Q 27.828125 65.921875 22.671875 59.328125 
Q 17.53125 52.734375 16.796875 39.40625 
Q 19.671875 43.65625 24.015625 45.921875 
Q 28.375 48.1875 33.59375 48.1875 
Q 44.578125 48.1875 50.953125 41.515625 
Q 57.328125 34.859375 57.328125 23.390625 
Q 57.328125 12.15625 50.6875 5.359375 
Q 44.046875 -1.421875 33.015625 -1.421875 
Q 20.359375 -1.421875 13.671875 8.265625 
Q 6.984375 17.96875 6.984375 36.375 
Q 6.984375 53.65625 15.1875 63.9375 
Q 23.390625 74.21875 37.203125 74.21875 
Q 40.921875 74.21875 44.703125 73.484375 
Q 48.484375 72.75 52.59375 71.296875 
" id="BitstreamVeraSans-Roman-36"/>
      </defs>
      <g transform="translate(613.708125 661.118125)scale(0.12 -0.12)">
       <use xlink:href="#BitstreamVeraSans-Roman-30"/>
       <use x="63.623046875" xlink:href="#BitstreamVeraSans-Roman-2e"/>
       <use x="95.41015625" xlink:href="#BitstreamVeraSans-Roman-36"/>
      </g>
     </g>
    </g>
    <g id="xtick_5">
     <g id="line2d_11">
      <g>
       <use style="stroke:#000000;stroke-width:0.5;" x="762.75" xlink:href="#m01c57be1cb" y="648.0"/>
      </g>
     </g>
     <g id="line2d_12">
      <g>
       <use style="stroke:#000000;stroke-width:0.5;" x="762.75" xlink:href="#m9a174632c9" y="72.0"/>
      </g>
     </g>
     <g id="text_5">
      <!-- 0.8 -->
      <defs>
       <path d="M 31.78125 34.625 
Q 24.75 34.625 20.71875 30.859375 
Q 16.703125 27.09375 16.703125 20.515625 
Q 16.703125 13.921875 20.71875 10.15625 
Q 24.75 6.390625 31.78125 6.390625 
Q 38.8125 6.390625 42.859375 10.171875 
Q 46.921875 13.96875 46.921875 20.515625 
Q 46.921875 27.09375 42.890625 30.859375 
Q 38.875 34.625 31.78125 34.625 
M 21.921875 38.8125 
Q 15.578125 40.375 12.03125 44.71875 
Q 8.5 49.078125 8.5 55.328125 
Q 8.5 64.0625 14.71875 69.140625 
Q 20.953125 74.21875 31.78125 74.21875 
Q 42.671875 74.21875 48.875 69.140625 
Q 55.078125 64.0625 55.078125 55.328125 
Q 55.078125 49.078125 51.53125 44.71875 
Q 48 40.375 41.703125 38.8125 
Q 48.828125 37.15625 52.796875 32.3125 
Q 56.78125 27.484375 56.78125 20.515625 
Q 56.78125 9.90625 50.3125 4.234375 
Q 43.84375 -1.421875 31.78125 -1.421875 
Q 19.734375 -1.421875 13.25 4.234375 
Q 6.78125 9.90625 6.78125 20.515625 
Q 6.78125 27.484375 10.78125 32.3125 
Q 14.796875 37.15625 21.921875 38.8125 
M 18.3125 54.390625 
Q 18.3125 48.734375 21.84375 45.5625 
Q 25.390625 42.390625 31.78125 42.390625 
Q 38.140625 42.390625 41.71875 45.5625 
Q 45.3125 48.734375 45.3125 54.390625 
Q 45.3125 60.0625 41.71875 63.234375 
Q 38.140625 66.40625 31.78125 66.40625 
Q 25.390625 66.40625 21.84375 63.234375 
Q 18.3125 60.0625 18.3125 54.390625 
" id="BitstreamVeraSans-Roman-38"/>
      </defs>
      <g transform="translate(753.208125 661.118125)scale(0.12 -0.12)">
       <use xlink:href="#BitstreamVeraSans-Roman-30"/>
       <use x="63.623046875" xlink:href="#BitstreamVeraSans-Roman-2e"/>
       <use x="95.41015625" xlink:href="#BitstreamVeraSans-Roman-38"/>
      </g>
     </g>
    </g>
    <g id="xtick_6">
     <g id="line2d_13">
      <g>
       <use style="stroke:#000000;stroke-width:0.5;" x="902.25" xlink:href="#m01c57be1cb" y="648.0"/>
      </g>
     </g>
     <g id="line2d_14">
      <g>
       <use style="stroke:#000000;stroke-width:0.5;" x="902.25" xlink:href="#m9a174632c9" y="72.0"/>
      </g>
     </g>
     <g id="text_6">
      <!-- 1.0 -->
      <defs>
       <path d="M 12.40625 8.296875 
L 28.515625 8.296875 
L 28.515625 63.921875 
L 10.984375 60.40625 
L 10.984375 69.390625 
L 28.421875 72.90625 
L 38.28125 72.90625 
L 38.28125 8.296875 
L 54.390625 8.296875 
L 54.390625 0 
L 12.40625 0 
z
" id="BitstreamVeraSans-Roman-31"/>
      </defs>
      <g transform="translate(892.708125 661.118125)scale(0.12 -0.12)">
       <use xlink:href="#BitstreamVeraSans-Roman-31"/>
       <use x="63.623046875" xlink:href="#BitstreamVeraSans-Roman-2e"/>
       <use x="95.41015625" xlink:href="#BitstreamVeraSans-Roman-30"/>
      </g>
     </g>
    </g>
   </g>
   <g id="matplotlib.axis_2">
    <g id="ytick_1">
     <g id="line2d_15">
      <defs>
       <path d="M 0 0 
L 4 0 
" id="me1fb6c96e7" style="stroke:#000000;stroke-width:0.5;"/>
      </defs>
      <g>
       <use style="stroke:#000000;stroke-width:0.5;" x="135.0" xlink:href="#me1fb6c96e7" y="583.2"/>
      </g>
     </g>
     <g id="line2d_16">
      <defs>
       <path d="M 0 0 
L -4 0 
" id="mbcedb096f3" style="stroke:#000000;stroke-width:0.5;"/>
      </defs>
      <g>
       <use style="stroke:#000000;stroke-width:0.5;" x="972.0" xlink:href="#mbcedb096f3" y="583.2"/>
      </g>
     </g>
     <g id="text_7">
      <!-- −0.3 -->
      <defs>
       <path d="M 10.59375 35.5 
L 73.1875 35.5 
L 73.1875 27.203125 
L 10.59375 27.203125 
z
" id="BitstreamVeraSans-Roman-2212"/>
       <path d="M 40.578125 39.3125 
Q 47.65625 37.796875 51.625 33 
Q 55.609375 28.21875 55.609375 21.1875 
Q 55.609375 10.40625 48.1875 4.484375 
Q 40.765625 -1.421875 27.09375 -1.421875 
Q 22.515625 -1.421875 17.65625 -0.515625 
Q 12.796875 0.390625 7.625 2.203125 
L 7.625 11.71875 
Q 11.71875 9.328125 16.59375 8.109375 
Q 21.484375 6.890625 26.8125 6.890625 
Q 36.078125 6.890625 40.9375 10.546875 
Q 45.796875 14.203125 45.796875 21.1875 
Q 45.796875 27.640625 41.28125 31.265625 
Q 36.765625 34.90625 28.71875 34.90625 
L 20.21875 34.90625 
L 20.21875 43.015625 
L 29.109375 43.015625 
Q 36.375 43.015625 40.234375 45.921875 
Q 44.09375 48.828125 44.09375 54.296875 
Q 44.09375 59.90625 40.109375 62.90625 
Q 36.140625 65.921875 28.71875 65.921875 
Q 24.65625 65.921875 20.015625 65.03125 
Q 15.375 64.15625 9.8125 62.3125 
L 9.8125 71.09375 
Q 15.4375 72.65625 20.34375 73.4375 
Q 25.25 74.21875 29.59375 74.21875 
Q 40.828125 74.21875 47.359375 69.109375 
Q 53.90625 64.015625 53.90625 55.328125 
Q 53.90625 49.265625 50.4375 45.09375 
Q 46.96875 40.921875 40.578125 39.3125 
" id="BitstreamVeraSans-Roman-33"/>
      </defs>
      <g transform="translate(101.860625 586.51125)scale(0.12 -0.12)">
       <use xlink:href="#BitstreamVeraSans-Roman-2212"/>
       <use x="83.7890625" xlink:href="#BitstreamVeraSans-Roman-30"/>
       <use x="147.412109375" xlink:href="#BitstreamVeraSans-Roman-2e"/>
       <use x="179.19921875" xlink:href="#BitstreamVeraSans-Roman-33"/>
      </g>
     </g>
    </g>
    <g id="ytick_2">
     <g id="line2d_17">
      <g>
       <use style="stroke:#000000;stroke-width:0.5;" x="135.0" xlink:href="#me1fb6c96e7" y="513.45"/>
      </g>
     </g>
     <g id="line2d_18">
      <g>
       <use style="stroke:#000000;stroke-width:0.5;" x="972.0" xlink:href="#mbcedb096f3" y="513.45"/>
      </g>
     </g>
     <g id="text_8">
      <!-- −0.2 -->
      <g transform="translate(101.860625 516.76125)scale(0.12 -0.12)">
       <use xlink:href="#BitstreamVeraSans-Roman-2212"/>
       <use x="83.7890625" xlink:href="#BitstreamVeraSans-Roman-30"/>
       <use x="147.412109375" xlink:href="#BitstreamVeraSans-Roman-2e"/>
       <use x="179.19921875" xlink:href="#BitstreamVeraSans-Roman-32"/>
      </g>
     </g>
    </g>
    <g id="ytick_3">
     <g id="line2d_19">
      <g>
       <use style="stroke:#000000;stroke-width:0.5;" x="135.0" xlink:href="#me1fb6c96e7" y="443.7"/>
      </g>
     </g>
     <g id="line2d_20">
      <g>
       <use style="stroke:#000000;stroke-width:0.5;" x="972.0" xlink:href="#mbcedb096f3" y="443.7"/>
      </g>
     </g>
     <g id="text_9">
      <!-- −0.1 -->
      <g transform="translate(101.860625 447.01125)scale(0.12 -0.12)">
       <use xlink:href="#BitstreamVeraSans-Roman-2212"/>
       <use x="83.7890625" xlink:href="#BitstreamVeraSans-Roman-30"/>
       <use x="147.412109375" xlink:href="#BitstreamVeraSans-Roman-2e"/>
       <use x="179.19921875" xlink:href="#BitstreamVeraSans-Roman-31"/>
      </g>
     </g>
    </g>
    <g id="ytick_4">
     <g id="line2d_21">
      <g>
       <use style="stroke:#000000;stroke-width:0.5;" x="135.0" xlink:href="#me1fb6c96e7" y="373.95"/>
      </g>
     </g>
     <g id="line2d_22">
      <g>
       <use style="stroke:#000000;stroke-width:0.5;" x="972.0" xlink:href="#mbcedb096f3" y="373.95"/>
      </g>
     </g>
     <g id="text_10">
      <!-- 0.0 -->
      <g transform="translate(111.91625 377.26125)scale(0.12 -0.12)">
       <use xlink:href="#BitstreamVeraSans-Roman-30"/>
       <use x="63.623046875" xlink:href="#BitstreamVeraSans-Roman-2e"/>
       <use x="95.41015625" xlink:href="#BitstreamVeraSans-Roman-30"/>
      </g>
     </g>
    </g>
    <g id="ytick_5">
     <g id="line2d_23">
      <g>
       <use style="stroke:#000000;stroke-width:0.5;" x="135.0" xlink:href="#me1fb6c96e7" y="304.2"/>
      </g>
     </g>
     <g id="line2d_24">
      <g>
       <use style="stroke:#000000;stroke-width:0.5;" x="972.0" xlink:href="#mbcedb096f3" y="304.2"/>
      </g>
     </g>
     <g id="text_11">
      <!-- 0.1 -->
      <g transform="translate(111.91625 307.51125)scale(0.12 -0.12)">
       <use xlink:href="#BitstreamVeraSans-Roman-30"/>
       <use x="63.623046875" xlink:href="#BitstreamVeraSans-Roman-2e"/>
       <use x="95.41015625" xlink:href="#BitstreamVeraSans-Roman-31"/>
      </g>
     </g>
    </g>
    <g id="ytick_6">
     <g id="line2d_25">
      <g>
       <use style="stroke:#000000;stroke-width:0.5;" x="135.0" xlink:href="#me1fb6c96e7" y="234.45"/>
      </g>
     </g>
     <g id="line2d_26">
      <g>
       <use style="stroke:#000000;stroke-width:0.5;" x="972.0" xlink:href="#mbcedb096f3" y="234.45"/>
      </g>
     </g>
     <g id="text_12">
      <!-- 0.2 -->
      <g transform="translate(111.91625 237.76125)scale(0.12 -0.12)">
       <use xlink:href="#BitstreamVeraSans-Roman-30"/>
       <use x="63.623046875" xlink:href="#BitstreamVeraSans-Roman-2e"/>
       <use x="95.41015625" xlink:href="#BitstreamVeraSans-Roman-32"/>
      </g>
     </g>
    </g>
    <g id="ytick_7">
     <g id="line2d_27">
      <g>
       <use style="stroke:#000000;stroke-width:0.5;" x="135.0" xlink:href="#me1fb6c96e7" y="164.7"/>
      </g>
     </g>
     <g id="line2d_28">
      <g>
       <use style="stroke:#000000;stroke-width:0.5;" x="972.0" xlink:href="#mbcedb096f3" y="164.7"/>
      </g>
     </g>
     <g id="text_13">
      <!-- 0.3 -->
      <g transform="translate(111.91625 168.01125)scale(0.12 -0.12)">
       <use xlink:href="#BitstreamVeraSans-Roman-30"/>
       <use x="63.623046875" xlink:href="#BitstreamVeraSans-Roman-2e"/>
       <use x="95.41015625" xlink:href="#BitstreamVeraSans-Roman-33"/>
      </g>
     </g>
    </g>
    <g id="ytick_8">
     <g id="line2d_29">
      <g>
       <use style="stroke:#000000;stroke-width:0.5;" x="135.0" xlink:href="#me1fb6c96e7" y="94.95"/>
      </g>
     </g>
     <g id="line2d_30">
      <g>
       <use style="stroke:#000000;stroke-width:0.5;" x="972.0" xlink:href="#mbcedb096f3" y="94.95"/>
      </g>
     </g>
     <g id="text_14">
      <!-- 0.4 -->
      <g transform="translate(111.91625 98.26125)scale(0.12 -0.12)">
       <use xlink:href="#BitstreamVeraSans-Roman-30"/>
       <use x="63.623046875" xlink:href="#BitstreamVeraSans-Roman-2e"/>
       <use x="95.41015625" xlink:href="#BitstreamVeraSans-Roman-34"/>
      </g>
     </g>
    </g>
   </g>
   <g id="text_15">
    <!-- df102  residuals: 0.000001  0 -->
    <defs>
     <path id="BitstreamVeraSans-Roman-20"/>
     <path d="M 8.5 21.578125 
L 8.5 54.6875 
L 17.484375 54.6875 
L 17.484375 21.921875 
Q 17.484375 14.15625 20.5 10.265625 
Q 23.53125 6.390625 29.59375 6.390625 
Q 36.859375 6.390625 41.078125 11.03125 
Q 45.3125 15.671875 45.3125 23.6875 
L 45.3125 54.6875 
L 54.296875 54.6875 
L 54.296875 0 
L 45.3125 0 
L 45.3125 8.40625 
Q 42.046875 3.421875 37.71875 1 
Q 33.40625 -1.421875 27.6875 -1.421875 
Q 18.265625 -1.421875 13.375 4.4375 
Q 8.5 10.296875 8.5 21.578125 
" id="BitstreamVeraSans-Roman-75"/>
     <path d="M 34.28125 27.484375 
Q 23.390625 27.484375 19.1875 25 
Q 14.984375 22.515625 14.984375 16.5 
Q 14.984375 11.71875 18.140625 8.90625 
Q 21.296875 6.109375 26.703125 6.109375 
Q 34.1875 6.109375 38.703125 11.40625 
Q 43.21875 16.703125 43.21875 25.484375 
L 43.21875 27.484375 
z
M 52.203125 31.203125 
L 52.203125 0 
L 43.21875 0 
L 43.21875 8.296875 
Q 40.140625 3.328125 35.546875 0.953125 
Q 30.953125 -1.421875 24.3125 -1.421875 
Q 15.921875 -1.421875 10.953125 3.296875 
Q 6 8.015625 6 15.921875 
Q 6 25.140625 12.171875 29.828125 
Q 18.359375 34.515625 30.609375 34.515625 
L 43.21875 34.515625 
L 43.21875 35.40625 
Q 43.21875 41.609375 39.140625 45 
Q 35.0625 48.390625 27.6875 48.390625 
Q 23 48.390625 18.546875 47.265625 
Q 14.109375 46.140625 10.015625 43.890625 
L 10.015625 52.203125 
Q 14.9375 54.109375 19.578125 55.046875 
Q 24.21875 56 28.609375 56 
Q 40.484375 56 46.34375 49.84375 
Q 52.203125 43.703125 52.203125 31.203125 
" id="BitstreamVeraSans-Roman-61"/>
     <path d="M 9.421875 75.984375 
L 18.40625 75.984375 
L 18.40625 0 
L 9.421875 0 
z
" id="BitstreamVeraSans-Roman-6c"/>
     <path d="M 11.71875 12.40625 
L 22.015625 12.40625 
L 22.015625 0 
L 11.71875 0 
z
M 11.71875 51.703125 
L 22.015625 51.703125 
L 22.015625 39.3125 
L 11.71875 39.3125 
z
" id="BitstreamVeraSans-Roman-3a"/>
     <path d="M 9.421875 54.6875 
L 18.40625 54.6875 
L 18.40625 0 
L 9.421875 0 
z
M 9.421875 75.984375 
L 18.40625 75.984375 
L 18.40625 64.59375 
L 9.421875 64.59375 
z
" id="BitstreamVeraSans-Roman-69"/>
     <path d="M 56.203125 29.59375 
L 56.203125 25.203125 
L 14.890625 25.203125 
Q 15.484375 15.921875 20.484375 11.0625 
Q 25.484375 6.203125 34.421875 6.203125 
Q 39.59375 6.203125 44.453125 7.46875 
Q 49.3125 8.734375 54.109375 11.28125 
L 54.109375 2.78125 
Q 49.265625 0.734375 44.1875 -0.34375 
Q 39.109375 -1.421875 33.890625 -1.421875 
Q 20.796875 -1.421875 13.15625 6.1875 
Q 5.515625 13.8125 5.515625 26.8125 
Q 5.515625 40.234375 12.765625 48.109375 
Q 20.015625 56 32.328125 56 
Q 43.359375 56 49.78125 48.890625 
Q 56.203125 41.796875 56.203125 29.59375 
M 47.21875 32.234375 
Q 47.125 39.59375 43.09375 43.984375 
Q 39.0625 48.390625 32.421875 48.390625 
Q 24.90625 48.390625 20.390625 44.140625 
Q 15.875 39.890625 15.1875 32.171875 
z
" id="BitstreamVeraSans-Roman-65"/>
     <path d="M 45.40625 46.390625 
L 45.40625 75.984375 
L 54.390625 75.984375 
L 54.390625 0 
L 45.40625 0 
L 45.40625 8.203125 
Q 42.578125 3.328125 38.25 0.953125 
Q 33.9375 -1.421875 27.875 -1.421875 
Q 17.96875 -1.421875 11.734375 6.484375 
Q 5.515625 14.40625 5.515625 27.296875 
Q 5.515625 40.1875 11.734375 48.09375 
Q 17.96875 56 27.875 56 
Q 33.9375 56 38.25 53.625 
Q 42.578125 51.265625 45.40625 46.390625 
M 14.796875 27.296875 
Q 14.796875 17.390625 18.875 11.75 
Q 22.953125 6.109375 30.078125 6.109375 
Q 37.203125 6.109375 41.296875 11.75 
Q 45.40625 17.390625 45.40625 27.296875 
Q 45.40625 37.203125 41.296875 42.84375 
Q 37.203125 48.484375 30.078125 48.484375 
Q 22.953125 48.484375 18.875 42.84375 
Q 14.796875 37.203125 14.796875 27.296875 
" id="BitstreamVeraSans-Roman-64"/>
     <path d="M 37.109375 75.984375 
L 37.109375 68.5 
L 28.515625 68.5 
Q 23.6875 68.5 21.796875 66.546875 
Q 19.921875 64.59375 19.921875 59.515625 
L 19.921875 54.6875 
L 34.71875 54.6875 
L 34.71875 47.703125 
L 19.921875 47.703125 
L 19.921875 0 
L 10.890625 0 
L 10.890625 47.703125 
L 2.296875 47.703125 
L 2.296875 54.6875 
L 10.890625 54.6875 
L 10.890625 58.5 
Q 10.890625 67.625 15.140625 71.796875 
Q 19.390625 75.984375 28.609375 75.984375 
z
" id="BitstreamVeraSans-Roman-66"/>
     <path d="M 41.109375 46.296875 
Q 39.59375 47.171875 37.8125 47.578125 
Q 36.03125 48 33.890625 48 
Q 26.265625 48 22.1875 43.046875 
Q 18.109375 38.09375 18.109375 28.8125 
L 18.109375 0 
L 9.078125 0 
L 9.078125 54.6875 
L 18.109375 54.6875 
L 18.109375 46.1875 
Q 20.953125 51.171875 25.484375 53.578125 
Q 30.03125 56 36.53125 56 
Q 37.453125 56 38.578125 55.875 
Q 39.703125 55.765625 41.0625 55.515625 
z
" id="BitstreamVeraSans-Roman-72"/>
     <path d="M 44.28125 53.078125 
L 44.28125 44.578125 
Q 40.484375 46.53125 36.375 47.5 
Q 32.28125 48.484375 27.875 48.484375 
Q 21.1875 48.484375 17.84375 46.4375 
Q 14.5 44.390625 14.5 40.28125 
Q 14.5 37.15625 16.890625 35.375 
Q 19.28125 33.59375 26.515625 31.984375 
L 29.59375 31.296875 
Q 39.15625 29.25 43.1875 25.515625 
Q 47.21875 21.78125 47.21875 15.09375 
Q 47.21875 7.46875 41.1875 3.015625 
Q 35.15625 -1.421875 24.609375 -1.421875 
Q 20.21875 -1.421875 15.453125 -0.5625 
Q 10.6875 0.296875 5.421875 2 
L 5.421875 11.28125 
Q 10.40625 8.6875 15.234375 7.390625 
Q 20.0625 6.109375 24.8125 6.109375 
Q 31.15625 6.109375 34.5625 8.28125 
Q 37.984375 10.453125 37.984375 14.40625 
Q 37.984375 18.0625 35.515625 20.015625 
Q 33.0625 21.96875 24.703125 23.78125 
L 21.578125 24.515625 
Q 13.234375 26.265625 9.515625 29.90625 
Q 5.8125 33.546875 5.8125 39.890625 
Q 5.8125 47.609375 11.28125 51.796875 
Q 16.75 56 26.8125 56 
Q 31.78125 56 36.171875 55.265625 
Q 40.578125 54.546875 44.28125 53.078125 
" id="BitstreamVeraSans-Roman-73"/>
    </defs>
    <g transform="translate(447.4125 67.0)scale(0.144 -0.144)">
     <use xlink:href="#BitstreamVeraSans-Roman-64"/>
     <use x="63.4765625" xlink:href="#BitstreamVeraSans-Roman-66"/>
     <use x="98.681640625" xlink:href="#BitstreamVeraSans-Roman-31"/>
     <use x="162.3046875" xlink:href="#BitstreamVeraSans-Roman-30"/>
     <use x="225.927734375" xlink:href="#BitstreamVeraSans-Roman-32"/>
     <use x="289.55078125" xlink:href="#BitstreamVeraSans-Roman-20"/>
     <use x="321.337890625" xlink:href="#BitstreamVeraSans-Roman-20"/>
     <use x="353.125" xlink:href="#BitstreamVeraSans-Roman-72"/>
     <use x="394.20703125" xlink:href="#BitstreamVeraSans-Roman-65"/>
     <use x="455.73046875" xlink:href="#BitstreamVeraSans-Roman-73"/>
     <use x="507.830078125" xlink:href="#BitstreamVeraSans-Roman-69"/>
     <use x="535.61328125" xlink:href="#BitstreamVeraSans-Roman-64"/>
     <use x="599.08984375" xlink:href="#BitstreamVeraSans-Roman-75"/>
     <use x="662.46875" xlink:href="#BitstreamVeraSans-Roman-61"/>
     <use x="723.748046875" xlink:href="#BitstreamVeraSans-Roman-6c"/>
     <use x="751.53125" xlink:href="#BitstreamVeraSans-Roman-73"/>
     <use x="803.630859375" xlink:href="#BitstreamVeraSans-Roman-3a"/>
     <use x="837.322265625" xlink:href="#BitstreamVeraSans-Roman-20"/>
     <use x="869.109375" xlink:href="#BitstreamVeraSans-Roman-30"/>
     <use x="932.732421875" xlink:href="#BitstreamVeraSans-Roman-2e"/>
     <use x="964.51953125" xlink:href="#BitstreamVeraSans-Roman-30"/>
     <use x="1028.14257812" xlink:href="#BitstreamVeraSans-Roman-30"/>
     <use x="1091.765625" xlink:href="#BitstreamVeraSans-Roman-30"/>
     <use x="1155.38867188" xlink:href="#BitstreamVeraSans-Roman-30"/>
     <use x="1219.01171875" xlink:href="#BitstreamVeraSans-Roman-30"/>
     <use x="1282.63476562" xlink:href="#BitstreamVeraSans-Roman-31"/>
     <use x="1346.2578125" xlink:href="#BitstreamVeraSans-Roman-20"/>
     <use x="1378.04492188" xlink:href="#BitstreamVeraSans-Roman-20"/>
     <use x="1409.83203125" xlink:href="#BitstreamVeraSans-Roman-30"/>
    </g>
   </g>
  </g>
 </g>
 <defs>
  <clipPath id="p980760809f">
   <rect height="576.0" width="837.0" x="135.0" y="72.0"/>
  </clipPath>
 </defs>
</svg>
