<?xml version="1.0" encoding="utf-8" standalone="no"?>
<!DOCTYPE svg PUBLIC "-//W3C//DTD SVG 1.1//EN"
  "http://www.w3.org/Graphics/SVG/1.1/DTD/svg11.dtd">
<!-- Created with matplotlib (http://matplotlib.org/) -->
<svg height="720pt" version="1.1" viewBox="0 0 1080 720" width="1080pt" xmlns="http://www.w3.org/2000/svg" xmlns:xlink="http://www.w3.org/1999/xlink">
 <defs>
  <style type="text/css">
*{stroke-linecap:butt;stroke-linejoin:round;stroke-miterlimit:100000;}
  </style>
 </defs>
 <g id="figure_1">
  <g id="patch_1">
   <path d="M 0 720 
L 1080 720 
L 1080 0 
L 0 0 
z
" style="fill:#ffffff;"/>
  </g>
  <g id="axes_1">
   <g id="patch_2">
    <path d="M 135 648 
L 972 648 
L 972 72 
L 135 72 
z
" style="fill:#ffffff;"/>
   </g>
   <g id="line2d_1">
    <defs>
     <path d="M 0 3 
C 0.795609 3 1.55874 2.683901 2.12132 2.12132 
C 2.683901 1.55874 3 0.795609 3 0 
C 3 -0.795609 2.683901 -1.55874 2.12132 -2.12132 
C 1.55874 -2.683901 0.795609 -3 0 -3 
C -0.795609 -3 -1.55874 -2.683901 -2.12132 -2.12132 
C -2.683901 -1.55874 -3 -0.795609 -3 0 
C -3 0.795609 -2.683901 1.55874 -2.12132 2.12132 
C -1.55874 2.683901 -0.795609 3 0 3 
z
" id="md962d49a8a" style="stroke:#000000;stroke-width:0.5;"/>
    </defs>
    <g clip-path="url(#p602422dcad)">
     <use style="fill:#ff0000;opacity:0.5;stroke:#000000;stroke-width:0.5;" x="902.25" xlink:href="#md962d49a8a" y="361.395"/>
     <use style="fill:#ff0000;opacity:0.5;stroke:#000000;stroke-width:0.5;" x="867.375" xlink:href="#md962d49a8a" y="358.25625"/>
     <use style="fill:#ff0000;opacity:0.5;stroke:#000000;stroke-width:0.5;" x="832.5" xlink:href="#md962d49a8a" y="354.76875"/>
     <use style="fill:#ff0000;opacity:0.5;stroke:#000000;stroke-width:0.5;" x="762.75" xlink:href="#md962d49a8a" y="348.84"/>
     <use style="fill:#ff0000;opacity:0.5;stroke:#000000;stroke-width:0.5;" x="693.0" xlink:href="#md962d49a8a" y="343.26"/>
     <use style="fill:#ff0000;opacity:0.5;stroke:#000000;stroke-width:0.5;" x="623.25" xlink:href="#md962d49a8a" y="339.075"/>
     <use style="fill:#ff0000;opacity:0.5;stroke:#000000;stroke-width:0.5;" x="553.5" xlink:href="#md962d49a8a" y="335.5875"/>
     <use style="fill:#ff0000;opacity:0.5;stroke:#000000;stroke-width:0.5;" x="483.75" xlink:href="#md962d49a8a" y="333.495"/>
     <use style="fill:#ff0000;opacity:0.5;stroke:#000000;stroke-width:0.5;" x="414.0" xlink:href="#md962d49a8a" y="333.495"/>
     <use style="fill:#ff0000;opacity:0.5;stroke:#000000;stroke-width:0.5;" x="344.25" xlink:href="#md962d49a8a" y="335.5875"/>
     <use style="fill:#ff0000;opacity:0.5;stroke:#000000;stroke-width:0.5;" x="309.375" xlink:href="#md962d49a8a" y="345.00375"/>
     <use style="fill:#ff0000;opacity:0.5;stroke:#000000;stroke-width:0.5;" x="274.5" xlink:href="#md962d49a8a" y="341.865"/>
     <use style="fill:#ff0000;opacity:0.5;stroke:#000000;stroke-width:0.5;" x="257.0625" xlink:href="#md962d49a8a" y="343.9575"/>
     <use style="fill:#ff0000;opacity:0.5;stroke:#000000;stroke-width:0.5;" x="239.625" xlink:href="#md962d49a8a" y="346.05"/>
     <use style="fill:#ff0000;opacity:0.5;stroke:#000000;stroke-width:0.5;" x="222.1875" xlink:href="#md962d49a8a" y="350.235"/>
     <use style="fill:#ff0000;opacity:0.5;stroke:#000000;stroke-width:0.5;" x="213.46875" xlink:href="#md962d49a8a" y="353.7225"/>
     <use style="fill:#ff0000;opacity:0.5;stroke:#000000;stroke-width:0.5;" x="204.75" xlink:href="#md962d49a8a" y="363.4875"/>
     <use style="fill:#ff0000;opacity:0.5;stroke:#000000;stroke-width:0.5;" x="213.46875" xlink:href="#md962d49a8a" y="367.32375"/>
     <use style="fill:#ff0000;opacity:0.5;stroke:#000000;stroke-width:0.5;" x="222.1875" xlink:href="#md962d49a8a" y="369.0675"/>
     <use style="fill:#ff0000;opacity:0.5;stroke:#000000;stroke-width:0.5;" x="239.625" xlink:href="#md962d49a8a" y="371.8575"/>
     <use style="fill:#ff0000;opacity:0.5;stroke:#000000;stroke-width:0.5;" x="257.0625" xlink:href="#md962d49a8a" y="373.95"/>
     <use style="fill:#ff0000;opacity:0.5;stroke:#000000;stroke-width:0.5;" x="274.5" xlink:href="#md962d49a8a" y="375.345"/>
     <use style="fill:#ff0000;opacity:0.5;stroke:#000000;stroke-width:0.5;" x="309.375" xlink:href="#md962d49a8a" y="377.08875"/>
     <use style="fill:#ff0000;opacity:0.5;stroke:#000000;stroke-width:0.5;" x="344.25" xlink:href="#md962d49a8a" y="378.135"/>
     <use style="fill:#ff0000;opacity:0.5;stroke:#000000;stroke-width:0.5;" x="414.0" xlink:href="#md962d49a8a" y="386.505"/>
     <use style="fill:#ff0000;opacity:0.5;stroke:#000000;stroke-width:0.5;" x="483.75" xlink:href="#md962d49a8a" y="380.2275"/>
     <use style="fill:#ff0000;opacity:0.5;stroke:#000000;stroke-width:0.5;" x="553.5" xlink:href="#md962d49a8a" y="379.53"/>
     <use style="fill:#ff0000;opacity:0.5;stroke:#000000;stroke-width:0.5;" x="623.25" xlink:href="#md962d49a8a" y="377.4375"/>
     <use style="fill:#ff0000;opacity:0.5;stroke:#000000;stroke-width:0.5;" x="693.0" xlink:href="#md962d49a8a" y="375.69375"/>
     <use style="fill:#ff0000;opacity:0.5;stroke:#000000;stroke-width:0.5;" x="762.75" xlink:href="#md962d49a8a" y="372.20625"/>
     <use style="fill:#ff0000;opacity:0.5;stroke:#000000;stroke-width:0.5;" x="832.5" xlink:href="#md962d49a8a" y="366.975"/>
     <use style="fill:#ff0000;opacity:0.5;stroke:#000000;stroke-width:0.5;" x="867.375" xlink:href="#md962d49a8a" y="365.58"/>
     <use style="fill:#ff0000;opacity:0.5;stroke:#000000;stroke-width:0.5;" x="902.25" xlink:href="#md962d49a8a" y="363.4875"/>
    </g>
   </g>
   <g id="line2d_2">
    <path clip-path="url(#p602422dcad)" d="M 902.245171 361.414112 
L 876.942197 359.050368 
L 851.635634 356.686765 
L 826.35512 354.349157 
L 801.100062 352.060409 
L 775.869886 349.84322 
L 750.664035 347.72012 
L 725.481965 345.713475 
L 700.323139 343.845483 
L 675.171878 342.13459 
L 649.984814 340.571696 
L 624.758269 339.135622 
L 599.491165 337.805046 
L 574.18245 336.558494 
L 548.838112 335.374963 
L 523.720281 334.322592 
L 498.971557 333.635441 
L 474.500922 333.538985 
L 449.423753 333.857896 
L 425.00107 333.824811 
L 400.714663 332.796921 
L 377.021481 331.889372 
L 356.514655 333.135823 
L 337.755559 337.542877 
L 317.485642 343.818589 
L 302.440829 344.93558 
L 281.529716 342.27741 
L 264.416666 342.740743 
L 240.76807 346.069295 
L 221.753067 350.171948 
L 208.790864 357.070268 
L 205.012956 361.519539 
L 204.788211 362.896014 
L 205.157215 363.860373 
L 207.082264 365.342292 
L 223.100615 369.278958 
L 246.315485 372.688221 
L 270.263116 375.098595 
L 294.321744 376.583251 
L 318.724702 377.198634 
L 342.177417 377.988339 
L 364.822017 380.626421 
L 389.157001 384.314133 
L 411.05251 386.412922 
L 432.257182 385.929466 
L 455.833695 383.369679 
L 479.985134 380.545928 
L 502.915145 379.314787 
L 527.202627 379.310006 
L 552.089943 379.551642 
L 576.464831 379.116378 
L 601.552636 378.16954 
L 626.539471 377.271432 
L 651.587307 376.742384 
L 676.837595 376.29185 
L 701.608442 375.54776 
L 726.418235 374.327464 
L 751.434132 372.751459 
L 776.668479 370.976031 
L 801.947866 369.17914 
L 827.006937 367.546645 
L 852.046672 366.191449 
L 877.328978 364.935344 
L 902.251303 363.50539 
" style="fill:none;opacity:0.5;stroke:#0000ff;stroke-linecap:square;"/>
    <defs>
     <path d="M 0 3 
C 0.795609 3 1.55874 2.683901 2.12132 2.12132 
C 2.683901 1.55874 3 0.795609 3 0 
C 3 -0.795609 2.683901 -1.55874 2.12132 -2.12132 
C 1.55874 -2.683901 0.795609 -3 0 -3 
C -0.795609 -3 -1.55874 -2.683901 -2.12132 -2.12132 
C -2.683901 -1.55874 -3 -0.795609 -3 0 
C -3 0.795609 -2.683901 1.55874 -2.12132 2.12132 
C -1.55874 2.683901 -0.795609 3 0 3 
z
" id="m4bf9177b01" style="stroke:#000000;stroke-width:0.5;"/>
    </defs>
    <g clip-path="url(#p602422dcad)">
     <use style="fill:#0000ff;opacity:0.5;stroke:#000000;stroke-width:0.5;" x="902.245170935" xlink:href="#m4bf9177b01" y="361.414112402"/>
     <use style="fill:#0000ff;opacity:0.5;stroke:#000000;stroke-width:0.5;" x="876.942196562" xlink:href="#m4bf9177b01" y="359.050367898"/>
     <use style="fill:#0000ff;opacity:0.5;stroke:#000000;stroke-width:0.5;" x="851.635633626" xlink:href="#m4bf9177b01" y="356.686765193"/>
     <use style="fill:#0000ff;opacity:0.5;stroke:#000000;stroke-width:0.5;" x="826.35511977" xlink:href="#m4bf9177b01" y="354.349156898"/>
     <use style="fill:#0000ff;opacity:0.5;stroke:#000000;stroke-width:0.5;" x="801.100061653" xlink:href="#m4bf9177b01" y="352.060409091"/>
     <use style="fill:#0000ff;opacity:0.5;stroke:#000000;stroke-width:0.5;" x="775.869885719" xlink:href="#m4bf9177b01" y="349.843219826"/>
     <use style="fill:#0000ff;opacity:0.5;stroke:#000000;stroke-width:0.5;" x="750.664035038" xlink:href="#m4bf9177b01" y="347.720120144"/>
     <use style="fill:#0000ff;opacity:0.5;stroke:#000000;stroke-width:0.5;" x="725.481965108" xlink:href="#m4bf9177b01" y="345.713474873"/>
     <use style="fill:#0000ff;opacity:0.5;stroke:#000000;stroke-width:0.5;" x="700.323138641" xlink:href="#m4bf9177b01" y="343.845483322"/>
     <use style="fill:#0000ff;opacity:0.5;stroke:#000000;stroke-width:0.5;" x="675.171878226" xlink:href="#m4bf9177b01" y="342.1345899"/>
     <use style="fill:#0000ff;opacity:0.5;stroke:#000000;stroke-width:0.5;" x="649.98481385" xlink:href="#m4bf9177b01" y="340.571695649"/>
     <use style="fill:#0000ff;opacity:0.5;stroke:#000000;stroke-width:0.5;" x="624.758268592" xlink:href="#m4bf9177b01" y="339.13562237"/>
     <use style="fill:#0000ff;opacity:0.5;stroke:#000000;stroke-width:0.5;" x="599.491165059" xlink:href="#m4bf9177b01" y="337.805046294"/>
     <use style="fill:#0000ff;opacity:0.5;stroke:#000000;stroke-width:0.5;" x="574.182450327" xlink:href="#m4bf9177b01" y="336.558494058"/>
     <use style="fill:#0000ff;opacity:0.5;stroke:#000000;stroke-width:0.5;" x="548.838111636" xlink:href="#m4bf9177b01" y="335.374963323"/>
     <use style="fill:#0000ff;opacity:0.5;stroke:#000000;stroke-width:0.5;" x="523.720280689" xlink:href="#m4bf9177b01" y="334.322592499"/>
     <use style="fill:#0000ff;opacity:0.5;stroke:#000000;stroke-width:0.5;" x="498.971556868" xlink:href="#m4bf9177b01" y="333.635441119"/>
     <use style="fill:#0000ff;opacity:0.5;stroke:#000000;stroke-width:0.5;" x="474.500922321" xlink:href="#m4bf9177b01" y="333.538984592"/>
     <use style="fill:#0000ff;opacity:0.5;stroke:#000000;stroke-width:0.5;" x="449.423753314" xlink:href="#m4bf9177b01" y="333.857896071"/>
     <use style="fill:#0000ff;opacity:0.5;stroke:#000000;stroke-width:0.5;" x="425.001070086" xlink:href="#m4bf9177b01" y="333.824810907"/>
     <use style="fill:#0000ff;opacity:0.5;stroke:#000000;stroke-width:0.5;" x="400.714663342" xlink:href="#m4bf9177b01" y="332.796920944"/>
     <use style="fill:#0000ff;opacity:0.5;stroke:#000000;stroke-width:0.5;" x="377.02148065" xlink:href="#m4bf9177b01" y="331.889371555"/>
     <use style="fill:#0000ff;opacity:0.5;stroke:#000000;stroke-width:0.5;" x="356.514655339" xlink:href="#m4bf9177b01" y="333.135822535"/>
     <use style="fill:#0000ff;opacity:0.5;stroke:#000000;stroke-width:0.5;" x="337.755558936" xlink:href="#m4bf9177b01" y="337.542876964"/>
     <use style="fill:#0000ff;opacity:0.5;stroke:#000000;stroke-width:0.5;" x="317.485642015" xlink:href="#m4bf9177b01" y="343.818589101"/>
     <use style="fill:#0000ff;opacity:0.5;stroke:#000000;stroke-width:0.5;" x="302.440828567" xlink:href="#m4bf9177b01" y="344.935580283"/>
     <use style="fill:#0000ff;opacity:0.5;stroke:#000000;stroke-width:0.5;" x="281.529715778" xlink:href="#m4bf9177b01" y="342.277410083"/>
     <use style="fill:#0000ff;opacity:0.5;stroke:#000000;stroke-width:0.5;" x="264.416665602" xlink:href="#m4bf9177b01" y="342.740742927"/>
     <use style="fill:#0000ff;opacity:0.5;stroke:#000000;stroke-width:0.5;" x="240.768069599" xlink:href="#m4bf9177b01" y="346.069295173"/>
     <use style="fill:#0000ff;opacity:0.5;stroke:#000000;stroke-width:0.5;" x="221.7530673" xlink:href="#m4bf9177b01" y="350.171948022"/>
     <use style="fill:#0000ff;opacity:0.5;stroke:#000000;stroke-width:0.5;" x="208.790863519" xlink:href="#m4bf9177b01" y="357.070268358"/>
     <use style="fill:#0000ff;opacity:0.5;stroke:#000000;stroke-width:0.5;" x="205.012956465" xlink:href="#m4bf9177b01" y="361.519538736"/>
     <use style="fill:#0000ff;opacity:0.5;stroke:#000000;stroke-width:0.5;" x="204.788211099" xlink:href="#m4bf9177b01" y="362.896013591"/>
     <use style="fill:#0000ff;opacity:0.5;stroke:#000000;stroke-width:0.5;" x="205.15721456" xlink:href="#m4bf9177b01" y="363.860373181"/>
     <use style="fill:#0000ff;opacity:0.5;stroke:#000000;stroke-width:0.5;" x="207.082263609" xlink:href="#m4bf9177b01" y="365.342291793"/>
     <use style="fill:#0000ff;opacity:0.5;stroke:#000000;stroke-width:0.5;" x="223.100614566" xlink:href="#m4bf9177b01" y="369.278957844"/>
     <use style="fill:#0000ff;opacity:0.5;stroke:#000000;stroke-width:0.5;" x="246.315485049" xlink:href="#m4bf9177b01" y="372.688221312"/>
     <use style="fill:#0000ff;opacity:0.5;stroke:#000000;stroke-width:0.5;" x="270.263115876" xlink:href="#m4bf9177b01" y="375.098595039"/>
     <use style="fill:#0000ff;opacity:0.5;stroke:#000000;stroke-width:0.5;" x="294.32174368" xlink:href="#m4bf9177b01" y="376.583251226"/>
     <use style="fill:#0000ff;opacity:0.5;stroke:#000000;stroke-width:0.5;" x="318.724702112" xlink:href="#m4bf9177b01" y="377.19863355"/>
     <use style="fill:#0000ff;opacity:0.5;stroke:#000000;stroke-width:0.5;" x="342.177416892" xlink:href="#m4bf9177b01" y="377.988338931"/>
     <use style="fill:#0000ff;opacity:0.5;stroke:#000000;stroke-width:0.5;" x="364.822017381" xlink:href="#m4bf9177b01" y="380.626420693"/>
     <use style="fill:#0000ff;opacity:0.5;stroke:#000000;stroke-width:0.5;" x="389.157000899" xlink:href="#m4bf9177b01" y="384.314132843"/>
     <use style="fill:#0000ff;opacity:0.5;stroke:#000000;stroke-width:0.5;" x="411.052510166" xlink:href="#m4bf9177b01" y="386.41292249"/>
     <use style="fill:#0000ff;opacity:0.5;stroke:#000000;stroke-width:0.5;" x="432.257182176" xlink:href="#m4bf9177b01" y="385.929465663"/>
     <use style="fill:#0000ff;opacity:0.5;stroke:#000000;stroke-width:0.5;" x="455.833694845" xlink:href="#m4bf9177b01" y="383.369679378"/>
     <use style="fill:#0000ff;opacity:0.5;stroke:#000000;stroke-width:0.5;" x="479.985133684" xlink:href="#m4bf9177b01" y="380.545927685"/>
     <use style="fill:#0000ff;opacity:0.5;stroke:#000000;stroke-width:0.5;" x="502.915145493" xlink:href="#m4bf9177b01" y="379.314786834"/>
     <use style="fill:#0000ff;opacity:0.5;stroke:#000000;stroke-width:0.5;" x="527.202627498" xlink:href="#m4bf9177b01" y="379.31000649"/>
     <use style="fill:#0000ff;opacity:0.5;stroke:#000000;stroke-width:0.5;" x="552.089943445" xlink:href="#m4bf9177b01" y="379.551642418"/>
     <use style="fill:#0000ff;opacity:0.5;stroke:#000000;stroke-width:0.5;" x="576.464831311" xlink:href="#m4bf9177b01" y="379.116378068"/>
     <use style="fill:#0000ff;opacity:0.5;stroke:#000000;stroke-width:0.5;" x="601.552635637" xlink:href="#m4bf9177b01" y="378.169539683"/>
     <use style="fill:#0000ff;opacity:0.5;stroke:#000000;stroke-width:0.5;" x="626.539470986" xlink:href="#m4bf9177b01" y="377.271431692"/>
     <use style="fill:#0000ff;opacity:0.5;stroke:#000000;stroke-width:0.5;" x="651.587306631" xlink:href="#m4bf9177b01" y="376.742384348"/>
     <use style="fill:#0000ff;opacity:0.5;stroke:#000000;stroke-width:0.5;" x="676.837594962" xlink:href="#m4bf9177b01" y="376.291849785"/>
     <use style="fill:#0000ff;opacity:0.5;stroke:#000000;stroke-width:0.5;" x="701.60844183" xlink:href="#m4bf9177b01" y="375.54776034"/>
     <use style="fill:#0000ff;opacity:0.5;stroke:#000000;stroke-width:0.5;" x="726.4182353" xlink:href="#m4bf9177b01" y="374.327464304"/>
     <use style="fill:#0000ff;opacity:0.5;stroke:#000000;stroke-width:0.5;" x="751.434131788" xlink:href="#m4bf9177b01" y="372.751458871"/>
     <use style="fill:#0000ff;opacity:0.5;stroke:#000000;stroke-width:0.5;" x="776.668478696" xlink:href="#m4bf9177b01" y="370.976031265"/>
     <use style="fill:#0000ff;opacity:0.5;stroke:#000000;stroke-width:0.5;" x="801.947866377" xlink:href="#m4bf9177b01" y="369.179139905"/>
     <use style="fill:#0000ff;opacity:0.5;stroke:#000000;stroke-width:0.5;" x="827.006937364" xlink:href="#m4bf9177b01" y="367.546645063"/>
     <use style="fill:#0000ff;opacity:0.5;stroke:#000000;stroke-width:0.5;" x="852.046671691" xlink:href="#m4bf9177b01" y="366.191448883"/>
     <use style="fill:#0000ff;opacity:0.5;stroke:#000000;stroke-width:0.5;" x="877.328978428" xlink:href="#m4bf9177b01" y="364.935343888"/>
     <use style="fill:#0000ff;opacity:0.5;stroke:#000000;stroke-width:0.5;" x="902.251303245" xlink:href="#m4bf9177b01" y="363.505389738"/>
    </g>
   </g>
   <g id="patch_3">
    <path d="M 135 72 
L 972 72 
" style="fill:none;stroke:#000000;stroke-linecap:square;stroke-linejoin:miter;"/>
   </g>
   <g id="patch_4">
    <path d="M 972 648 
L 972 72 
" style="fill:none;stroke:#000000;stroke-linecap:square;stroke-linejoin:miter;"/>
   </g>
   <g id="patch_5">
    <path d="M 135 648 
L 972 648 
" style="fill:none;stroke:#000000;stroke-linecap:square;stroke-linejoin:miter;"/>
   </g>
   <g id="patch_6">
    <path d="M 135 648 
L 135 72 
" style="fill:none;stroke:#000000;stroke-linecap:square;stroke-linejoin:miter;"/>
   </g>
   <g id="matplotlib.axis_1">
    <g id="xtick_1">
     <g id="line2d_3">
      <defs>
       <path d="M 0 0 
L 0 -4 
" id="m80b1ed9c80" style="stroke:#000000;stroke-width:0.5;"/>
      </defs>
      <g>
       <use style="stroke:#000000;stroke-width:0.5;" x="204.75" xlink:href="#m80b1ed9c80" y="648.0"/>
      </g>
     </g>
     <g id="line2d_4">
      <defs>
       <path d="M 0 0 
L 0 4 
" id="mbb8b852bb6" style="stroke:#000000;stroke-width:0.5;"/>
      </defs>
      <g>
       <use style="stroke:#000000;stroke-width:0.5;" x="204.75" xlink:href="#mbb8b852bb6" y="72.0"/>
      </g>
     </g>
     <g id="text_1">
      <!-- 0.0 -->
      <defs>
       <path d="M 31.78125 66.40625 
Q 24.171875 66.40625 20.328125 58.90625 
Q 16.5 51.421875 16.5 36.375 
Q 16.5 21.390625 20.328125 13.890625 
Q 24.171875 6.390625 31.78125 6.390625 
Q 39.453125 6.390625 43.28125 13.890625 
Q 47.125 21.390625 47.125 36.375 
Q 47.125 51.421875 43.28125 58.90625 
Q 39.453125 66.40625 31.78125 66.40625 
M 31.78125 74.21875 
Q 44.046875 74.21875 50.515625 64.515625 
Q 56.984375 54.828125 56.984375 36.375 
Q 56.984375 17.96875 50.515625 8.265625 
Q 44.046875 -1.421875 31.78125 -1.421875 
Q 19.53125 -1.421875 13.0625 8.265625 
Q 6.59375 17.96875 6.59375 36.375 
Q 6.59375 54.828125 13.0625 64.515625 
Q 19.53125 74.21875 31.78125 74.21875 
" id="BitstreamVeraSans-Roman-30"/>
       <path d="M 10.6875 12.40625 
L 21 12.40625 
L 21 0 
L 10.6875 0 
z
" id="BitstreamVeraSans-Roman-2e"/>
      </defs>
      <g transform="translate(195.208125 661.118125)scale(0.12 -0.12)">
       <use xlink:href="#BitstreamVeraSans-Roman-30"/>
       <use x="63.623046875" xlink:href="#BitstreamVeraSans-Roman-2e"/>
       <use x="95.41015625" xlink:href="#BitstreamVeraSans-Roman-30"/>
      </g>
     </g>
    </g>
    <g id="xtick_2">
     <g id="line2d_5">
      <g>
       <use style="stroke:#000000;stroke-width:0.5;" x="344.25" xlink:href="#m80b1ed9c80" y="648.0"/>
      </g>
     </g>
     <g id="line2d_6">
      <g>
       <use style="stroke:#000000;stroke-width:0.5;" x="344.25" xlink:href="#mbb8b852bb6" y="72.0"/>
      </g>
     </g>
     <g id="text_2">
      <!-- 0.2 -->
      <defs>
       <path d="M 19.1875 8.296875 
L 53.609375 8.296875 
L 53.609375 0 
L 7.328125 0 
L 7.328125 8.296875 
Q 12.9375 14.109375 22.625 23.890625 
Q 32.328125 33.6875 34.8125 36.53125 
Q 39.546875 41.84375 41.421875 45.53125 
Q 43.3125 49.21875 43.3125 52.78125 
Q 43.3125 58.59375 39.234375 62.25 
Q 35.15625 65.921875 28.609375 65.921875 
Q 23.96875 65.921875 18.8125 64.3125 
Q 13.671875 62.703125 7.8125 59.421875 
L 7.8125 69.390625 
Q 13.765625 71.78125 18.9375 73 
Q 24.125 74.21875 28.421875 74.21875 
Q 39.75 74.21875 46.484375 68.546875 
Q 53.21875 62.890625 53.21875 53.421875 
Q 53.21875 48.921875 51.53125 44.890625 
Q 49.859375 40.875 45.40625 35.40625 
Q 44.1875 33.984375 37.640625 27.21875 
Q 31.109375 20.453125 19.1875 8.296875 
" id="BitstreamVeraSans-Roman-32"/>
      </defs>
      <g transform="translate(334.708125 661.118125)scale(0.12 -0.12)">
       <use xlink:href="#BitstreamVeraSans-Roman-30"/>
       <use x="63.623046875" xlink:href="#BitstreamVeraSans-Roman-2e"/>
       <use x="95.41015625" xlink:href="#BitstreamVeraSans-Roman-32"/>
      </g>
     </g>
    </g>
    <g id="xtick_3">
     <g id="line2d_7">
      <g>
       <use style="stroke:#000000;stroke-width:0.5;" x="483.75" xlink:href="#m80b1ed9c80" y="648.0"/>
      </g>
     </g>
     <g id="line2d_8">
      <g>
       <use style="stroke:#000000;stroke-width:0.5;" x="483.75" xlink:href="#mbb8b852bb6" y="72.0"/>
      </g>
     </g>
     <g id="text_3">
      <!-- 0.4 -->
      <defs>
       <path d="M 37.796875 64.3125 
L 12.890625 25.390625 
L 37.796875 25.390625 
z
M 35.203125 72.90625 
L 47.609375 72.90625 
L 47.609375 25.390625 
L 58.015625 25.390625 
L 58.015625 17.1875 
L 47.609375 17.1875 
L 47.609375 0 
L 37.796875 0 
L 37.796875 17.1875 
L 4.890625 17.1875 
L 4.890625 26.703125 
z
" id="BitstreamVeraSans-Roman-34"/>
      </defs>
      <g transform="translate(474.208125 661.118125)scale(0.12 -0.12)">
       <use xlink:href="#BitstreamVeraSans-Roman-30"/>
       <use x="63.623046875" xlink:href="#BitstreamVeraSans-Roman-2e"/>
       <use x="95.41015625" xlink:href="#BitstreamVeraSans-Roman-34"/>
      </g>
     </g>
    </g>
    <g id="xtick_4">
     <g id="line2d_9">
      <g>
       <use style="stroke:#000000;stroke-width:0.5;" x="623.25" xlink:href="#m80b1ed9c80" y="648.0"/>
      </g>
     </g>
     <g id="line2d_10">
      <g>
       <use style="stroke:#000000;stroke-width:0.5;" x="623.25" xlink:href="#mbb8b852bb6" y="72.0"/>
      </g>
     </g>
     <g id="text_4">
      <!-- 0.6 -->
      <defs>
       <path d="M 33.015625 40.375 
Q 26.375 40.375 22.484375 35.828125 
Q 18.609375 31.296875 18.609375 23.390625 
Q 18.609375 15.53125 22.484375 10.953125 
Q 26.375 6.390625 33.015625 6.390625 
Q 39.65625 6.390625 43.53125 10.953125 
Q 47.40625 15.53125 47.40625 23.390625 
Q 47.40625 31.296875 43.53125 35.828125 
Q 39.65625 40.375 33.015625 40.375 
M 52.59375 71.296875 
L 52.59375 62.3125 
Q 48.875 64.0625 45.09375 64.984375 
Q 41.3125 65.921875 37.59375 65.921875 
Q 27.828125 65.921875 22.671875 59.328125 
Q 17.53125 52.734375 16.796875 39.40625 
Q 19.671875 43.65625 24.015625 45.921875 
Q 28.375 48.1875 33.59375 48.1875 
Q 44.578125 48.1875 50.953125 41.515625 
Q 57.328125 34.859375 57.328125 23.390625 
Q 57.328125 12.15625 50.6875 5.359375 
Q 44.046875 -1.421875 33.015625 -1.421875 
Q 20.359375 -1.421875 13.671875 8.265625 
Q 6.984375 17.96875 6.984375 36.375 
Q 6.984375 53.65625 15.1875 63.9375 
Q 23.390625 74.21875 37.203125 74.21875 
Q 40.921875 74.21875 44.703125 73.484375 
Q 48.484375 72.75 52.59375 71.296875 
" id="BitstreamVeraSans-Roman-36"/>
      </defs>
      <g transform="translate(613.708125 661.118125)scale(0.12 -0.12)">
       <use xlink:href="#BitstreamVeraSans-Roman-30"/>
       <use x="63.623046875" xlink:href="#BitstreamVeraSans-Roman-2e"/>
       <use x="95.41015625" xlink:href="#BitstreamVeraSans-Roman-36"/>
      </g>
     </g>
    </g>
    <g id="xtick_5">
     <g id="line2d_11">
      <g>
       <use style="stroke:#000000;stroke-width:0.5;" x="762.75" xlink:href="#m80b1ed9c80" y="648.0"/>
      </g>
     </g>
     <g id="line2d_12">
      <g>
       <use style="stroke:#000000;stroke-width:0.5;" x="762.75" xlink:href="#mbb8b852bb6" y="72.0"/>
      </g>
     </g>
     <g id="text_5">
      <!-- 0.8 -->
      <defs>
       <path d="M 31.78125 34.625 
Q 24.75 34.625 20.71875 30.859375 
Q 16.703125 27.09375 16.703125 20.515625 
Q 16.703125 13.921875 20.71875 10.15625 
Q 24.75 6.390625 31.78125 6.390625 
Q 38.8125 6.390625 42.859375 10.171875 
Q 46.921875 13.96875 46.921875 20.515625 
Q 46.921875 27.09375 42.890625 30.859375 
Q 38.875 34.625 31.78125 34.625 
M 21.921875 38.8125 
Q 15.578125 40.375 12.03125 44.71875 
Q 8.5 49.078125 8.5 55.328125 
Q 8.5 64.0625 14.71875 69.140625 
Q 20.953125 74.21875 31.78125 74.21875 
Q 42.671875 74.21875 48.875 69.140625 
Q 55.078125 64.0625 55.078125 55.328125 
Q 55.078125 49.078125 51.53125 44.71875 
Q 48 40.375 41.703125 38.8125 
Q 48.828125 37.15625 52.796875 32.3125 
Q 56.78125 27.484375 56.78125 20.515625 
Q 56.78125 9.90625 50.3125 4.234375 
Q 43.84375 -1.421875 31.78125 -1.421875 
Q 19.734375 -1.421875 13.25 4.234375 
Q 6.78125 9.90625 6.78125 20.515625 
Q 6.78125 27.484375 10.78125 32.3125 
Q 14.796875 37.15625 21.921875 38.8125 
M 18.3125 54.390625 
Q 18.3125 48.734375 21.84375 45.5625 
Q 25.390625 42.390625 31.78125 42.390625 
Q 38.140625 42.390625 41.71875 45.5625 
Q 45.3125 48.734375 45.3125 54.390625 
Q 45.3125 60.0625 41.71875 63.234375 
Q 38.140625 66.40625 31.78125 66.40625 
Q 25.390625 66.40625 21.84375 63.234375 
Q 18.3125 60.0625 18.3125 54.390625 
" id="BitstreamVeraSans-Roman-38"/>
      </defs>
      <g transform="translate(753.208125 661.118125)scale(0.12 -0.12)">
       <use xlink:href="#BitstreamVeraSans-Roman-30"/>
       <use x="63.623046875" xlink:href="#BitstreamVeraSans-Roman-2e"/>
       <use x="95.41015625" xlink:href="#BitstreamVeraSans-Roman-38"/>
      </g>
     </g>
    </g>
    <g id="xtick_6">
     <g id="line2d_13">
      <g>
       <use style="stroke:#000000;stroke-width:0.5;" x="902.25" xlink:href="#m80b1ed9c80" y="648.0"/>
      </g>
     </g>
     <g id="line2d_14">
      <g>
       <use style="stroke:#000000;stroke-width:0.5;" x="902.25" xlink:href="#mbb8b852bb6" y="72.0"/>
      </g>
     </g>
     <g id="text_6">
      <!-- 1.0 -->
      <defs>
       <path d="M 12.40625 8.296875 
L 28.515625 8.296875 
L 28.515625 63.921875 
L 10.984375 60.40625 
L 10.984375 69.390625 
L 28.421875 72.90625 
L 38.28125 72.90625 
L 38.28125 8.296875 
L 54.390625 8.296875 
L 54.390625 0 
L 12.40625 0 
z
" id="BitstreamVeraSans-Roman-31"/>
      </defs>
      <g transform="translate(892.708125 661.118125)scale(0.12 -0.12)">
       <use xlink:href="#BitstreamVeraSans-Roman-31"/>
       <use x="63.623046875" xlink:href="#BitstreamVeraSans-Roman-2e"/>
       <use x="95.41015625" xlink:href="#BitstreamVeraSans-Roman-30"/>
      </g>
     </g>
    </g>
   </g>
   <g id="matplotlib.axis_2">
    <g id="ytick_1">
     <g id="line2d_15">
      <defs>
       <path d="M 0 0 
L 4 0 
" id="md1320ce421" style="stroke:#000000;stroke-width:0.5;"/>
      </defs>
      <g>
       <use style="stroke:#000000;stroke-width:0.5;" x="135.0" xlink:href="#md1320ce421" y="642.4875"/>
      </g>
     </g>
     <g id="line2d_16">
      <defs>
       <path d="M 0 0 
L -4 0 
" id="mfe0ee12668" style="stroke:#000000;stroke-width:0.5;"/>
      </defs>
      <g>
       <use style="stroke:#000000;stroke-width:0.5;" x="972.0" xlink:href="#mfe0ee12668" y="642.4875"/>
      </g>
     </g>
     <g id="text_7">
      <!-- −0.4 -->
      <defs>
       <path d="M 10.59375 35.5 
L 73.1875 35.5 
L 73.1875 27.203125 
L 10.59375 27.203125 
z
" id="BitstreamVeraSans-Roman-2212"/>
      </defs>
      <g transform="translate(101.860625 645.79875)scale(0.12 -0.12)">
       <use xlink:href="#BitstreamVeraSans-Roman-2212"/>
       <use x="83.7890625" xlink:href="#BitstreamVeraSans-Roman-30"/>
       <use x="147.412109375" xlink:href="#BitstreamVeraSans-Roman-2e"/>
       <use x="179.19921875" xlink:href="#BitstreamVeraSans-Roman-34"/>
      </g>
     </g>
    </g>
    <g id="ytick_2">
     <g id="line2d_17">
      <g>
       <use style="stroke:#000000;stroke-width:0.5;" x="135.0" xlink:href="#md1320ce421" y="572.7375"/>
      </g>
     </g>
     <g id="line2d_18">
      <g>
       <use style="stroke:#000000;stroke-width:0.5;" x="972.0" xlink:href="#mfe0ee12668" y="572.7375"/>
      </g>
     </g>
     <g id="text_8">
      <!-- −0.3 -->
      <defs>
       <path d="M 40.578125 39.3125 
Q 47.65625 37.796875 51.625 33 
Q 55.609375 28.21875 55.609375 21.1875 
Q 55.609375 10.40625 48.1875 4.484375 
Q 40.765625 -1.421875 27.09375 -1.421875 
Q 22.515625 -1.421875 17.65625 -0.515625 
Q 12.796875 0.390625 7.625 2.203125 
L 7.625 11.71875 
Q 11.71875 9.328125 16.59375 8.109375 
Q 21.484375 6.890625 26.8125 6.890625 
Q 36.078125 6.890625 40.9375 10.546875 
Q 45.796875 14.203125 45.796875 21.1875 
Q 45.796875 27.640625 41.28125 31.265625 
Q 36.765625 34.90625 28.71875 34.90625 
L 20.21875 34.90625 
L 20.21875 43.015625 
L 29.109375 43.015625 
Q 36.375 43.015625 40.234375 45.921875 
Q 44.09375 48.828125 44.09375 54.296875 
Q 44.09375 59.90625 40.109375 62.90625 
Q 36.140625 65.921875 28.71875 65.921875 
Q 24.65625 65.921875 20.015625 65.03125 
Q 15.375 64.15625 9.8125 62.3125 
L 9.8125 71.09375 
Q 15.4375 72.65625 20.34375 73.4375 
Q 25.25 74.21875 29.59375 74.21875 
Q 40.828125 74.21875 47.359375 69.109375 
Q 53.90625 64.015625 53.90625 55.328125 
Q 53.90625 49.265625 50.4375 45.09375 
Q 46.96875 40.921875 40.578125 39.3125 
" id="BitstreamVeraSans-Roman-33"/>
      </defs>
      <g transform="translate(101.860625 576.04875)scale(0.12 -0.12)">
       <use xlink:href="#BitstreamVeraSans-Roman-2212"/>
       <use x="83.7890625" xlink:href="#BitstreamVeraSans-Roman-30"/>
       <use x="147.412109375" xlink:href="#BitstreamVeraSans-Roman-2e"/>
       <use x="179.19921875" xlink:href="#BitstreamVeraSans-Roman-33"/>
      </g>
     </g>
    </g>
    <g id="ytick_3">
     <g id="line2d_19">
      <g>
       <use style="stroke:#000000;stroke-width:0.5;" x="135.0" xlink:href="#md1320ce421" y="502.9875"/>
      </g>
     </g>
     <g id="line2d_20">
      <g>
       <use style="stroke:#000000;stroke-width:0.5;" x="972.0" xlink:href="#mfe0ee12668" y="502.9875"/>
      </g>
     </g>
     <g id="text_9">
      <!-- −0.2 -->
      <g transform="translate(101.860625 506.29875)scale(0.12 -0.12)">
       <use xlink:href="#BitstreamVeraSans-Roman-2212"/>
       <use x="83.7890625" xlink:href="#BitstreamVeraSans-Roman-30"/>
       <use x="147.412109375" xlink:href="#BitstreamVeraSans-Roman-2e"/>
       <use x="179.19921875" xlink:href="#BitstreamVeraSans-Roman-32"/>
      </g>
     </g>
    </g>
    <g id="ytick_4">
     <g id="line2d_21">
      <g>
       <use style="stroke:#000000;stroke-width:0.5;" x="135.0" xlink:href="#md1320ce421" y="433.2375"/>
      </g>
     </g>
     <g id="line2d_22">
      <g>
       <use style="stroke:#000000;stroke-width:0.5;" x="972.0" xlink:href="#mfe0ee12668" y="433.2375"/>
      </g>
     </g>
     <g id="text_10">
      <!-- −0.1 -->
      <g transform="translate(101.860625 436.54875)scale(0.12 -0.12)">
       <use xlink:href="#BitstreamVeraSans-Roman-2212"/>
       <use x="83.7890625" xlink:href="#BitstreamVeraSans-Roman-30"/>
       <use x="147.412109375" xlink:href="#BitstreamVeraSans-Roman-2e"/>
       <use x="179.19921875" xlink:href="#BitstreamVeraSans-Roman-31"/>
      </g>
     </g>
    </g>
    <g id="ytick_5">
     <g id="line2d_23">
      <g>
       <use style="stroke:#000000;stroke-width:0.5;" x="135.0" xlink:href="#md1320ce421" y="363.4875"/>
      </g>
     </g>
     <g id="line2d_24">
      <g>
       <use style="stroke:#000000;stroke-width:0.5;" x="972.0" xlink:href="#mfe0ee12668" y="363.4875"/>
      </g>
     </g>
     <g id="text_11">
      <!-- 0.0 -->
      <g transform="translate(111.91625 366.79875)scale(0.12 -0.12)">
       <use xlink:href="#BitstreamVeraSans-Roman-30"/>
       <use x="63.623046875" xlink:href="#BitstreamVeraSans-Roman-2e"/>
       <use x="95.41015625" xlink:href="#BitstreamVeraSans-Roman-30"/>
      </g>
     </g>
    </g>
    <g id="ytick_6">
     <g id="line2d_25">
      <g>
       <use style="stroke:#000000;stroke-width:0.5;" x="135.0" xlink:href="#md1320ce421" y="293.7375"/>
      </g>
     </g>
     <g id="line2d_26">
      <g>
       <use style="stroke:#000000;stroke-width:0.5;" x="972.0" xlink:href="#mfe0ee12668" y="293.7375"/>
      </g>
     </g>
     <g id="text_12">
      <!-- 0.1 -->
      <g transform="translate(111.91625 297.04875)scale(0.12 -0.12)">
       <use xlink:href="#BitstreamVeraSans-Roman-30"/>
       <use x="63.623046875" xlink:href="#BitstreamVeraSans-Roman-2e"/>
       <use x="95.41015625" xlink:href="#BitstreamVeraSans-Roman-31"/>
      </g>
     </g>
    </g>
    <g id="ytick_7">
     <g id="line2d_27">
      <g>
       <use style="stroke:#000000;stroke-width:0.5;" x="135.0" xlink:href="#md1320ce421" y="223.9875"/>
      </g>
     </g>
     <g id="line2d_28">
      <g>
       <use style="stroke:#000000;stroke-width:0.5;" x="972.0" xlink:href="#mfe0ee12668" y="223.9875"/>
      </g>
     </g>
     <g id="text_13">
      <!-- 0.2 -->
      <g transform="translate(111.91625 227.29875)scale(0.12 -0.12)">
       <use xlink:href="#BitstreamVeraSans-Roman-30"/>
       <use x="63.623046875" xlink:href="#BitstreamVeraSans-Roman-2e"/>
       <use x="95.41015625" xlink:href="#BitstreamVeraSans-Roman-32"/>
      </g>
     </g>
    </g>
    <g id="ytick_8">
     <g id="line2d_29">
      <g>
       <use style="stroke:#000000;stroke-width:0.5;" x="135.0" xlink:href="#md1320ce421" y="154.2375"/>
      </g>
     </g>
     <g id="line2d_30">
      <g>
       <use style="stroke:#000000;stroke-width:0.5;" x="972.0" xlink:href="#mfe0ee12668" y="154.2375"/>
      </g>
     </g>
     <g id="text_14">
      <!-- 0.3 -->
      <g transform="translate(111.91625 157.54875)scale(0.12 -0.12)">
       <use xlink:href="#BitstreamVeraSans-Roman-30"/>
       <use x="63.623046875" xlink:href="#BitstreamVeraSans-Roman-2e"/>
       <use x="95.41015625" xlink:href="#BitstreamVeraSans-Roman-33"/>
      </g>
     </g>
    </g>
    <g id="ytick_9">
     <g id="line2d_31">
      <g>
       <use style="stroke:#000000;stroke-width:0.5;" x="135.0" xlink:href="#md1320ce421" y="84.4875"/>
      </g>
     </g>
     <g id="line2d_32">
      <g>
       <use style="stroke:#000000;stroke-width:0.5;" x="972.0" xlink:href="#mfe0ee12668" y="84.4875"/>
      </g>
     </g>
     <g id="text_15">
      <!-- 0.4 -->
      <g transform="translate(111.91625 87.79875)scale(0.12 -0.12)">
       <use xlink:href="#BitstreamVeraSans-Roman-30"/>
       <use x="63.623046875" xlink:href="#BitstreamVeraSans-Roman-2e"/>
       <use x="95.41015625" xlink:href="#BitstreamVeraSans-Roman-34"/>
      </g>
     </g>
    </g>
   </g>
   <g id="text_16">
    <!-- dga1182  residuals: 0.000001  0 -->
    <defs>
     <path id="BitstreamVeraSans-Roman-20"/>
     <path d="M 34.28125 27.484375 
Q 23.390625 27.484375 19.1875 25 
Q 14.984375 22.515625 14.984375 16.5 
Q 14.984375 11.71875 18.140625 8.90625 
Q 21.296875 6.109375 26.703125 6.109375 
Q 34.1875 6.109375 38.703125 11.40625 
Q 43.21875 16.703125 43.21875 25.484375 
L 43.21875 27.484375 
z
M 52.203125 31.203125 
L 52.203125 0 
L 43.21875 0 
L 43.21875 8.296875 
Q 40.140625 3.328125 35.546875 0.953125 
Q 30.953125 -1.421875 24.3125 -1.421875 
Q 15.921875 -1.421875 10.953125 3.296875 
Q 6 8.015625 6 15.921875 
Q 6 25.140625 12.171875 29.828125 
Q 18.359375 34.515625 30.609375 34.515625 
L 43.21875 34.515625 
L 43.21875 35.40625 
Q 43.21875 41.609375 39.140625 45 
Q 35.0625 48.390625 27.6875 48.390625 
Q 23 48.390625 18.546875 47.265625 
Q 14.109375 46.140625 10.015625 43.890625 
L 10.015625 52.203125 
Q 14.9375 54.109375 19.578125 55.046875 
Q 24.21875 56 28.609375 56 
Q 40.484375 56 46.34375 49.84375 
Q 52.203125 43.703125 52.203125 31.203125 
" id="BitstreamVeraSans-Roman-61"/>
     <path d="M 9.421875 75.984375 
L 18.40625 75.984375 
L 18.40625 0 
L 9.421875 0 
z
" id="BitstreamVeraSans-Roman-6c"/>
     <path d="M 11.71875 12.40625 
L 22.015625 12.40625 
L 22.015625 0 
L 11.71875 0 
z
M 11.71875 51.703125 
L 22.015625 51.703125 
L 22.015625 39.3125 
L 11.71875 39.3125 
z
" id="BitstreamVeraSans-Roman-3a"/>
     <path d="M 9.421875 54.6875 
L 18.40625 54.6875 
L 18.40625 0 
L 9.421875 0 
z
M 9.421875 75.984375 
L 18.40625 75.984375 
L 18.40625 64.59375 
L 9.421875 64.59375 
z
" id="BitstreamVeraSans-Roman-69"/>
     <path d="M 56.203125 29.59375 
L 56.203125 25.203125 
L 14.890625 25.203125 
Q 15.484375 15.921875 20.484375 11.0625 
Q 25.484375 6.203125 34.421875 6.203125 
Q 39.59375 6.203125 44.453125 7.46875 
Q 49.3125 8.734375 54.109375 11.28125 
L 54.109375 2.78125 
Q 49.265625 0.734375 44.1875 -0.34375 
Q 39.109375 -1.421875 33.890625 -1.421875 
Q 20.796875 -1.421875 13.15625 6.1875 
Q 5.515625 13.8125 5.515625 26.8125 
Q 5.515625 40.234375 12.765625 48.109375 
Q 20.015625 56 32.328125 56 
Q 43.359375 56 49.78125 48.890625 
Q 56.203125 41.796875 56.203125 29.59375 
M 47.21875 32.234375 
Q 47.125 39.59375 43.09375 43.984375 
Q 39.0625 48.390625 32.421875 48.390625 
Q 24.90625 48.390625 20.390625 44.140625 
Q 15.875 39.890625 15.1875 32.171875 
z
" id="BitstreamVeraSans-Roman-65"/>
     <path d="M 45.40625 46.390625 
L 45.40625 75.984375 
L 54.390625 75.984375 
L 54.390625 0 
L 45.40625 0 
L 45.40625 8.203125 
Q 42.578125 3.328125 38.25 0.953125 
Q 33.9375 -1.421875 27.875 -1.421875 
Q 17.96875 -1.421875 11.734375 6.484375 
Q 5.515625 14.40625 5.515625 27.296875 
Q 5.515625 40.1875 11.734375 48.09375 
Q 17.96875 56 27.875 56 
Q 33.9375 56 38.25 53.625 
Q 42.578125 51.265625 45.40625 46.390625 
M 14.796875 27.296875 
Q 14.796875 17.390625 18.875 11.75 
Q 22.953125 6.109375 30.078125 6.109375 
Q 37.203125 6.109375 41.296875 11.75 
Q 45.40625 17.390625 45.40625 27.296875 
Q 45.40625 37.203125 41.296875 42.84375 
Q 37.203125 48.484375 30.078125 48.484375 
Q 22.953125 48.484375 18.875 42.84375 
Q 14.796875 37.203125 14.796875 27.296875 
" id="BitstreamVeraSans-Roman-64"/>
     <path d="M 45.40625 27.984375 
Q 45.40625 37.75 41.375 43.109375 
Q 37.359375 48.484375 30.078125 48.484375 
Q 22.859375 48.484375 18.828125 43.109375 
Q 14.796875 37.75 14.796875 27.984375 
Q 14.796875 18.265625 18.828125 12.890625 
Q 22.859375 7.515625 30.078125 7.515625 
Q 37.359375 7.515625 41.375 12.890625 
Q 45.40625 18.265625 45.40625 27.984375 
M 54.390625 6.78125 
Q 54.390625 -7.171875 48.1875 -13.984375 
Q 42 -20.796875 29.203125 -20.796875 
Q 24.46875 -20.796875 20.265625 -20.09375 
Q 16.0625 -19.390625 12.109375 -17.921875 
L 12.109375 -9.1875 
Q 16.0625 -11.328125 19.921875 -12.34375 
Q 23.78125 -13.375 27.78125 -13.375 
Q 36.625 -13.375 41.015625 -8.765625 
Q 45.40625 -4.15625 45.40625 5.171875 
L 45.40625 9.625 
Q 42.625 4.78125 38.28125 2.390625 
Q 33.9375 0 27.875 0 
Q 17.828125 0 11.671875 7.65625 
Q 5.515625 15.328125 5.515625 27.984375 
Q 5.515625 40.671875 11.671875 48.328125 
Q 17.828125 56 27.875 56 
Q 33.9375 56 38.28125 53.609375 
Q 42.625 51.21875 45.40625 46.390625 
L 45.40625 54.6875 
L 54.390625 54.6875 
z
" id="BitstreamVeraSans-Roman-67"/>
     <path d="M 8.5 21.578125 
L 8.5 54.6875 
L 17.484375 54.6875 
L 17.484375 21.921875 
Q 17.484375 14.15625 20.5 10.265625 
Q 23.53125 6.390625 29.59375 6.390625 
Q 36.859375 6.390625 41.078125 11.03125 
Q 45.3125 15.671875 45.3125 23.6875 
L 45.3125 54.6875 
L 54.296875 54.6875 
L 54.296875 0 
L 45.3125 0 
L 45.3125 8.40625 
Q 42.046875 3.421875 37.71875 1 
Q 33.40625 -1.421875 27.6875 -1.421875 
Q 18.265625 -1.421875 13.375 4.4375 
Q 8.5 10.296875 8.5 21.578125 
" id="BitstreamVeraSans-Roman-75"/>
     <path d="M 41.109375 46.296875 
Q 39.59375 47.171875 37.8125 47.578125 
Q 36.03125 48 33.890625 48 
Q 26.265625 48 22.1875 43.046875 
Q 18.109375 38.09375 18.109375 28.8125 
L 18.109375 0 
L 9.078125 0 
L 9.078125 54.6875 
L 18.109375 54.6875 
L 18.109375 46.1875 
Q 20.953125 51.171875 25.484375 53.578125 
Q 30.03125 56 36.53125 56 
Q 37.453125 56 38.578125 55.875 
Q 39.703125 55.765625 41.0625 55.515625 
z
" id="BitstreamVeraSans-Roman-72"/>
     <path d="M 44.28125 53.078125 
L 44.28125 44.578125 
Q 40.484375 46.53125 36.375 47.5 
Q 32.28125 48.484375 27.875 48.484375 
Q 21.1875 48.484375 17.84375 46.4375 
Q 14.5 44.390625 14.5 40.28125 
Q 14.5 37.15625 16.890625 35.375 
Q 19.28125 33.59375 26.515625 31.984375 
L 29.59375 31.296875 
Q 39.15625 29.25 43.1875 25.515625 
Q 47.21875 21.78125 47.21875 15.09375 
Q 47.21875 7.46875 41.1875 3.015625 
Q 35.15625 -1.421875 24.609375 -1.421875 
Q 20.21875 -1.421875 15.453125 -0.5625 
Q 10.6875 0.296875 5.421875 2 
L 5.421875 11.28125 
Q 10.40625 8.6875 15.234375 7.390625 
Q 20.0625 6.109375 24.8125 6.109375 
Q 31.15625 6.109375 34.5625 8.28125 
Q 37.984375 10.453125 37.984375 14.40625 
Q 37.984375 18.0625 35.515625 20.015625 
Q 33.0625 21.96875 24.703125 23.78125 
L 21.578125 24.515625 
Q 13.234375 26.265625 9.515625 29.90625 
Q 5.8125 33.546875 5.8125 39.890625 
Q 5.8125 47.609375 11.28125 51.796875 
Q 16.75 56 26.8125 56 
Q 31.78125 56 36.171875 55.265625 
Q 40.578125 54.546875 44.28125 53.078125 
" id="BitstreamVeraSans-Roman-73"/>
    </defs>
    <g transform="translate(436.383 67.0)scale(0.144 -0.144)">
     <use xlink:href="#BitstreamVeraSans-Roman-64"/>
     <use x="63.4765625" xlink:href="#BitstreamVeraSans-Roman-67"/>
     <use x="126.953125" xlink:href="#BitstreamVeraSans-Roman-61"/>
     <use x="188.232421875" xlink:href="#BitstreamVeraSans-Roman-31"/>
     <use x="251.85546875" xlink:href="#BitstreamVeraSans-Roman-31"/>
     <use x="315.478515625" xlink:href="#BitstreamVeraSans-Roman-38"/>
     <use x="379.1015625" xlink:href="#BitstreamVeraSans-Roman-32"/>
     <use x="442.724609375" xlink:href="#BitstreamVeraSans-Roman-20"/>
     <use x="474.51171875" xlink:href="#BitstreamVeraSans-Roman-20"/>
     <use x="506.298828125" xlink:href="#BitstreamVeraSans-Roman-72"/>
     <use x="547.380859375" xlink:href="#BitstreamVeraSans-Roman-65"/>
     <use x="608.904296875" xlink:href="#BitstreamVeraSans-Roman-73"/>
     <use x="661.00390625" xlink:href="#BitstreamVeraSans-Roman-69"/>
     <use x="688.787109375" xlink:href="#BitstreamVeraSans-Roman-64"/>
     <use x="752.263671875" xlink:href="#BitstreamVeraSans-Roman-75"/>
     <use x="815.642578125" xlink:href="#BitstreamVeraSans-Roman-61"/>
     <use x="876.921875" xlink:href="#BitstreamVeraSans-Roman-6c"/>
     <use x="904.705078125" xlink:href="#BitstreamVeraSans-Roman-73"/>
     <use x="956.8046875" xlink:href="#BitstreamVeraSans-Roman-3a"/>
     <use x="990.49609375" xlink:href="#BitstreamVeraSans-Roman-20"/>
     <use x="1022.28320312" xlink:href="#BitstreamVeraSans-Roman-30"/>
     <use x="1085.90625" xlink:href="#BitstreamVeraSans-Roman-2e"/>
     <use x="1117.69335938" xlink:href="#BitstreamVeraSans-Roman-30"/>
     <use x="1181.31640625" xlink:href="#BitstreamVeraSans-Roman-30"/>
     <use x="1244.93945312" xlink:href="#BitstreamVeraSans-Roman-30"/>
     <use x="1308.5625" xlink:href="#BitstreamVeraSans-Roman-30"/>
     <use x="1372.18554688" xlink:href="#BitstreamVeraSans-Roman-30"/>
     <use x="1435.80859375" xlink:href="#BitstreamVeraSans-Roman-31"/>
     <use x="1499.43164062" xlink:href="#BitstreamVeraSans-Roman-20"/>
     <use x="1531.21875" xlink:href="#BitstreamVeraSans-Roman-20"/>
     <use x="1563.00585938" xlink:href="#BitstreamVeraSans-Roman-30"/>
    </g>
   </g>
  </g>
 </g>
 <defs>
  <clipPath id="p602422dcad">
   <rect height="576.0" width="837.0" x="135.0" y="72.0"/>
  </clipPath>
 </defs>
</svg>
