<?xml version="1.0" encoding="utf-8" standalone="no"?>
<!DOCTYPE svg PUBLIC "-//W3C//DTD SVG 1.1//EN"
  "http://www.w3.org/Graphics/SVG/1.1/DTD/svg11.dtd">
<!-- Created with matplotlib (http://matplotlib.org/) -->
<svg height="720pt" version="1.1" viewBox="0 0 1080 720" width="1080pt" xmlns="http://www.w3.org/2000/svg" xmlns:xlink="http://www.w3.org/1999/xlink">
 <defs>
  <style type="text/css">
*{stroke-linecap:butt;stroke-linejoin:round;stroke-miterlimit:100000;}
  </style>
 </defs>
 <g id="figure_1">
  <g id="patch_1">
   <path d="M 0 720 
L 1080 720 
L 1080 0 
L 0 0 
z
" style="fill:#ffffff;"/>
  </g>
  <g id="axes_1">
   <g id="patch_2">
    <path d="M 135 648 
L 972 648 
L 972 72 
L 135 72 
z
" style="fill:#ffffff;"/>
   </g>
   <g id="line2d_1">
    <defs>
     <path d="M 0 3 
C 0.795609 3 1.55874 2.683901 2.12132 2.12132 
C 2.683901 1.55874 3 0.795609 3 0 
C 3 -0.795609 2.683901 -1.55874 2.12132 -2.12132 
C 1.55874 -2.683901 0.795609 -3 0 -3 
C -0.795609 -3 -1.55874 -2.683901 -2.12132 -2.12132 
C -2.683901 -1.55874 -3 -0.795609 -3 0 
C -3 0.795609 -2.683901 1.55874 -2.12132 2.12132 
C -1.55874 2.683901 -0.795609 3 0 3 
z
" id="m0c6d88904f" style="stroke:#000000;stroke-width:0.5;"/>
    </defs>
    <g clip-path="url(#pc08b623cd2)">
     <use style="fill:#ff0000;opacity:0.5;stroke:#000000;stroke-width:0.5;" x="902.25" xlink:href="#m0c6d88904f" y="387.9"/>
     <use style="fill:#ff0000;opacity:0.5;stroke:#000000;stroke-width:0.5;" x="867.02625" xlink:href="#m0c6d88904f" y="377.59095"/>
     <use style="fill:#ff0000;opacity:0.5;stroke:#000000;stroke-width:0.5;" x="831.809475" xlink:href="#m0c6d88904f" y="367.623675"/>
     <use style="fill:#ff0000;opacity:0.5;stroke:#000000;stroke-width:0.5;" x="761.48055" xlink:href="#m0c6d88904f" y="350.4861"/>
     <use style="fill:#ff0000;opacity:0.5;stroke:#000000;stroke-width:0.5;" x="691.22835" xlink:href="#m0c6d88904f" y="335.789775"/>
     <use style="fill:#ff0000;opacity:0.5;stroke:#000000;stroke-width:0.5;" x="621.0738" xlink:href="#m0c6d88904f" y="323.876475"/>
     <use style="fill:#ff0000;opacity:0.5;stroke:#000000;stroke-width:0.5;" x="551.051775" xlink:href="#m0c6d88904f" y="315.79245"/>
     <use style="fill:#ff0000;opacity:0.5;stroke:#000000;stroke-width:0.5;" x="481.16925" xlink:href="#m0c6d88904f" y="311.893425"/>
     <use style="fill:#ff0000;opacity:0.5;stroke:#000000;stroke-width:0.5;" x="411.44715" xlink:href="#m0c6d88904f" y="312.86295"/>
     <use style="fill:#ff0000;opacity:0.5;stroke:#000000;stroke-width:0.5;" x="341.92035" xlink:href="#m0c6d88904f" y="319.412475"/>
     <use style="fill:#ff0000;opacity:0.5;stroke:#000000;stroke-width:0.5;" x="307.2267" xlink:href="#m0c6d88904f" y="325.327275"/>
     <use style="fill:#ff0000;opacity:0.5;stroke:#000000;stroke-width:0.5;" x="272.70045" xlink:href="#m0c6d88904f" y="335.022525"/>
     <use style="fill:#ff0000;opacity:0.5;stroke:#000000;stroke-width:0.5;" x="255.5001" xlink:href="#m0c6d88904f" y="341.885925"/>
     <use style="fill:#ff0000;opacity:0.5;stroke:#000000;stroke-width:0.5;" x="238.362525" xlink:href="#m0c6d88904f" y="350.83485"/>
     <use style="fill:#ff0000;opacity:0.5;stroke:#000000;stroke-width:0.5;" x="221.36445" xlink:href="#m0c6d88904f" y="363.620025"/>
     <use style="fill:#ff0000;opacity:0.5;stroke:#000000;stroke-width:0.5;" x="212.903775" xlink:href="#m0c6d88904f" y="371.22975"/>
     <use style="fill:#ff0000;opacity:0.5;stroke:#000000;stroke-width:0.5;" x="204.75" xlink:href="#m0c6d88904f" y="387.9"/>
     <use style="fill:#ff0000;opacity:0.5;stroke:#000000;stroke-width:0.5;" x="213.85935" xlink:href="#m0c6d88904f" y="399.4506"/>
     <use style="fill:#ff0000;opacity:0.5;stroke:#000000;stroke-width:0.5;" x="222.738525" xlink:href="#m0c6d88904f" y="404.0262"/>
     <use style="fill:#ff0000;opacity:0.5;stroke:#000000;stroke-width:0.5;" x="240.30855" xlink:href="#m0c6d88904f" y="407.967075"/>
     <use style="fill:#ff0000;opacity:0.5;stroke:#000000;stroke-width:0.5;" x="257.794875" xlink:href="#m0c6d88904f" y="409.459725"/>
     <use style="fill:#ff0000;opacity:0.5;stroke:#000000;stroke-width:0.5;" x="275.2254" xlink:href="#m0c6d88904f" y="409.2156"/>
     <use style="fill:#ff0000;opacity:0.5;stroke:#000000;stroke-width:0.5;" x="310.037625" xlink:href="#m0c6d88904f" y="407.339325"/>
     <use style="fill:#ff0000;opacity:0.5;stroke:#000000;stroke-width:0.5;" x="344.814975" xlink:href="#m0c6d88904f" y="404.409825"/>
     <use style="fill:#ff0000;opacity:0.5;stroke:#000000;stroke-width:0.5;" x="414.397575" xlink:href="#m0c6d88904f" y="399.60405"/>
     <use style="fill:#ff0000;opacity:0.5;stroke:#000000;stroke-width:0.5;" x="484.022025" xlink:href="#m0c6d88904f" y="395.844525"/>
     <use style="fill:#ff0000;opacity:0.5;stroke:#000000;stroke-width:0.5;" x="553.702275" xlink:href="#m0c6d88904f" y="393.821775"/>
     <use style="fill:#ff0000;opacity:0.5;stroke:#000000;stroke-width:0.5;" x="623.40345" xlink:href="#m0c6d88904f" y="392.496525"/>
     <use style="fill:#ff0000;opacity:0.5;stroke:#000000;stroke-width:0.5;" x="693.146475" xlink:href="#m0c6d88904f" y="392.217525"/>
     <use style="fill:#ff0000;opacity:0.5;stroke:#000000;stroke-width:0.5;" x="762.87555" xlink:href="#m0c6d88904f" y="391.589775"/>
     <use style="fill:#ff0000;opacity:0.5;stroke:#000000;stroke-width:0.5;" x="832.5837" xlink:href="#m0c6d88904f" y="390.2715"/>
     <use style="fill:#ff0000;opacity:0.5;stroke:#000000;stroke-width:0.5;" x="867.41685" xlink:href="#m0c6d88904f" y="389.08575"/>
     <use style="fill:#ff0000;opacity:0.5;stroke:#000000;stroke-width:0.5;" x="902.25" xlink:href="#m0c6d88904f" y="387.9"/>
    </g>
   </g>
   <g id="line2d_2">
    <path clip-path="url(#pc08b623cd2)" d="M 902.245418 387.914272 
L 879.084807 380.939882 
L 855.721091 374.294811 
L 832.183521 367.923959 
L 808.550546 361.796655 
L 784.88233 355.930897 
L 761.175259 350.342001 
L 737.425622 345.045173 
L 713.629671 340.055526 
L 689.783644 335.388091 
L 665.89342 331.061487 
L 641.970944 327.101427 
L 618.023825 323.533816 
L 594.059581 320.384283 
L 570.08564 317.67818 
L 546.109236 315.44057 
L 522.137437 313.696246 
L 498.17709 312.469733 
L 474.234822 311.785309 
L 450.316913 311.667027 
L 426.429326 312.138749 
L 402.586746 313.224419 
L 378.901819 314.973276 
L 355.444416 317.47629 
L 332.259155 320.824582 
L 309.387137 325.105532 
L 287.357089 330.375289 
L 266.980402 336.971809 
L 248.275699 345.384919 
L 230.967208 355.981427 
L 215.967598 368.178941 
L 206.639051 379.8058 
L 204.776023 386.54074 
L 206.319289 391.926232 
L 213.331599 399.212947 
L 226.310765 405.091812 
L 243.996481 408.536332 
L 265.093308 409.459224 
L 287.887745 408.736121 
L 311.926807 407.054823 
L 336.605797 405.160463 
L 361.249331 403.283344 
L 385.816802 401.483799 
L 410.313197 399.817571 
L 434.772891 398.331723 
L 459.250971 397.03308 
L 483.746664 395.91629 
L 508.257957 394.976024 
L 532.782833 394.20694 
L 557.319713 393.603663 
L 581.89122 393.153568 
L 606.51118 392.826721 
L 631.179542 392.590372 
L 655.896216 392.411394 
L 680.657132 392.256299 
L 705.397437 392.091955 
L 730.107096 391.891615 
L 754.788166 391.635358 
L 779.440198 391.303714 
L 804.062733 390.877339 
L 828.655321 390.337022 
L 853.217524 389.66368 
L 877.74892 388.838357 
L 902.24911 387.842222 
" style="fill:none;opacity:0.5;stroke:#0000ff;stroke-linecap:square;"/>
    <defs>
     <path d="M 0 3 
C 0.795609 3 1.55874 2.683901 2.12132 2.12132 
C 2.683901 1.55874 3 0.795609 3 0 
C 3 -0.795609 2.683901 -1.55874 2.12132 -2.12132 
C 1.55874 -2.683901 0.795609 -3 0 -3 
C -0.795609 -3 -1.55874 -2.683901 -2.12132 -2.12132 
C -2.683901 -1.55874 -3 -0.795609 -3 0 
C -3 0.795609 -2.683901 1.55874 -2.12132 2.12132 
C -1.55874 2.683901 -0.795609 3 0 3 
z
" id="m2d7535a6e7" style="stroke:#000000;stroke-width:0.5;"/>
    </defs>
    <g clip-path="url(#pc08b623cd2)">
     <use style="fill:#0000ff;opacity:0.5;stroke:#000000;stroke-width:0.5;" x="902.245418046" xlink:href="#m2d7535a6e7" y="387.91427157"/>
     <use style="fill:#0000ff;opacity:0.5;stroke:#000000;stroke-width:0.5;" x="879.084807448" xlink:href="#m2d7535a6e7" y="380.939881627"/>
     <use style="fill:#0000ff;opacity:0.5;stroke:#000000;stroke-width:0.5;" x="855.721091459" xlink:href="#m2d7535a6e7" y="374.294810699"/>
     <use style="fill:#0000ff;opacity:0.5;stroke:#000000;stroke-width:0.5;" x="832.183520705" xlink:href="#m2d7535a6e7" y="367.923959375"/>
     <use style="fill:#0000ff;opacity:0.5;stroke:#000000;stroke-width:0.5;" x="808.550545922" xlink:href="#m2d7535a6e7" y="361.79665543"/>
     <use style="fill:#0000ff;opacity:0.5;stroke:#000000;stroke-width:0.5;" x="784.882329527" xlink:href="#m2d7535a6e7" y="355.930896566"/>
     <use style="fill:#0000ff;opacity:0.5;stroke:#000000;stroke-width:0.5;" x="761.175258531" xlink:href="#m2d7535a6e7" y="350.342000759"/>
     <use style="fill:#0000ff;opacity:0.5;stroke:#000000;stroke-width:0.5;" x="737.425622205" xlink:href="#m2d7535a6e7" y="345.045172932"/>
     <use style="fill:#0000ff;opacity:0.5;stroke:#000000;stroke-width:0.5;" x="713.629670509" xlink:href="#m2d7535a6e7" y="340.055525655"/>
     <use style="fill:#0000ff;opacity:0.5;stroke:#000000;stroke-width:0.5;" x="689.783643787" xlink:href="#m2d7535a6e7" y="335.388090943"/>
     <use style="fill:#0000ff;opacity:0.5;stroke:#000000;stroke-width:0.5;" x="665.893420113" xlink:href="#m2d7535a6e7" y="331.061487046"/>
     <use style="fill:#0000ff;opacity:0.5;stroke:#000000;stroke-width:0.5;" x="641.970944352" xlink:href="#m2d7535a6e7" y="327.101426885"/>
     <use style="fill:#0000ff;opacity:0.5;stroke:#000000;stroke-width:0.5;" x="618.023824676" xlink:href="#m2d7535a6e7" y="323.533816044"/>
     <use style="fill:#0000ff;opacity:0.5;stroke:#000000;stroke-width:0.5;" x="594.059581135" xlink:href="#m2d7535a6e7" y="320.384283426"/>
     <use style="fill:#0000ff;opacity:0.5;stroke:#000000;stroke-width:0.5;" x="570.085639926" xlink:href="#m2d7535a6e7" y="317.678179896"/>
     <use style="fill:#0000ff;opacity:0.5;stroke:#000000;stroke-width:0.5;" x="546.109236218" xlink:href="#m2d7535a6e7" y="315.440570387"/>
     <use style="fill:#0000ff;opacity:0.5;stroke:#000000;stroke-width:0.5;" x="522.137436573" xlink:href="#m2d7535a6e7" y="313.696246153"/>
     <use style="fill:#0000ff;opacity:0.5;stroke:#000000;stroke-width:0.5;" x="498.177090439" xlink:href="#m2d7535a6e7" y="312.469733142"/>
     <use style="fill:#0000ff;opacity:0.5;stroke:#000000;stroke-width:0.5;" x="474.234821938" xlink:href="#m2d7535a6e7" y="311.785309397"/>
     <use style="fill:#0000ff;opacity:0.5;stroke:#000000;stroke-width:0.5;" x="450.316912949" xlink:href="#m2d7535a6e7" y="311.667026837"/>
     <use style="fill:#0000ff;opacity:0.5;stroke:#000000;stroke-width:0.5;" x="426.429325508" xlink:href="#m2d7535a6e7" y="312.138748828"/>
     <use style="fill:#0000ff;opacity:0.5;stroke:#000000;stroke-width:0.5;" x="402.586745625" xlink:href="#m2d7535a6e7" y="313.224418971"/>
     <use style="fill:#0000ff;opacity:0.5;stroke:#000000;stroke-width:0.5;" x="378.901819476" xlink:href="#m2d7535a6e7" y="314.973275733"/>
     <use style="fill:#0000ff;opacity:0.5;stroke:#000000;stroke-width:0.5;" x="355.444416377" xlink:href="#m2d7535a6e7" y="317.476290466"/>
     <use style="fill:#0000ff;opacity:0.5;stroke:#000000;stroke-width:0.5;" x="332.259155395" xlink:href="#m2d7535a6e7" y="320.824581868"/>
     <use style="fill:#0000ff;opacity:0.5;stroke:#000000;stroke-width:0.5;" x="309.387136892" xlink:href="#m2d7535a6e7" y="325.105531972"/>
     <use style="fill:#0000ff;opacity:0.5;stroke:#000000;stroke-width:0.5;" x="287.357088746" xlink:href="#m2d7535a6e7" y="330.375289173"/>
     <use style="fill:#0000ff;opacity:0.5;stroke:#000000;stroke-width:0.5;" x="266.98040212" xlink:href="#m2d7535a6e7" y="336.971808616"/>
     <use style="fill:#0000ff;opacity:0.5;stroke:#000000;stroke-width:0.5;" x="248.275699318" xlink:href="#m2d7535a6e7" y="345.384919239"/>
     <use style="fill:#0000ff;opacity:0.5;stroke:#000000;stroke-width:0.5;" x="230.967208165" xlink:href="#m2d7535a6e7" y="355.981426692"/>
     <use style="fill:#0000ff;opacity:0.5;stroke:#000000;stroke-width:0.5;" x="215.967598069" xlink:href="#m2d7535a6e7" y="368.178940607"/>
     <use style="fill:#0000ff;opacity:0.5;stroke:#000000;stroke-width:0.5;" x="206.639051467" xlink:href="#m2d7535a6e7" y="379.805799859"/>
     <use style="fill:#0000ff;opacity:0.5;stroke:#000000;stroke-width:0.5;" x="204.776022621" xlink:href="#m2d7535a6e7" y="386.540739634"/>
     <use style="fill:#0000ff;opacity:0.5;stroke:#000000;stroke-width:0.5;" x="206.319288819" xlink:href="#m2d7535a6e7" y="391.926232072"/>
     <use style="fill:#0000ff;opacity:0.5;stroke:#000000;stroke-width:0.5;" x="213.331598735" xlink:href="#m2d7535a6e7" y="399.212946623"/>
     <use style="fill:#0000ff;opacity:0.5;stroke:#000000;stroke-width:0.5;" x="226.310765023" xlink:href="#m2d7535a6e7" y="405.091811533"/>
     <use style="fill:#0000ff;opacity:0.5;stroke:#000000;stroke-width:0.5;" x="243.996480688" xlink:href="#m2d7535a6e7" y="408.536331948"/>
     <use style="fill:#0000ff;opacity:0.5;stroke:#000000;stroke-width:0.5;" x="265.093308245" xlink:href="#m2d7535a6e7" y="409.459223528"/>
     <use style="fill:#0000ff;opacity:0.5;stroke:#000000;stroke-width:0.5;" x="287.887744729" xlink:href="#m2d7535a6e7" y="408.736121277"/>
     <use style="fill:#0000ff;opacity:0.5;stroke:#000000;stroke-width:0.5;" x="311.926806938" xlink:href="#m2d7535a6e7" y="407.054823125"/>
     <use style="fill:#0000ff;opacity:0.5;stroke:#000000;stroke-width:0.5;" x="336.605797205" xlink:href="#m2d7535a6e7" y="405.160463186"/>
     <use style="fill:#0000ff;opacity:0.5;stroke:#000000;stroke-width:0.5;" x="361.249331312" xlink:href="#m2d7535a6e7" y="403.283344073"/>
     <use style="fill:#0000ff;opacity:0.5;stroke:#000000;stroke-width:0.5;" x="385.816802485" xlink:href="#m2d7535a6e7" y="401.48379893"/>
     <use style="fill:#0000ff;opacity:0.5;stroke:#000000;stroke-width:0.5;" x="410.313196817" xlink:href="#m2d7535a6e7" y="399.817570763"/>
     <use style="fill:#0000ff;opacity:0.5;stroke:#000000;stroke-width:0.5;" x="434.772890682" xlink:href="#m2d7535a6e7" y="398.331723186"/>
     <use style="fill:#0000ff;opacity:0.5;stroke:#000000;stroke-width:0.5;" x="459.250971187" xlink:href="#m2d7535a6e7" y="397.033079687"/>
     <use style="fill:#0000ff;opacity:0.5;stroke:#000000;stroke-width:0.5;" x="483.746663906" xlink:href="#m2d7535a6e7" y="395.916289778"/>
     <use style="fill:#0000ff;opacity:0.5;stroke:#000000;stroke-width:0.5;" x="508.257957267" xlink:href="#m2d7535a6e7" y="394.976023597"/>
     <use style="fill:#0000ff;opacity:0.5;stroke:#000000;stroke-width:0.5;" x="532.782833449" xlink:href="#m2d7535a6e7" y="394.206940097"/>
     <use style="fill:#0000ff;opacity:0.5;stroke:#000000;stroke-width:0.5;" x="557.319713242" xlink:href="#m2d7535a6e7" y="393.603662851"/>
     <use style="fill:#0000ff;opacity:0.5;stroke:#000000;stroke-width:0.5;" x="581.891219815" xlink:href="#m2d7535a6e7" y="393.153567568"/>
     <use style="fill:#0000ff;opacity:0.5;stroke:#000000;stroke-width:0.5;" x="606.511180025" xlink:href="#m2d7535a6e7" y="392.82672069"/>
     <use style="fill:#0000ff;opacity:0.5;stroke:#000000;stroke-width:0.5;" x="631.179542119" xlink:href="#m2d7535a6e7" y="392.59037232"/>
     <use style="fill:#0000ff;opacity:0.5;stroke:#000000;stroke-width:0.5;" x="655.896216436" xlink:href="#m2d7535a6e7" y="392.41139442"/>
     <use style="fill:#0000ff;opacity:0.5;stroke:#000000;stroke-width:0.5;" x="680.657131758" xlink:href="#m2d7535a6e7" y="392.256299452"/>
     <use style="fill:#0000ff;opacity:0.5;stroke:#000000;stroke-width:0.5;" x="705.397436634" xlink:href="#m2d7535a6e7" y="392.091954886"/>
     <use style="fill:#0000ff;opacity:0.5;stroke:#000000;stroke-width:0.5;" x="730.107096171" xlink:href="#m2d7535a6e7" y="391.89161466"/>
     <use style="fill:#0000ff;opacity:0.5;stroke:#000000;stroke-width:0.5;" x="754.788165655" xlink:href="#m2d7535a6e7" y="391.635358418"/>
     <use style="fill:#0000ff;opacity:0.5;stroke:#000000;stroke-width:0.5;" x="779.440197568" xlink:href="#m2d7535a6e7" y="391.303713548"/>
     <use style="fill:#0000ff;opacity:0.5;stroke:#000000;stroke-width:0.5;" x="804.062732993" xlink:href="#m2d7535a6e7" y="390.877338561"/>
     <use style="fill:#0000ff;opacity:0.5;stroke:#000000;stroke-width:0.5;" x="828.655321277" xlink:href="#m2d7535a6e7" y="390.337021804"/>
     <use style="fill:#0000ff;opacity:0.5;stroke:#000000;stroke-width:0.5;" x="853.217524072" xlink:href="#m2d7535a6e7" y="389.663680133"/>
     <use style="fill:#0000ff;opacity:0.5;stroke:#000000;stroke-width:0.5;" x="877.748920046" xlink:href="#m2d7535a6e7" y="388.838357355"/>
     <use style="fill:#0000ff;opacity:0.5;stroke:#000000;stroke-width:0.5;" x="902.249110211" xlink:href="#m2d7535a6e7" y="387.842222338"/>
    </g>
   </g>
   <g id="patch_3">
    <path d="M 135 72 
L 972 72 
" style="fill:none;stroke:#000000;stroke-linecap:square;stroke-linejoin:miter;"/>
   </g>
   <g id="patch_4">
    <path d="M 972 648 
L 972 72 
" style="fill:none;stroke:#000000;stroke-linecap:square;stroke-linejoin:miter;"/>
   </g>
   <g id="patch_5">
    <path d="M 135 648 
L 972 648 
" style="fill:none;stroke:#000000;stroke-linecap:square;stroke-linejoin:miter;"/>
   </g>
   <g id="patch_6">
    <path d="M 135 648 
L 135 72 
" style="fill:none;stroke:#000000;stroke-linecap:square;stroke-linejoin:miter;"/>
   </g>
   <g id="matplotlib.axis_1">
    <g id="xtick_1">
     <g id="line2d_3">
      <defs>
       <path d="M 0 0 
L 0 -4 
" id="m41026b830b" style="stroke:#000000;stroke-width:0.5;"/>
      </defs>
      <g>
       <use style="stroke:#000000;stroke-width:0.5;" x="204.75" xlink:href="#m41026b830b" y="648.0"/>
      </g>
     </g>
     <g id="line2d_4">
      <defs>
       <path d="M 0 0 
L 0 4 
" id="m8ba540a1ca" style="stroke:#000000;stroke-width:0.5;"/>
      </defs>
      <g>
       <use style="stroke:#000000;stroke-width:0.5;" x="204.75" xlink:href="#m8ba540a1ca" y="72.0"/>
      </g>
     </g>
     <g id="text_1">
      <!-- 0.0 -->
      <defs>
       <path d="M 31.78125 66.40625 
Q 24.171875 66.40625 20.328125 58.90625 
Q 16.5 51.421875 16.5 36.375 
Q 16.5 21.390625 20.328125 13.890625 
Q 24.171875 6.390625 31.78125 6.390625 
Q 39.453125 6.390625 43.28125 13.890625 
Q 47.125 21.390625 47.125 36.375 
Q 47.125 51.421875 43.28125 58.90625 
Q 39.453125 66.40625 31.78125 66.40625 
M 31.78125 74.21875 
Q 44.046875 74.21875 50.515625 64.515625 
Q 56.984375 54.828125 56.984375 36.375 
Q 56.984375 17.96875 50.515625 8.265625 
Q 44.046875 -1.421875 31.78125 -1.421875 
Q 19.53125 -1.421875 13.0625 8.265625 
Q 6.59375 17.96875 6.59375 36.375 
Q 6.59375 54.828125 13.0625 64.515625 
Q 19.53125 74.21875 31.78125 74.21875 
" id="BitstreamVeraSans-Roman-30"/>
       <path d="M 10.6875 12.40625 
L 21 12.40625 
L 21 0 
L 10.6875 0 
z
" id="BitstreamVeraSans-Roman-2e"/>
      </defs>
      <g transform="translate(195.208125 661.118125)scale(0.12 -0.12)">
       <use xlink:href="#BitstreamVeraSans-Roman-30"/>
       <use x="63.623046875" xlink:href="#BitstreamVeraSans-Roman-2e"/>
       <use x="95.41015625" xlink:href="#BitstreamVeraSans-Roman-30"/>
      </g>
     </g>
    </g>
    <g id="xtick_2">
     <g id="line2d_5">
      <g>
       <use style="stroke:#000000;stroke-width:0.5;" x="344.25" xlink:href="#m41026b830b" y="648.0"/>
      </g>
     </g>
     <g id="line2d_6">
      <g>
       <use style="stroke:#000000;stroke-width:0.5;" x="344.25" xlink:href="#m8ba540a1ca" y="72.0"/>
      </g>
     </g>
     <g id="text_2">
      <!-- 0.2 -->
      <defs>
       <path d="M 19.1875 8.296875 
L 53.609375 8.296875 
L 53.609375 0 
L 7.328125 0 
L 7.328125 8.296875 
Q 12.9375 14.109375 22.625 23.890625 
Q 32.328125 33.6875 34.8125 36.53125 
Q 39.546875 41.84375 41.421875 45.53125 
Q 43.3125 49.21875 43.3125 52.78125 
Q 43.3125 58.59375 39.234375 62.25 
Q 35.15625 65.921875 28.609375 65.921875 
Q 23.96875 65.921875 18.8125 64.3125 
Q 13.671875 62.703125 7.8125 59.421875 
L 7.8125 69.390625 
Q 13.765625 71.78125 18.9375 73 
Q 24.125 74.21875 28.421875 74.21875 
Q 39.75 74.21875 46.484375 68.546875 
Q 53.21875 62.890625 53.21875 53.421875 
Q 53.21875 48.921875 51.53125 44.890625 
Q 49.859375 40.875 45.40625 35.40625 
Q 44.1875 33.984375 37.640625 27.21875 
Q 31.109375 20.453125 19.1875 8.296875 
" id="BitstreamVeraSans-Roman-32"/>
      </defs>
      <g transform="translate(334.708125 661.118125)scale(0.12 -0.12)">
       <use xlink:href="#BitstreamVeraSans-Roman-30"/>
       <use x="63.623046875" xlink:href="#BitstreamVeraSans-Roman-2e"/>
       <use x="95.41015625" xlink:href="#BitstreamVeraSans-Roman-32"/>
      </g>
     </g>
    </g>
    <g id="xtick_3">
     <g id="line2d_7">
      <g>
       <use style="stroke:#000000;stroke-width:0.5;" x="483.75" xlink:href="#m41026b830b" y="648.0"/>
      </g>
     </g>
     <g id="line2d_8">
      <g>
       <use style="stroke:#000000;stroke-width:0.5;" x="483.75" xlink:href="#m8ba540a1ca" y="72.0"/>
      </g>
     </g>
     <g id="text_3">
      <!-- 0.4 -->
      <defs>
       <path d="M 37.796875 64.3125 
L 12.890625 25.390625 
L 37.796875 25.390625 
z
M 35.203125 72.90625 
L 47.609375 72.90625 
L 47.609375 25.390625 
L 58.015625 25.390625 
L 58.015625 17.1875 
L 47.609375 17.1875 
L 47.609375 0 
L 37.796875 0 
L 37.796875 17.1875 
L 4.890625 17.1875 
L 4.890625 26.703125 
z
" id="BitstreamVeraSans-Roman-34"/>
      </defs>
      <g transform="translate(474.208125 661.118125)scale(0.12 -0.12)">
       <use xlink:href="#BitstreamVeraSans-Roman-30"/>
       <use x="63.623046875" xlink:href="#BitstreamVeraSans-Roman-2e"/>
       <use x="95.41015625" xlink:href="#BitstreamVeraSans-Roman-34"/>
      </g>
     </g>
    </g>
    <g id="xtick_4">
     <g id="line2d_9">
      <g>
       <use style="stroke:#000000;stroke-width:0.5;" x="623.25" xlink:href="#m41026b830b" y="648.0"/>
      </g>
     </g>
     <g id="line2d_10">
      <g>
       <use style="stroke:#000000;stroke-width:0.5;" x="623.25" xlink:href="#m8ba540a1ca" y="72.0"/>
      </g>
     </g>
     <g id="text_4">
      <!-- 0.6 -->
      <defs>
       <path d="M 33.015625 40.375 
Q 26.375 40.375 22.484375 35.828125 
Q 18.609375 31.296875 18.609375 23.390625 
Q 18.609375 15.53125 22.484375 10.953125 
Q 26.375 6.390625 33.015625 6.390625 
Q 39.65625 6.390625 43.53125 10.953125 
Q 47.40625 15.53125 47.40625 23.390625 
Q 47.40625 31.296875 43.53125 35.828125 
Q 39.65625 40.375 33.015625 40.375 
M 52.59375 71.296875 
L 52.59375 62.3125 
Q 48.875 64.0625 45.09375 64.984375 
Q 41.3125 65.921875 37.59375 65.921875 
Q 27.828125 65.921875 22.671875 59.328125 
Q 17.53125 52.734375 16.796875 39.40625 
Q 19.671875 43.65625 24.015625 45.921875 
Q 28.375 48.1875 33.59375 48.1875 
Q 44.578125 48.1875 50.953125 41.515625 
Q 57.328125 34.859375 57.328125 23.390625 
Q 57.328125 12.15625 50.6875 5.359375 
Q 44.046875 -1.421875 33.015625 -1.421875 
Q 20.359375 -1.421875 13.671875 8.265625 
Q 6.984375 17.96875 6.984375 36.375 
Q 6.984375 53.65625 15.1875 63.9375 
Q 23.390625 74.21875 37.203125 74.21875 
Q 40.921875 74.21875 44.703125 73.484375 
Q 48.484375 72.75 52.59375 71.296875 
" id="BitstreamVeraSans-Roman-36"/>
      </defs>
      <g transform="translate(613.708125 661.118125)scale(0.12 -0.12)">
       <use xlink:href="#BitstreamVeraSans-Roman-30"/>
       <use x="63.623046875" xlink:href="#BitstreamVeraSans-Roman-2e"/>
       <use x="95.41015625" xlink:href="#BitstreamVeraSans-Roman-36"/>
      </g>
     </g>
    </g>
    <g id="xtick_5">
     <g id="line2d_11">
      <g>
       <use style="stroke:#000000;stroke-width:0.5;" x="762.75" xlink:href="#m41026b830b" y="648.0"/>
      </g>
     </g>
     <g id="line2d_12">
      <g>
       <use style="stroke:#000000;stroke-width:0.5;" x="762.75" xlink:href="#m8ba540a1ca" y="72.0"/>
      </g>
     </g>
     <g id="text_5">
      <!-- 0.8 -->
      <defs>
       <path d="M 31.78125 34.625 
Q 24.75 34.625 20.71875 30.859375 
Q 16.703125 27.09375 16.703125 20.515625 
Q 16.703125 13.921875 20.71875 10.15625 
Q 24.75 6.390625 31.78125 6.390625 
Q 38.8125 6.390625 42.859375 10.171875 
Q 46.921875 13.96875 46.921875 20.515625 
Q 46.921875 27.09375 42.890625 30.859375 
Q 38.875 34.625 31.78125 34.625 
M 21.921875 38.8125 
Q 15.578125 40.375 12.03125 44.71875 
Q 8.5 49.078125 8.5 55.328125 
Q 8.5 64.0625 14.71875 69.140625 
Q 20.953125 74.21875 31.78125 74.21875 
Q 42.671875 74.21875 48.875 69.140625 
Q 55.078125 64.0625 55.078125 55.328125 
Q 55.078125 49.078125 51.53125 44.71875 
Q 48 40.375 41.703125 38.8125 
Q 48.828125 37.15625 52.796875 32.3125 
Q 56.78125 27.484375 56.78125 20.515625 
Q 56.78125 9.90625 50.3125 4.234375 
Q 43.84375 -1.421875 31.78125 -1.421875 
Q 19.734375 -1.421875 13.25 4.234375 
Q 6.78125 9.90625 6.78125 20.515625 
Q 6.78125 27.484375 10.78125 32.3125 
Q 14.796875 37.15625 21.921875 38.8125 
M 18.3125 54.390625 
Q 18.3125 48.734375 21.84375 45.5625 
Q 25.390625 42.390625 31.78125 42.390625 
Q 38.140625 42.390625 41.71875 45.5625 
Q 45.3125 48.734375 45.3125 54.390625 
Q 45.3125 60.0625 41.71875 63.234375 
Q 38.140625 66.40625 31.78125 66.40625 
Q 25.390625 66.40625 21.84375 63.234375 
Q 18.3125 60.0625 18.3125 54.390625 
" id="BitstreamVeraSans-Roman-38"/>
      </defs>
      <g transform="translate(753.208125 661.118125)scale(0.12 -0.12)">
       <use xlink:href="#BitstreamVeraSans-Roman-30"/>
       <use x="63.623046875" xlink:href="#BitstreamVeraSans-Roman-2e"/>
       <use x="95.41015625" xlink:href="#BitstreamVeraSans-Roman-38"/>
      </g>
     </g>
    </g>
    <g id="xtick_6">
     <g id="line2d_13">
      <g>
       <use style="stroke:#000000;stroke-width:0.5;" x="902.25" xlink:href="#m41026b830b" y="648.0"/>
      </g>
     </g>
     <g id="line2d_14">
      <g>
       <use style="stroke:#000000;stroke-width:0.5;" x="902.25" xlink:href="#m8ba540a1ca" y="72.0"/>
      </g>
     </g>
     <g id="text_6">
      <!-- 1.0 -->
      <defs>
       <path d="M 12.40625 8.296875 
L 28.515625 8.296875 
L 28.515625 63.921875 
L 10.984375 60.40625 
L 10.984375 69.390625 
L 28.421875 72.90625 
L 38.28125 72.90625 
L 38.28125 8.296875 
L 54.390625 8.296875 
L 54.390625 0 
L 12.40625 0 
z
" id="BitstreamVeraSans-Roman-31"/>
      </defs>
      <g transform="translate(892.708125 661.118125)scale(0.12 -0.12)">
       <use xlink:href="#BitstreamVeraSans-Roman-31"/>
       <use x="63.623046875" xlink:href="#BitstreamVeraSans-Roman-2e"/>
       <use x="95.41015625" xlink:href="#BitstreamVeraSans-Roman-30"/>
      </g>
     </g>
    </g>
   </g>
   <g id="matplotlib.axis_2">
    <g id="ytick_1">
     <g id="line2d_15">
      <defs>
       <path d="M 0 0 
L 4 0 
" id="m52db727607" style="stroke:#000000;stroke-width:0.5;"/>
      </defs>
      <g>
       <use style="stroke:#000000;stroke-width:0.5;" x="135.0" xlink:href="#m52db727607" y="597.15"/>
      </g>
     </g>
     <g id="line2d_16">
      <defs>
       <path d="M 0 0 
L -4 0 
" id="md7ab507890" style="stroke:#000000;stroke-width:0.5;"/>
      </defs>
      <g>
       <use style="stroke:#000000;stroke-width:0.5;" x="972.0" xlink:href="#md7ab507890" y="597.15"/>
      </g>
     </g>
     <g id="text_7">
      <!-- −0.3 -->
      <defs>
       <path d="M 10.59375 35.5 
L 73.1875 35.5 
L 73.1875 27.203125 
L 10.59375 27.203125 
z
" id="BitstreamVeraSans-Roman-2212"/>
       <path d="M 40.578125 39.3125 
Q 47.65625 37.796875 51.625 33 
Q 55.609375 28.21875 55.609375 21.1875 
Q 55.609375 10.40625 48.1875 4.484375 
Q 40.765625 -1.421875 27.09375 -1.421875 
Q 22.515625 -1.421875 17.65625 -0.515625 
Q 12.796875 0.390625 7.625 2.203125 
L 7.625 11.71875 
Q 11.71875 9.328125 16.59375 8.109375 
Q 21.484375 6.890625 26.8125 6.890625 
Q 36.078125 6.890625 40.9375 10.546875 
Q 45.796875 14.203125 45.796875 21.1875 
Q 45.796875 27.640625 41.28125 31.265625 
Q 36.765625 34.90625 28.71875 34.90625 
L 20.21875 34.90625 
L 20.21875 43.015625 
L 29.109375 43.015625 
Q 36.375 43.015625 40.234375 45.921875 
Q 44.09375 48.828125 44.09375 54.296875 
Q 44.09375 59.90625 40.109375 62.90625 
Q 36.140625 65.921875 28.71875 65.921875 
Q 24.65625 65.921875 20.015625 65.03125 
Q 15.375 64.15625 9.8125 62.3125 
L 9.8125 71.09375 
Q 15.4375 72.65625 20.34375 73.4375 
Q 25.25 74.21875 29.59375 74.21875 
Q 40.828125 74.21875 47.359375 69.109375 
Q 53.90625 64.015625 53.90625 55.328125 
Q 53.90625 49.265625 50.4375 45.09375 
Q 46.96875 40.921875 40.578125 39.3125 
" id="BitstreamVeraSans-Roman-33"/>
      </defs>
      <g transform="translate(101.860625 600.46125)scale(0.12 -0.12)">
       <use xlink:href="#BitstreamVeraSans-Roman-2212"/>
       <use x="83.7890625" xlink:href="#BitstreamVeraSans-Roman-30"/>
       <use x="147.412109375" xlink:href="#BitstreamVeraSans-Roman-2e"/>
       <use x="179.19921875" xlink:href="#BitstreamVeraSans-Roman-33"/>
      </g>
     </g>
    </g>
    <g id="ytick_2">
     <g id="line2d_17">
      <g>
       <use style="stroke:#000000;stroke-width:0.5;" x="135.0" xlink:href="#m52db727607" y="527.4"/>
      </g>
     </g>
     <g id="line2d_18">
      <g>
       <use style="stroke:#000000;stroke-width:0.5;" x="972.0" xlink:href="#md7ab507890" y="527.4"/>
      </g>
     </g>
     <g id="text_8">
      <!-- −0.2 -->
      <g transform="translate(101.860625 530.71125)scale(0.12 -0.12)">
       <use xlink:href="#BitstreamVeraSans-Roman-2212"/>
       <use x="83.7890625" xlink:href="#BitstreamVeraSans-Roman-30"/>
       <use x="147.412109375" xlink:href="#BitstreamVeraSans-Roman-2e"/>
       <use x="179.19921875" xlink:href="#BitstreamVeraSans-Roman-32"/>
      </g>
     </g>
    </g>
    <g id="ytick_3">
     <g id="line2d_19">
      <g>
       <use style="stroke:#000000;stroke-width:0.5;" x="135.0" xlink:href="#m52db727607" y="457.65"/>
      </g>
     </g>
     <g id="line2d_20">
      <g>
       <use style="stroke:#000000;stroke-width:0.5;" x="972.0" xlink:href="#md7ab507890" y="457.65"/>
      </g>
     </g>
     <g id="text_9">
      <!-- −0.1 -->
      <g transform="translate(101.860625 460.96125)scale(0.12 -0.12)">
       <use xlink:href="#BitstreamVeraSans-Roman-2212"/>
       <use x="83.7890625" xlink:href="#BitstreamVeraSans-Roman-30"/>
       <use x="147.412109375" xlink:href="#BitstreamVeraSans-Roman-2e"/>
       <use x="179.19921875" xlink:href="#BitstreamVeraSans-Roman-31"/>
      </g>
     </g>
    </g>
    <g id="ytick_4">
     <g id="line2d_21">
      <g>
       <use style="stroke:#000000;stroke-width:0.5;" x="135.0" xlink:href="#m52db727607" y="387.9"/>
      </g>
     </g>
     <g id="line2d_22">
      <g>
       <use style="stroke:#000000;stroke-width:0.5;" x="972.0" xlink:href="#md7ab507890" y="387.9"/>
      </g>
     </g>
     <g id="text_10">
      <!-- 0.0 -->
      <g transform="translate(111.91625 391.21125)scale(0.12 -0.12)">
       <use xlink:href="#BitstreamVeraSans-Roman-30"/>
       <use x="63.623046875" xlink:href="#BitstreamVeraSans-Roman-2e"/>
       <use x="95.41015625" xlink:href="#BitstreamVeraSans-Roman-30"/>
      </g>
     </g>
    </g>
    <g id="ytick_5">
     <g id="line2d_23">
      <g>
       <use style="stroke:#000000;stroke-width:0.5;" x="135.0" xlink:href="#m52db727607" y="318.15"/>
      </g>
     </g>
     <g id="line2d_24">
      <g>
       <use style="stroke:#000000;stroke-width:0.5;" x="972.0" xlink:href="#md7ab507890" y="318.15"/>
      </g>
     </g>
     <g id="text_11">
      <!-- 0.1 -->
      <g transform="translate(111.91625 321.46125)scale(0.12 -0.12)">
       <use xlink:href="#BitstreamVeraSans-Roman-30"/>
       <use x="63.623046875" xlink:href="#BitstreamVeraSans-Roman-2e"/>
       <use x="95.41015625" xlink:href="#BitstreamVeraSans-Roman-31"/>
      </g>
     </g>
    </g>
    <g id="ytick_6">
     <g id="line2d_25">
      <g>
       <use style="stroke:#000000;stroke-width:0.5;" x="135.0" xlink:href="#m52db727607" y="248.4"/>
      </g>
     </g>
     <g id="line2d_26">
      <g>
       <use style="stroke:#000000;stroke-width:0.5;" x="972.0" xlink:href="#md7ab507890" y="248.4"/>
      </g>
     </g>
     <g id="text_12">
      <!-- 0.2 -->
      <g transform="translate(111.91625 251.71125)scale(0.12 -0.12)">
       <use xlink:href="#BitstreamVeraSans-Roman-30"/>
       <use x="63.623046875" xlink:href="#BitstreamVeraSans-Roman-2e"/>
       <use x="95.41015625" xlink:href="#BitstreamVeraSans-Roman-32"/>
      </g>
     </g>
    </g>
    <g id="ytick_7">
     <g id="line2d_27">
      <g>
       <use style="stroke:#000000;stroke-width:0.5;" x="135.0" xlink:href="#m52db727607" y="178.65"/>
      </g>
     </g>
     <g id="line2d_28">
      <g>
       <use style="stroke:#000000;stroke-width:0.5;" x="972.0" xlink:href="#md7ab507890" y="178.65"/>
      </g>
     </g>
     <g id="text_13">
      <!-- 0.3 -->
      <g transform="translate(111.91625 181.96125)scale(0.12 -0.12)">
       <use xlink:href="#BitstreamVeraSans-Roman-30"/>
       <use x="63.623046875" xlink:href="#BitstreamVeraSans-Roman-2e"/>
       <use x="95.41015625" xlink:href="#BitstreamVeraSans-Roman-33"/>
      </g>
     </g>
    </g>
    <g id="ytick_8">
     <g id="line2d_29">
      <g>
       <use style="stroke:#000000;stroke-width:0.5;" x="135.0" xlink:href="#m52db727607" y="108.9"/>
      </g>
     </g>
     <g id="line2d_30">
      <g>
       <use style="stroke:#000000;stroke-width:0.5;" x="972.0" xlink:href="#md7ab507890" y="108.9"/>
      </g>
     </g>
     <g id="text_14">
      <!-- 0.4 -->
      <g transform="translate(111.91625 112.21125)scale(0.12 -0.12)">
       <use xlink:href="#BitstreamVeraSans-Roman-30"/>
       <use x="63.623046875" xlink:href="#BitstreamVeraSans-Roman-2e"/>
       <use x="95.41015625" xlink:href="#BitstreamVeraSans-Roman-34"/>
      </g>
     </g>
    </g>
   </g>
   <g id="text_15">
    <!-- goe701  residuals: 0.000001  0 -->
    <defs>
     <path id="BitstreamVeraSans-Roman-20"/>
     <path d="M 8.203125 72.90625 
L 55.078125 72.90625 
L 55.078125 68.703125 
L 28.609375 0 
L 18.3125 0 
L 43.21875 64.59375 
L 8.203125 64.59375 
z
" id="BitstreamVeraSans-Roman-37"/>
     <path d="M 34.28125 27.484375 
Q 23.390625 27.484375 19.1875 25 
Q 14.984375 22.515625 14.984375 16.5 
Q 14.984375 11.71875 18.140625 8.90625 
Q 21.296875 6.109375 26.703125 6.109375 
Q 34.1875 6.109375 38.703125 11.40625 
Q 43.21875 16.703125 43.21875 25.484375 
L 43.21875 27.484375 
z
M 52.203125 31.203125 
L 52.203125 0 
L 43.21875 0 
L 43.21875 8.296875 
Q 40.140625 3.328125 35.546875 0.953125 
Q 30.953125 -1.421875 24.3125 -1.421875 
Q 15.921875 -1.421875 10.953125 3.296875 
Q 6 8.015625 6 15.921875 
Q 6 25.140625 12.171875 29.828125 
Q 18.359375 34.515625 30.609375 34.515625 
L 43.21875 34.515625 
L 43.21875 35.40625 
Q 43.21875 41.609375 39.140625 45 
Q 35.0625 48.390625 27.6875 48.390625 
Q 23 48.390625 18.546875 47.265625 
Q 14.109375 46.140625 10.015625 43.890625 
L 10.015625 52.203125 
Q 14.9375 54.109375 19.578125 55.046875 
Q 24.21875 56 28.609375 56 
Q 40.484375 56 46.34375 49.84375 
Q 52.203125 43.703125 52.203125 31.203125 
" id="BitstreamVeraSans-Roman-61"/>
     <path d="M 30.609375 48.390625 
Q 23.390625 48.390625 19.1875 42.75 
Q 14.984375 37.109375 14.984375 27.296875 
Q 14.984375 17.484375 19.15625 11.84375 
Q 23.34375 6.203125 30.609375 6.203125 
Q 37.796875 6.203125 41.984375 11.859375 
Q 46.1875 17.53125 46.1875 27.296875 
Q 46.1875 37.015625 41.984375 42.703125 
Q 37.796875 48.390625 30.609375 48.390625 
M 30.609375 56 
Q 42.328125 56 49.015625 48.375 
Q 55.71875 40.765625 55.71875 27.296875 
Q 55.71875 13.875 49.015625 6.21875 
Q 42.328125 -1.421875 30.609375 -1.421875 
Q 18.84375 -1.421875 12.171875 6.21875 
Q 5.515625 13.875 5.515625 27.296875 
Q 5.515625 40.765625 12.171875 48.375 
Q 18.84375 56 30.609375 56 
" id="BitstreamVeraSans-Roman-6f"/>
     <path d="M 9.421875 75.984375 
L 18.40625 75.984375 
L 18.40625 0 
L 9.421875 0 
z
" id="BitstreamVeraSans-Roman-6c"/>
     <path d="M 11.71875 12.40625 
L 22.015625 12.40625 
L 22.015625 0 
L 11.71875 0 
z
M 11.71875 51.703125 
L 22.015625 51.703125 
L 22.015625 39.3125 
L 11.71875 39.3125 
z
" id="BitstreamVeraSans-Roman-3a"/>
     <path d="M 9.421875 54.6875 
L 18.40625 54.6875 
L 18.40625 0 
L 9.421875 0 
z
M 9.421875 75.984375 
L 18.40625 75.984375 
L 18.40625 64.59375 
L 9.421875 64.59375 
z
" id="BitstreamVeraSans-Roman-69"/>
     <path d="M 56.203125 29.59375 
L 56.203125 25.203125 
L 14.890625 25.203125 
Q 15.484375 15.921875 20.484375 11.0625 
Q 25.484375 6.203125 34.421875 6.203125 
Q 39.59375 6.203125 44.453125 7.46875 
Q 49.3125 8.734375 54.109375 11.28125 
L 54.109375 2.78125 
Q 49.265625 0.734375 44.1875 -0.34375 
Q 39.109375 -1.421875 33.890625 -1.421875 
Q 20.796875 -1.421875 13.15625 6.1875 
Q 5.515625 13.8125 5.515625 26.8125 
Q 5.515625 40.234375 12.765625 48.109375 
Q 20.015625 56 32.328125 56 
Q 43.359375 56 49.78125 48.890625 
Q 56.203125 41.796875 56.203125 29.59375 
M 47.21875 32.234375 
Q 47.125 39.59375 43.09375 43.984375 
Q 39.0625 48.390625 32.421875 48.390625 
Q 24.90625 48.390625 20.390625 44.140625 
Q 15.875 39.890625 15.1875 32.171875 
z
" id="BitstreamVeraSans-Roman-65"/>
     <path d="M 45.40625 46.390625 
L 45.40625 75.984375 
L 54.390625 75.984375 
L 54.390625 0 
L 45.40625 0 
L 45.40625 8.203125 
Q 42.578125 3.328125 38.25 0.953125 
Q 33.9375 -1.421875 27.875 -1.421875 
Q 17.96875 -1.421875 11.734375 6.484375 
Q 5.515625 14.40625 5.515625 27.296875 
Q 5.515625 40.1875 11.734375 48.09375 
Q 17.96875 56 27.875 56 
Q 33.9375 56 38.25 53.625 
Q 42.578125 51.265625 45.40625 46.390625 
M 14.796875 27.296875 
Q 14.796875 17.390625 18.875 11.75 
Q 22.953125 6.109375 30.078125 6.109375 
Q 37.203125 6.109375 41.296875 11.75 
Q 45.40625 17.390625 45.40625 27.296875 
Q 45.40625 37.203125 41.296875 42.84375 
Q 37.203125 48.484375 30.078125 48.484375 
Q 22.953125 48.484375 18.875 42.84375 
Q 14.796875 37.203125 14.796875 27.296875 
" id="BitstreamVeraSans-Roman-64"/>
     <path d="M 45.40625 27.984375 
Q 45.40625 37.75 41.375 43.109375 
Q 37.359375 48.484375 30.078125 48.484375 
Q 22.859375 48.484375 18.828125 43.109375 
Q 14.796875 37.75 14.796875 27.984375 
Q 14.796875 18.265625 18.828125 12.890625 
Q 22.859375 7.515625 30.078125 7.515625 
Q 37.359375 7.515625 41.375 12.890625 
Q 45.40625 18.265625 45.40625 27.984375 
M 54.390625 6.78125 
Q 54.390625 -7.171875 48.1875 -13.984375 
Q 42 -20.796875 29.203125 -20.796875 
Q 24.46875 -20.796875 20.265625 -20.09375 
Q 16.0625 -19.390625 12.109375 -17.921875 
L 12.109375 -9.1875 
Q 16.0625 -11.328125 19.921875 -12.34375 
Q 23.78125 -13.375 27.78125 -13.375 
Q 36.625 -13.375 41.015625 -8.765625 
Q 45.40625 -4.15625 45.40625 5.171875 
L 45.40625 9.625 
Q 42.625 4.78125 38.28125 2.390625 
Q 33.9375 0 27.875 0 
Q 17.828125 0 11.671875 7.65625 
Q 5.515625 15.328125 5.515625 27.984375 
Q 5.515625 40.671875 11.671875 48.328125 
Q 17.828125 56 27.875 56 
Q 33.9375 56 38.28125 53.609375 
Q 42.625 51.21875 45.40625 46.390625 
L 45.40625 54.6875 
L 54.390625 54.6875 
z
" id="BitstreamVeraSans-Roman-67"/>
     <path d="M 8.5 21.578125 
L 8.5 54.6875 
L 17.484375 54.6875 
L 17.484375 21.921875 
Q 17.484375 14.15625 20.5 10.265625 
Q 23.53125 6.390625 29.59375 6.390625 
Q 36.859375 6.390625 41.078125 11.03125 
Q 45.3125 15.671875 45.3125 23.6875 
L 45.3125 54.6875 
L 54.296875 54.6875 
L 54.296875 0 
L 45.3125 0 
L 45.3125 8.40625 
Q 42.046875 3.421875 37.71875 1 
Q 33.40625 -1.421875 27.6875 -1.421875 
Q 18.265625 -1.421875 13.375 4.4375 
Q 8.5 10.296875 8.5 21.578125 
" id="BitstreamVeraSans-Roman-75"/>
     <path d="M 41.109375 46.296875 
Q 39.59375 47.171875 37.8125 47.578125 
Q 36.03125 48 33.890625 48 
Q 26.265625 48 22.1875 43.046875 
Q 18.109375 38.09375 18.109375 28.8125 
L 18.109375 0 
L 9.078125 0 
L 9.078125 54.6875 
L 18.109375 54.6875 
L 18.109375 46.1875 
Q 20.953125 51.171875 25.484375 53.578125 
Q 30.03125 56 36.53125 56 
Q 37.453125 56 38.578125 55.875 
Q 39.703125 55.765625 41.0625 55.515625 
z
" id="BitstreamVeraSans-Roman-72"/>
     <path d="M 44.28125 53.078125 
L 44.28125 44.578125 
Q 40.484375 46.53125 36.375 47.5 
Q 32.28125 48.484375 27.875 48.484375 
Q 21.1875 48.484375 17.84375 46.4375 
Q 14.5 44.390625 14.5 40.28125 
Q 14.5 37.15625 16.890625 35.375 
Q 19.28125 33.59375 26.515625 31.984375 
L 29.59375 31.296875 
Q 39.15625 29.25 43.1875 25.515625 
Q 47.21875 21.78125 47.21875 15.09375 
Q 47.21875 7.46875 41.1875 3.015625 
Q 35.15625 -1.421875 24.609375 -1.421875 
Q 20.21875 -1.421875 15.453125 -0.5625 
Q 10.6875 0.296875 5.421875 2 
L 5.421875 11.28125 
Q 10.40625 8.6875 15.234375 7.390625 
Q 20.0625 6.109375 24.8125 6.109375 
Q 31.15625 6.109375 34.5625 8.28125 
Q 37.984375 10.453125 37.984375 14.40625 
Q 37.984375 18.0625 35.515625 20.015625 
Q 33.0625 21.96875 24.703125 23.78125 
L 21.578125 24.515625 
Q 13.234375 26.265625 9.515625 29.90625 
Q 5.8125 33.546875 5.8125 39.890625 
Q 5.8125 47.609375 11.28125 51.796875 
Q 16.75 56 26.8125 56 
Q 31.78125 56 36.171875 55.265625 
Q 40.578125 54.546875 44.28125 53.078125 
" id="BitstreamVeraSans-Roman-73"/>
    </defs>
    <g transform="translate(441.111375 67.0)scale(0.144 -0.144)">
     <use xlink:href="#BitstreamVeraSans-Roman-67"/>
     <use x="63.4765625" xlink:href="#BitstreamVeraSans-Roman-6f"/>
     <use x="124.658203125" xlink:href="#BitstreamVeraSans-Roman-65"/>
     <use x="186.181640625" xlink:href="#BitstreamVeraSans-Roman-37"/>
     <use x="249.8046875" xlink:href="#BitstreamVeraSans-Roman-30"/>
     <use x="313.427734375" xlink:href="#BitstreamVeraSans-Roman-31"/>
     <use x="377.05078125" xlink:href="#BitstreamVeraSans-Roman-20"/>
     <use x="408.837890625" xlink:href="#BitstreamVeraSans-Roman-20"/>
     <use x="440.625" xlink:href="#BitstreamVeraSans-Roman-72"/>
     <use x="481.70703125" xlink:href="#BitstreamVeraSans-Roman-65"/>
     <use x="543.23046875" xlink:href="#BitstreamVeraSans-Roman-73"/>
     <use x="595.330078125" xlink:href="#BitstreamVeraSans-Roman-69"/>
     <use x="623.11328125" xlink:href="#BitstreamVeraSans-Roman-64"/>
     <use x="686.58984375" xlink:href="#BitstreamVeraSans-Roman-75"/>
     <use x="749.96875" xlink:href="#BitstreamVeraSans-Roman-61"/>
     <use x="811.248046875" xlink:href="#BitstreamVeraSans-Roman-6c"/>
     <use x="839.03125" xlink:href="#BitstreamVeraSans-Roman-73"/>
     <use x="891.130859375" xlink:href="#BitstreamVeraSans-Roman-3a"/>
     <use x="924.822265625" xlink:href="#BitstreamVeraSans-Roman-20"/>
     <use x="956.609375" xlink:href="#BitstreamVeraSans-Roman-30"/>
     <use x="1020.23242188" xlink:href="#BitstreamVeraSans-Roman-2e"/>
     <use x="1052.01953125" xlink:href="#BitstreamVeraSans-Roman-30"/>
     <use x="1115.64257812" xlink:href="#BitstreamVeraSans-Roman-30"/>
     <use x="1179.265625" xlink:href="#BitstreamVeraSans-Roman-30"/>
     <use x="1242.88867188" xlink:href="#BitstreamVeraSans-Roman-30"/>
     <use x="1306.51171875" xlink:href="#BitstreamVeraSans-Roman-30"/>
     <use x="1370.13476562" xlink:href="#BitstreamVeraSans-Roman-31"/>
     <use x="1433.7578125" xlink:href="#BitstreamVeraSans-Roman-20"/>
     <use x="1465.54492188" xlink:href="#BitstreamVeraSans-Roman-20"/>
     <use x="1497.33203125" xlink:href="#BitstreamVeraSans-Roman-30"/>
    </g>
   </g>
  </g>
 </g>
 <defs>
  <clipPath id="pc08b623cd2">
   <rect height="576.0" width="837.0" x="135.0" y="72.0"/>
  </clipPath>
 </defs>
</svg>
