<?xml version="1.0" encoding="utf-8" standalone="no"?>
<!DOCTYPE svg PUBLIC "-//W3C//DTD SVG 1.1//EN"
  "http://www.w3.org/Graphics/SVG/1.1/DTD/svg11.dtd">
<!-- Created with matplotlib (http://matplotlib.org/) -->
<svg height="720pt" version="1.1" viewBox="0 0 1080 720" width="1080pt" xmlns="http://www.w3.org/2000/svg" xmlns:xlink="http://www.w3.org/1999/xlink">
 <defs>
  <style type="text/css">
*{stroke-linecap:butt;stroke-linejoin:round;stroke-miterlimit:100000;}
  </style>
 </defs>
 <g id="figure_1">
  <g id="patch_1">
   <path d="M 0 720 
L 1080 720 
L 1080 0 
L 0 0 
z
" style="fill:#ffffff;"/>
  </g>
  <g id="axes_1">
   <g id="patch_2">
    <path d="M 135 648 
L 972 648 
L 972 72 
L 135 72 
z
" style="fill:#ffffff;"/>
   </g>
   <g id="line2d_1">
    <defs>
     <path d="M 0 3 
C 0.795609 3 1.55874 2.683901 2.12132 2.12132 
C 2.683901 1.55874 3 0.795609 3 0 
C 3 -0.795609 2.683901 -1.55874 2.12132 -2.12132 
C 1.55874 -2.683901 0.795609 -3 0 -3 
C -0.795609 -3 -1.55874 -2.683901 -2.12132 -2.12132 
C -2.683901 -1.55874 -3 -0.795609 -3 0 
C -3 0.795609 -2.683901 1.55874 -2.12132 2.12132 
C -1.55874 2.683901 -0.795609 3 0 3 
z
" id="m7e9e984ebe" style="stroke:#000000;stroke-width:0.5;"/>
    </defs>
    <g clip-path="url(#p9cf55f1d98)">
     <use style="fill:#ff0000;opacity:0.5;stroke:#000000;stroke-width:0.5;" x="902.25" xlink:href="#m7e9e984ebe" y="373.95"/>
     <use style="fill:#ff0000;opacity:0.5;stroke:#000000;stroke-width:0.5;" x="899.944155675" xlink:href="#m7e9e984ebe" y="374.0178249"/>
     <use style="fill:#ff0000;opacity:0.5;stroke:#000000;stroke-width:0.5;" x="892.971722475" xlink:href="#m7e9e984ebe" y="374.083187625"/>
     <use style="fill:#ff0000;opacity:0.5;stroke:#000000;stroke-width:0.5;" x="881.424623925" xlink:href="#m7e9e984ebe" y="373.814622225"/>
     <use style="fill:#ff0000;opacity:0.5;stroke:#000000;stroke-width:0.5;" x="865.618297425" xlink:href="#m7e9e984ebe" y="373.002467175"/>
     <use style="fill:#ff0000;opacity:0.5;stroke:#000000;stroke-width:0.5;" x="845.887180275" xlink:href="#m7e9e984ebe" y="371.57527755"/>
     <use style="fill:#ff0000;opacity:0.5;stroke:#000000;stroke-width:0.5;" x="822.5796249" xlink:href="#m7e9e984ebe" y="369.481598775"/>
     <use style="fill:#ff0000;opacity:0.5;stroke:#000000;stroke-width:0.5;" x="796.085401275" xlink:href="#m7e9e984ebe" y="366.671831625"/>
     <use style="fill:#ff0000;opacity:0.5;stroke:#000000;stroke-width:0.5;" x="766.903466025" xlink:href="#m7e9e984ebe" y="363.098748375"/>
     <use style="fill:#ff0000;opacity:0.5;stroke:#000000;stroke-width:0.5;" x="735.64597305" xlink:href="#m7e9e984ebe" y="358.854851475"/>
     <use style="fill:#ff0000;opacity:0.5;stroke:#000000;stroke-width:0.5;" x="702.85499145" xlink:href="#m7e9e984ebe" y="354.19181985"/>
     <use style="fill:#ff0000;opacity:0.5;stroke:#000000;stroke-width:0.5;" x="668.980018125" xlink:href="#m7e9e984ebe" y="349.380164925"/>
     <use style="fill:#ff0000;opacity:0.5;stroke:#000000;stroke-width:0.5;" x="634.3971381" xlink:href="#m7e9e984ebe" y="344.704250475"/>
     <use style="fill:#ff0000;opacity:0.5;stroke:#000000;stroke-width:0.5;" x="599.4033399" xlink:href="#m7e9e984ebe" y="340.387841475"/>
     <use style="fill:#ff0000;opacity:0.5;stroke:#000000;stroke-width:0.5;" x="564.28283385" xlink:href="#m7e9e984ebe" y="336.595213125"/>
     <use style="fill:#ff0000;opacity:0.5;stroke:#000000;stroke-width:0.5;" x="529.304122575" xlink:href="#m7e9e984ebe" y="333.429079275"/>
     <use style="fill:#ff0000;opacity:0.5;stroke:#000000;stroke-width:0.5;" x="494.768233125" xlink:href="#m7e9e984ebe" y="330.93608175"/>
     <use style="fill:#ff0000;opacity:0.5;stroke:#000000;stroke-width:0.5;" x="461.006582625" xlink:href="#m7e9e984ebe" y="329.158942425"/>
     <use style="fill:#ff0000;opacity:0.5;stroke:#000000;stroke-width:0.5;" x="428.34332025" xlink:href="#m7e9e984ebe" y="328.145405175"/>
     <use style="fill:#ff0000;opacity:0.5;stroke:#000000;stroke-width:0.5;" x="397.09244655" xlink:href="#m7e9e984ebe" y="327.9394962"/>
     <use style="fill:#ff0000;opacity:0.5;stroke:#000000;stroke-width:0.5;" x="367.526691" xlink:href="#m7e9e984ebe" y="328.59354195"/>
     <use style="fill:#ff0000;opacity:0.5;stroke:#000000;stroke-width:0.5;" x="339.867851625" xlink:href="#m7e9e984ebe" y="330.1137153"/>
     <use style="fill:#ff0000;opacity:0.5;stroke:#000000;stroke-width:0.5;" x="314.331567525" xlink:href="#m7e9e984ebe" y="332.4661317"/>
     <use style="fill:#ff0000;opacity:0.5;stroke:#000000;stroke-width:0.5;" x="291.118851225" xlink:href="#m7e9e984ebe" y="335.59404255"/>
     <use style="fill:#ff0000;opacity:0.5;stroke:#000000;stroke-width:0.5;" x="270.41927625" xlink:href="#m7e9e984ebe" y="339.422445675"/>
     <use style="fill:#ff0000;opacity:0.5;stroke:#000000;stroke-width:0.5;" x="252.4047903" xlink:href="#m7e9e984ebe" y="343.8700893"/>
     <use style="fill:#ff0000;opacity:0.5;stroke:#000000;stroke-width:0.5;" x="237.20513535" xlink:href="#m7e9e984ebe" y="348.8613156"/>
     <use style="fill:#ff0000;opacity:0.5;stroke:#000000;stroke-width:0.5;" x="224.882842275" xlink:href="#m7e9e984ebe" y="354.2783238"/>
     <use style="fill:#ff0000;opacity:0.5;stroke:#000000;stroke-width:0.5;" x="215.481239775" xlink:href="#m7e9e984ebe" y="359.956427175"/>
     <use style="fill:#ff0000;opacity:0.5;stroke:#000000;stroke-width:0.5;" x="208.9813698" xlink:href="#m7e9e984ebe" y="365.653774575"/>
     <use style="fill:#ff0000;opacity:0.5;stroke:#000000;stroke-width:0.5;" x="205.623542025" xlink:href="#m7e9e984ebe" y="370.530011025"/>
     <use style="fill:#ff0000;opacity:0.5;stroke:#000000;stroke-width:0.5;" x="205.069280625" xlink:href="#m7e9e984ebe" y="372.014849025"/>
     <use style="fill:#ff0000;opacity:0.5;stroke:#000000;stroke-width:0.5;" x="204.786360675" xlink:href="#m7e9e984ebe" y="373.38994935"/>
     <use style="fill:#ff0000;opacity:0.5;stroke:#000000;stroke-width:0.5;" x="204.75994635" xlink:href="#m7e9e984ebe" y="374.22636345"/>
     <use style="fill:#ff0000;opacity:0.5;stroke:#000000;stroke-width:0.5;" x="204.9022503" xlink:href="#m7e9e984ebe" y="374.964618375"/>
     <use style="fill:#ff0000;opacity:0.5;stroke:#000000;stroke-width:0.5;" x="205.2716463" xlink:href="#m7e9e984ebe" y="375.649200675"/>
     <use style="fill:#ff0000;opacity:0.5;stroke:#000000;stroke-width:0.5;" x="205.863970275" xlink:href="#m7e9e984ebe" y="376.3464147"/>
     <use style="fill:#ff0000;opacity:0.5;stroke:#000000;stroke-width:0.5;" x="207.0802917" xlink:href="#m7e9e984ebe" y="377.41363155"/>
     <use style="fill:#ff0000;opacity:0.5;stroke:#000000;stroke-width:0.5;" x="208.6524009" xlink:href="#m7e9e984ebe" y="378.505337625"/>
     <use style="fill:#ff0000;opacity:0.5;stroke:#000000;stroke-width:0.5;" x="217.12550535" xlink:href="#m7e9e984ebe" y="382.46219235"/>
     <use style="fill:#ff0000;opacity:0.5;stroke:#000000;stroke-width:0.5;" x="228.563689275" xlink:href="#m7e9e984ebe" y="385.98495795"/>
     <use style="fill:#ff0000;opacity:0.5;stroke:#000000;stroke-width:0.5;" x="243.282627225" xlink:href="#m7e9e984ebe" y="389.23215525"/>
     <use style="fill:#ff0000;opacity:0.5;stroke:#000000;stroke-width:0.5;" x="261.09405" xlink:href="#m7e9e984ebe" y="392.042598975"/>
     <use style="fill:#ff0000;opacity:0.5;stroke:#000000;stroke-width:0.5;" x="281.87574165" xlink:href="#m7e9e984ebe" y="394.242207075"/>
     <use style="fill:#ff0000;opacity:0.5;stroke:#000000;stroke-width:0.5;" x="305.56245105" xlink:href="#m7e9e984ebe" y="395.766684"/>
     <use style="fill:#ff0000;opacity:0.5;stroke:#000000;stroke-width:0.5;" x="332.005715325" xlink:href="#m7e9e984ebe" y="396.647689275"/>
     <use style="fill:#ff0000;opacity:0.5;stroke:#000000;stroke-width:0.5;" x="360.9972819" xlink:href="#m7e9e984ebe" y="396.9344664"/>
     <use style="fill:#ff0000;opacity:0.5;stroke:#000000;stroke-width:0.5;" x="392.266492875" xlink:href="#m7e9e984ebe" y="396.7070535"/>
     <use style="fill:#ff0000;opacity:0.5;stroke:#000000;stroke-width:0.5;" x="425.48873175" xlink:href="#m7e9e984ebe" y="396.033331275"/>
     <use style="fill:#ff0000;opacity:0.5;stroke:#000000;stroke-width:0.5;" x="460.31434875" xlink:href="#m7e9e984ebe" y="394.982714925"/>
     <use style="fill:#ff0000;opacity:0.5;stroke:#000000;stroke-width:0.5;" x="496.373850225" xlink:href="#m7e9e984ebe" y="393.63003225"/>
     <use style="fill:#ff0000;opacity:0.5;stroke:#000000;stroke-width:0.5;" x="533.262072375" xlink:href="#m7e9e984ebe" y="392.0696829"/>
     <use style="fill:#ff0000;opacity:0.5;stroke:#000000;stroke-width:0.5;" x="570.544284375" xlink:href="#m7e9e984ebe" y="390.3783291"/>
     <use style="fill:#ff0000;opacity:0.5;stroke:#000000;stroke-width:0.5;" x="607.771393875" xlink:href="#m7e9e984ebe" y="388.6322355"/>
     <use style="fill:#ff0000;opacity:0.5;stroke:#000000;stroke-width:0.5;" x="644.485561875" xlink:href="#m7e9e984ebe" y="386.885060775"/>
     <use style="fill:#ff0000;opacity:0.5;stroke:#000000;stroke-width:0.5;" x="680.2316487" xlink:href="#m7e9e984ebe" y="385.1876178"/>
     <use style="fill:#ff0000;opacity:0.5;stroke:#000000;stroke-width:0.5;" x="714.562298775" xlink:href="#m7e9e984ebe" y="383.5639494"/>
     <use style="fill:#ff0000;opacity:0.5;stroke:#000000;stroke-width:0.5;" x="747.058586625" xlink:href="#m7e9e984ebe" y="382.03317405"/>
     <use style="fill:#ff0000;opacity:0.5;stroke:#000000;stroke-width:0.5;" x="777.332095425" xlink:href="#m7e9e984ebe" y="380.609109225"/>
     <use style="fill:#ff0000;opacity:0.5;stroke:#000000;stroke-width:0.5;" x="805.0106043" xlink:href="#m7e9e984ebe" y="379.3186296"/>
     <use style="fill:#ff0000;opacity:0.5;stroke:#000000;stroke-width:0.5;" x="829.74374505" xlink:href="#m7e9e984ebe" y="378.164650725"/>
     <use style="fill:#ff0000;opacity:0.5;stroke:#000000;stroke-width:0.5;" x="851.219777025" xlink:href="#m7e9e984ebe" y="377.148281625"/>
     <use style="fill:#ff0000;opacity:0.5;stroke:#000000;stroke-width:0.5;" x="869.168112075" xlink:href="#m7e9e984ebe" y="376.2535356"/>
     <use style="fill:#ff0000;opacity:0.5;stroke:#000000;stroke-width:0.5;" x="883.3626207" xlink:href="#m7e9e984ebe" y="375.4644678"/>
     <use style="fill:#ff0000;opacity:0.5;stroke:#000000;stroke-width:0.5;" x="893.6633844" xlink:href="#m7e9e984ebe" y="374.73503625"/>
     <use style="fill:#ff0000;opacity:0.5;stroke:#000000;stroke-width:0.5;" x="900.040354875" xlink:href="#m7e9e984ebe" y="374.162312025"/>
     <use style="fill:#ff0000;opacity:0.5;stroke:#000000;stroke-width:0.5;" x="902.25" xlink:href="#m7e9e984ebe" y="373.95"/>
    </g>
   </g>
   <g id="line2d_2">
    <path clip-path="url(#p9cf55f1d98)" d="M 902.259201 374.097785 
L 878.927861 373.556727 
L 855.50601 372.318377 
L 831.982896 370.472856 
L 808.349427 368.113725 
L 784.59706 365.338281 
L 760.717439 362.247783 
L 736.70196 358.947607 
L 712.575368 355.54441 
L 688.416678 352.120756 
L 664.337253 348.754581 
L 640.333241 345.506413 
L 616.39511 342.434669 
L 592.510779 339.596027 
L 568.629863 337.026827 
L 544.73801 334.74137 
L 520.837818 332.753254 
L 496.931848 331.076001 
L 473.022614 329.723064 
L 449.123919 328.70951 
L 425.309737 328.080726 
L 401.60227 327.906678 
L 378.01202 328.256117 
L 354.548829 329.19587 
L 331.240411 330.791023 
L 308.314206 333.153404 
L 285.875101 336.479506 
L 263.964714 340.958287 
L 243.034053 346.679463 
L 225.863639 353.660693 
L 212.339144 362.703917 
L 205.541964 370.257505 
L 204.813617 373.933195 
L 205.94575 376.310123 
L 213.882991 381.288773 
L 230.491026 386.524959 
L 251.855862 390.621922 
L 274.317221 393.484509 
L 297.233834 395.366472 
L 320.524012 396.437583 
L 344.172933 396.886087 
L 368.149101 396.915898 
L 392.237464 396.68059 
L 416.367881 396.225901 
L 440.542718 395.586972 
L 464.764294 394.799406 
L 489.034905 393.89927 
L 513.34689 392.921915 
L 537.672527 391.887331 
L 562.010196 390.804767 
L 586.36012 389.683298 
L 610.722527 388.532031 
L 635.097651 387.360102 
L 659.485721 386.176674 
L 683.878119 384.991372 
L 708.258095 383.814221 
L 732.625426 382.65442 
L 756.980338 381.521114 
L 781.32464 380.423292 
L 805.69928 379.347992 
L 829.994321 378.239071 
L 854.187136 377.030121 
L 878.27596 375.655412 
L 902.259223 374.050749 
" style="fill:none;opacity:0.5;stroke:#0000ff;stroke-linecap:square;"/>
    <defs>
     <path d="M 0 3 
C 0.795609 3 1.55874 2.683901 2.12132 2.12132 
C 2.683901 1.55874 3 0.795609 3 0 
C 3 -0.795609 2.683901 -1.55874 2.12132 -2.12132 
C 1.55874 -2.683901 0.795609 -3 0 -3 
C -0.795609 -3 -1.55874 -2.683901 -2.12132 -2.12132 
C -2.683901 -1.55874 -3 -0.795609 -3 0 
C -3 0.795609 -2.683901 1.55874 -2.12132 2.12132 
C -1.55874 2.683901 -0.795609 3 0 3 
z
" id="m6bad08319d" style="stroke:#000000;stroke-width:0.5;"/>
    </defs>
    <g clip-path="url(#p9cf55f1d98)">
     <use style="fill:#0000ff;opacity:0.5;stroke:#000000;stroke-width:0.5;" x="902.259201113" xlink:href="#m6bad08319d" y="374.097785319"/>
     <use style="fill:#0000ff;opacity:0.5;stroke:#000000;stroke-width:0.5;" x="878.927860827" xlink:href="#m6bad08319d" y="373.556727023"/>
     <use style="fill:#0000ff;opacity:0.5;stroke:#000000;stroke-width:0.5;" x="855.506009563" xlink:href="#m6bad08319d" y="372.318376523"/>
     <use style="fill:#0000ff;opacity:0.5;stroke:#000000;stroke-width:0.5;" x="831.98289618" xlink:href="#m6bad08319d" y="370.472856432"/>
     <use style="fill:#0000ff;opacity:0.5;stroke:#000000;stroke-width:0.5;" x="808.34942661" xlink:href="#m6bad08319d" y="368.113725036"/>
     <use style="fill:#0000ff;opacity:0.5;stroke:#000000;stroke-width:0.5;" x="784.59706013" xlink:href="#m6bad08319d" y="365.338280678"/>
     <use style="fill:#0000ff;opacity:0.5;stroke:#000000;stroke-width:0.5;" x="760.717438925" xlink:href="#m6bad08319d" y="362.247782864"/>
     <use style="fill:#0000ff;opacity:0.5;stroke:#000000;stroke-width:0.5;" x="736.701959553" xlink:href="#m6bad08319d" y="358.947607276"/>
     <use style="fill:#0000ff;opacity:0.5;stroke:#000000;stroke-width:0.5;" x="712.575368096" xlink:href="#m6bad08319d" y="355.544409807"/>
     <use style="fill:#0000ff;opacity:0.5;stroke:#000000;stroke-width:0.5;" x="688.416678439" xlink:href="#m6bad08319d" y="352.120755511"/>
     <use style="fill:#0000ff;opacity:0.5;stroke:#000000;stroke-width:0.5;" x="664.337253249" xlink:href="#m6bad08319d" y="348.754580975"/>
     <use style="fill:#0000ff;opacity:0.5;stroke:#000000;stroke-width:0.5;" x="640.333241499" xlink:href="#m6bad08319d" y="345.506413434"/>
     <use style="fill:#0000ff;opacity:0.5;stroke:#000000;stroke-width:0.5;" x="616.395109566" xlink:href="#m6bad08319d" y="342.434668701"/>
     <use style="fill:#0000ff;opacity:0.5;stroke:#000000;stroke-width:0.5;" x="592.510778704" xlink:href="#m6bad08319d" y="339.596026775"/>
     <use style="fill:#0000ff;opacity:0.5;stroke:#000000;stroke-width:0.5;" x="568.629862575" xlink:href="#m6bad08319d" y="337.026826836"/>
     <use style="fill:#0000ff;opacity:0.5;stroke:#000000;stroke-width:0.5;" x="544.738009838" xlink:href="#m6bad08319d" y="334.741370329"/>
     <use style="fill:#0000ff;opacity:0.5;stroke:#000000;stroke-width:0.5;" x="520.837818334" xlink:href="#m6bad08319d" y="332.75325409"/>
     <use style="fill:#0000ff;opacity:0.5;stroke:#000000;stroke-width:0.5;" x="496.931847874" xlink:href="#m6bad08319d" y="331.076001437"/>
     <use style="fill:#0000ff;opacity:0.5;stroke:#000000;stroke-width:0.5;" x="473.022613771" xlink:href="#m6bad08319d" y="329.723063625"/>
     <use style="fill:#0000ff;opacity:0.5;stroke:#000000;stroke-width:0.5;" x="449.123918904" xlink:href="#m6bad08319d" y="328.709510088"/>
     <use style="fill:#0000ff;opacity:0.5;stroke:#000000;stroke-width:0.5;" x="425.309736712" xlink:href="#m6bad08319d" y="328.080725655"/>
     <use style="fill:#0000ff;opacity:0.5;stroke:#000000;stroke-width:0.5;" x="401.602269981" xlink:href="#m6bad08319d" y="327.906678318"/>
     <use style="fill:#0000ff;opacity:0.5;stroke:#000000;stroke-width:0.5;" x="378.012019972" xlink:href="#m6bad08319d" y="328.256117097"/>
     <use style="fill:#0000ff;opacity:0.5;stroke:#000000;stroke-width:0.5;" x="354.548828969" xlink:href="#m6bad08319d" y="329.195870139"/>
     <use style="fill:#0000ff;opacity:0.5;stroke:#000000;stroke-width:0.5;" x="331.240411448" xlink:href="#m6bad08319d" y="330.791023182"/>
     <use style="fill:#0000ff;opacity:0.5;stroke:#000000;stroke-width:0.5;" x="308.314206193" xlink:href="#m6bad08319d" y="333.153403953"/>
     <use style="fill:#0000ff;opacity:0.5;stroke:#000000;stroke-width:0.5;" x="285.875100833" xlink:href="#m6bad08319d" y="336.479505518"/>
     <use style="fill:#0000ff;opacity:0.5;stroke:#000000;stroke-width:0.5;" x="263.964714393" xlink:href="#m6bad08319d" y="340.958287405"/>
     <use style="fill:#0000ff;opacity:0.5;stroke:#000000;stroke-width:0.5;" x="243.034053033" xlink:href="#m6bad08319d" y="346.679463089"/>
     <use style="fill:#0000ff;opacity:0.5;stroke:#000000;stroke-width:0.5;" x="225.863639085" xlink:href="#m6bad08319d" y="353.660693452"/>
     <use style="fill:#0000ff;opacity:0.5;stroke:#000000;stroke-width:0.5;" x="212.339143614" xlink:href="#m6bad08319d" y="362.703916808"/>
     <use style="fill:#0000ff;opacity:0.5;stroke:#000000;stroke-width:0.5;" x="205.541963872" xlink:href="#m6bad08319d" y="370.257505104"/>
     <use style="fill:#0000ff;opacity:0.5;stroke:#000000;stroke-width:0.5;" x="204.813616557" xlink:href="#m6bad08319d" y="373.933194592"/>
     <use style="fill:#0000ff;opacity:0.5;stroke:#000000;stroke-width:0.5;" x="205.945750384" xlink:href="#m6bad08319d" y="376.310123279"/>
     <use style="fill:#0000ff;opacity:0.5;stroke:#000000;stroke-width:0.5;" x="213.882990961" xlink:href="#m6bad08319d" y="381.288772751"/>
     <use style="fill:#0000ff;opacity:0.5;stroke:#000000;stroke-width:0.5;" x="230.491025721" xlink:href="#m6bad08319d" y="386.524958848"/>
     <use style="fill:#0000ff;opacity:0.5;stroke:#000000;stroke-width:0.5;" x="251.855861994" xlink:href="#m6bad08319d" y="390.621921616"/>
     <use style="fill:#0000ff;opacity:0.5;stroke:#000000;stroke-width:0.5;" x="274.317220656" xlink:href="#m6bad08319d" y="393.484509119"/>
     <use style="fill:#0000ff;opacity:0.5;stroke:#000000;stroke-width:0.5;" x="297.233834094" xlink:href="#m6bad08319d" y="395.366471585"/>
     <use style="fill:#0000ff;opacity:0.5;stroke:#000000;stroke-width:0.5;" x="320.524012035" xlink:href="#m6bad08319d" y="396.437582978"/>
     <use style="fill:#0000ff;opacity:0.5;stroke:#000000;stroke-width:0.5;" x="344.172932909" xlink:href="#m6bad08319d" y="396.886086776"/>
     <use style="fill:#0000ff;opacity:0.5;stroke:#000000;stroke-width:0.5;" x="368.149101415" xlink:href="#m6bad08319d" y="396.915898044"/>
     <use style="fill:#0000ff;opacity:0.5;stroke:#000000;stroke-width:0.5;" x="392.237463525" xlink:href="#m6bad08319d" y="396.680590391"/>
     <use style="fill:#0000ff;opacity:0.5;stroke:#000000;stroke-width:0.5;" x="416.367880964" xlink:href="#m6bad08319d" y="396.22590095"/>
     <use style="fill:#0000ff;opacity:0.5;stroke:#000000;stroke-width:0.5;" x="440.542718316" xlink:href="#m6bad08319d" y="395.586972428"/>
     <use style="fill:#0000ff;opacity:0.5;stroke:#000000;stroke-width:0.5;" x="464.76429439" xlink:href="#m6bad08319d" y="394.799405565"/>
     <use style="fill:#0000ff;opacity:0.5;stroke:#000000;stroke-width:0.5;" x="489.034905018" xlink:href="#m6bad08319d" y="393.899269801"/>
     <use style="fill:#0000ff;opacity:0.5;stroke:#000000;stroke-width:0.5;" x="513.34688958" xlink:href="#m6bad08319d" y="392.921915393"/>
     <use style="fill:#0000ff;opacity:0.5;stroke:#000000;stroke-width:0.5;" x="537.672527425" xlink:href="#m6bad08319d" y="391.887331294"/>
     <use style="fill:#0000ff;opacity:0.5;stroke:#000000;stroke-width:0.5;" x="562.010195531" xlink:href="#m6bad08319d" y="390.804766618"/>
     <use style="fill:#0000ff;opacity:0.5;stroke:#000000;stroke-width:0.5;" x="586.360119735" xlink:href="#m6bad08319d" y="389.683297984"/>
     <use style="fill:#0000ff;opacity:0.5;stroke:#000000;stroke-width:0.5;" x="610.722526966" xlink:href="#m6bad08319d" y="388.532031321"/>
     <use style="fill:#0000ff;opacity:0.5;stroke:#000000;stroke-width:0.5;" x="635.097650732" xlink:href="#m6bad08319d" y="387.360101703"/>
     <use style="fill:#0000ff;opacity:0.5;stroke:#000000;stroke-width:0.5;" x="659.485721239" xlink:href="#m6bad08319d" y="386.176673933"/>
     <use style="fill:#0000ff;opacity:0.5;stroke:#000000;stroke-width:0.5;" x="683.878119299" xlink:href="#m6bad08319d" y="384.991371703"/>
     <use style="fill:#0000ff;opacity:0.5;stroke:#000000;stroke-width:0.5;" x="708.258094716" xlink:href="#m6bad08319d" y="383.814221153"/>
     <use style="fill:#0000ff;opacity:0.5;stroke:#000000;stroke-width:0.5;" x="732.62542604" xlink:href="#m6bad08319d" y="382.654419756"/>
     <use style="fill:#0000ff;opacity:0.5;stroke:#000000;stroke-width:0.5;" x="756.980338019" xlink:href="#m6bad08319d" y="381.521113671"/>
     <use style="fill:#0000ff;opacity:0.5;stroke:#000000;stroke-width:0.5;" x="781.324640415" xlink:href="#m6bad08319d" y="380.423292316"/>
     <use style="fill:#0000ff;opacity:0.5;stroke:#000000;stroke-width:0.5;" x="805.699279635" xlink:href="#m6bad08319d" y="379.347992062"/>
     <use style="fill:#0000ff;opacity:0.5;stroke:#000000;stroke-width:0.5;" x="829.994320924" xlink:href="#m6bad08319d" y="378.239070511"/>
     <use style="fill:#0000ff;opacity:0.5;stroke:#000000;stroke-width:0.5;" x="854.187136158" xlink:href="#m6bad08319d" y="377.030121092"/>
     <use style="fill:#0000ff;opacity:0.5;stroke:#000000;stroke-width:0.5;" x="878.275959992" xlink:href="#m6bad08319d" y="375.655411855"/>
     <use style="fill:#0000ff;opacity:0.5;stroke:#000000;stroke-width:0.5;" x="902.259222749" xlink:href="#m6bad08319d" y="374.05074907"/>
    </g>
   </g>
   <g id="patch_3">
    <path d="M 135 72 
L 972 72 
" style="fill:none;stroke:#000000;stroke-linecap:square;stroke-linejoin:miter;"/>
   </g>
   <g id="patch_4">
    <path d="M 972 648 
L 972 72 
" style="fill:none;stroke:#000000;stroke-linecap:square;stroke-linejoin:miter;"/>
   </g>
   <g id="patch_5">
    <path d="M 135 648 
L 972 648 
" style="fill:none;stroke:#000000;stroke-linecap:square;stroke-linejoin:miter;"/>
   </g>
   <g id="patch_6">
    <path d="M 135 648 
L 135 72 
" style="fill:none;stroke:#000000;stroke-linecap:square;stroke-linejoin:miter;"/>
   </g>
   <g id="matplotlib.axis_1">
    <g id="xtick_1">
     <g id="line2d_3">
      <defs>
       <path d="M 0 0 
L 0 -4 
" id="mca91a9b08d" style="stroke:#000000;stroke-width:0.5;"/>
      </defs>
      <g>
       <use style="stroke:#000000;stroke-width:0.5;" x="204.75" xlink:href="#mca91a9b08d" y="648.0"/>
      </g>
     </g>
     <g id="line2d_4">
      <defs>
       <path d="M 0 0 
L 0 4 
" id="m8c9cafb05f" style="stroke:#000000;stroke-width:0.5;"/>
      </defs>
      <g>
       <use style="stroke:#000000;stroke-width:0.5;" x="204.75" xlink:href="#m8c9cafb05f" y="72.0"/>
      </g>
     </g>
     <g id="text_1">
      <!-- 0.0 -->
      <defs>
       <path d="M 31.78125 66.40625 
Q 24.171875 66.40625 20.328125 58.90625 
Q 16.5 51.421875 16.5 36.375 
Q 16.5 21.390625 20.328125 13.890625 
Q 24.171875 6.390625 31.78125 6.390625 
Q 39.453125 6.390625 43.28125 13.890625 
Q 47.125 21.390625 47.125 36.375 
Q 47.125 51.421875 43.28125 58.90625 
Q 39.453125 66.40625 31.78125 66.40625 
M 31.78125 74.21875 
Q 44.046875 74.21875 50.515625 64.515625 
Q 56.984375 54.828125 56.984375 36.375 
Q 56.984375 17.96875 50.515625 8.265625 
Q 44.046875 -1.421875 31.78125 -1.421875 
Q 19.53125 -1.421875 13.0625 8.265625 
Q 6.59375 17.96875 6.59375 36.375 
Q 6.59375 54.828125 13.0625 64.515625 
Q 19.53125 74.21875 31.78125 74.21875 
" id="BitstreamVeraSans-Roman-30"/>
       <path d="M 10.6875 12.40625 
L 21 12.40625 
L 21 0 
L 10.6875 0 
z
" id="BitstreamVeraSans-Roman-2e"/>
      </defs>
      <g transform="translate(195.208125 661.118125)scale(0.12 -0.12)">
       <use xlink:href="#BitstreamVeraSans-Roman-30"/>
       <use x="63.623046875" xlink:href="#BitstreamVeraSans-Roman-2e"/>
       <use x="95.41015625" xlink:href="#BitstreamVeraSans-Roman-30"/>
      </g>
     </g>
    </g>
    <g id="xtick_2">
     <g id="line2d_5">
      <g>
       <use style="stroke:#000000;stroke-width:0.5;" x="344.25" xlink:href="#mca91a9b08d" y="648.0"/>
      </g>
     </g>
     <g id="line2d_6">
      <g>
       <use style="stroke:#000000;stroke-width:0.5;" x="344.25" xlink:href="#m8c9cafb05f" y="72.0"/>
      </g>
     </g>
     <g id="text_2">
      <!-- 0.2 -->
      <defs>
       <path d="M 19.1875 8.296875 
L 53.609375 8.296875 
L 53.609375 0 
L 7.328125 0 
L 7.328125 8.296875 
Q 12.9375 14.109375 22.625 23.890625 
Q 32.328125 33.6875 34.8125 36.53125 
Q 39.546875 41.84375 41.421875 45.53125 
Q 43.3125 49.21875 43.3125 52.78125 
Q 43.3125 58.59375 39.234375 62.25 
Q 35.15625 65.921875 28.609375 65.921875 
Q 23.96875 65.921875 18.8125 64.3125 
Q 13.671875 62.703125 7.8125 59.421875 
L 7.8125 69.390625 
Q 13.765625 71.78125 18.9375 73 
Q 24.125 74.21875 28.421875 74.21875 
Q 39.75 74.21875 46.484375 68.546875 
Q 53.21875 62.890625 53.21875 53.421875 
Q 53.21875 48.921875 51.53125 44.890625 
Q 49.859375 40.875 45.40625 35.40625 
Q 44.1875 33.984375 37.640625 27.21875 
Q 31.109375 20.453125 19.1875 8.296875 
" id="BitstreamVeraSans-Roman-32"/>
      </defs>
      <g transform="translate(334.708125 661.118125)scale(0.12 -0.12)">
       <use xlink:href="#BitstreamVeraSans-Roman-30"/>
       <use x="63.623046875" xlink:href="#BitstreamVeraSans-Roman-2e"/>
       <use x="95.41015625" xlink:href="#BitstreamVeraSans-Roman-32"/>
      </g>
     </g>
    </g>
    <g id="xtick_3">
     <g id="line2d_7">
      <g>
       <use style="stroke:#000000;stroke-width:0.5;" x="483.75" xlink:href="#mca91a9b08d" y="648.0"/>
      </g>
     </g>
     <g id="line2d_8">
      <g>
       <use style="stroke:#000000;stroke-width:0.5;" x="483.75" xlink:href="#m8c9cafb05f" y="72.0"/>
      </g>
     </g>
     <g id="text_3">
      <!-- 0.4 -->
      <defs>
       <path d="M 37.796875 64.3125 
L 12.890625 25.390625 
L 37.796875 25.390625 
z
M 35.203125 72.90625 
L 47.609375 72.90625 
L 47.609375 25.390625 
L 58.015625 25.390625 
L 58.015625 17.1875 
L 47.609375 17.1875 
L 47.609375 0 
L 37.796875 0 
L 37.796875 17.1875 
L 4.890625 17.1875 
L 4.890625 26.703125 
z
" id="BitstreamVeraSans-Roman-34"/>
      </defs>
      <g transform="translate(474.208125 661.118125)scale(0.12 -0.12)">
       <use xlink:href="#BitstreamVeraSans-Roman-30"/>
       <use x="63.623046875" xlink:href="#BitstreamVeraSans-Roman-2e"/>
       <use x="95.41015625" xlink:href="#BitstreamVeraSans-Roman-34"/>
      </g>
     </g>
    </g>
    <g id="xtick_4">
     <g id="line2d_9">
      <g>
       <use style="stroke:#000000;stroke-width:0.5;" x="623.25" xlink:href="#mca91a9b08d" y="648.0"/>
      </g>
     </g>
     <g id="line2d_10">
      <g>
       <use style="stroke:#000000;stroke-width:0.5;" x="623.25" xlink:href="#m8c9cafb05f" y="72.0"/>
      </g>
     </g>
     <g id="text_4">
      <!-- 0.6 -->
      <defs>
       <path d="M 33.015625 40.375 
Q 26.375 40.375 22.484375 35.828125 
Q 18.609375 31.296875 18.609375 23.390625 
Q 18.609375 15.53125 22.484375 10.953125 
Q 26.375 6.390625 33.015625 6.390625 
Q 39.65625 6.390625 43.53125 10.953125 
Q 47.40625 15.53125 47.40625 23.390625 
Q 47.40625 31.296875 43.53125 35.828125 
Q 39.65625 40.375 33.015625 40.375 
M 52.59375 71.296875 
L 52.59375 62.3125 
Q 48.875 64.0625 45.09375 64.984375 
Q 41.3125 65.921875 37.59375 65.921875 
Q 27.828125 65.921875 22.671875 59.328125 
Q 17.53125 52.734375 16.796875 39.40625 
Q 19.671875 43.65625 24.015625 45.921875 
Q 28.375 48.1875 33.59375 48.1875 
Q 44.578125 48.1875 50.953125 41.515625 
Q 57.328125 34.859375 57.328125 23.390625 
Q 57.328125 12.15625 50.6875 5.359375 
Q 44.046875 -1.421875 33.015625 -1.421875 
Q 20.359375 -1.421875 13.671875 8.265625 
Q 6.984375 17.96875 6.984375 36.375 
Q 6.984375 53.65625 15.1875 63.9375 
Q 23.390625 74.21875 37.203125 74.21875 
Q 40.921875 74.21875 44.703125 73.484375 
Q 48.484375 72.75 52.59375 71.296875 
" id="BitstreamVeraSans-Roman-36"/>
      </defs>
      <g transform="translate(613.708125 661.118125)scale(0.12 -0.12)">
       <use xlink:href="#BitstreamVeraSans-Roman-30"/>
       <use x="63.623046875" xlink:href="#BitstreamVeraSans-Roman-2e"/>
       <use x="95.41015625" xlink:href="#BitstreamVeraSans-Roman-36"/>
      </g>
     </g>
    </g>
    <g id="xtick_5">
     <g id="line2d_11">
      <g>
       <use style="stroke:#000000;stroke-width:0.5;" x="762.75" xlink:href="#mca91a9b08d" y="648.0"/>
      </g>
     </g>
     <g id="line2d_12">
      <g>
       <use style="stroke:#000000;stroke-width:0.5;" x="762.75" xlink:href="#m8c9cafb05f" y="72.0"/>
      </g>
     </g>
     <g id="text_5">
      <!-- 0.8 -->
      <defs>
       <path d="M 31.78125 34.625 
Q 24.75 34.625 20.71875 30.859375 
Q 16.703125 27.09375 16.703125 20.515625 
Q 16.703125 13.921875 20.71875 10.15625 
Q 24.75 6.390625 31.78125 6.390625 
Q 38.8125 6.390625 42.859375 10.171875 
Q 46.921875 13.96875 46.921875 20.515625 
Q 46.921875 27.09375 42.890625 30.859375 
Q 38.875 34.625 31.78125 34.625 
M 21.921875 38.8125 
Q 15.578125 40.375 12.03125 44.71875 
Q 8.5 49.078125 8.5 55.328125 
Q 8.5 64.0625 14.71875 69.140625 
Q 20.953125 74.21875 31.78125 74.21875 
Q 42.671875 74.21875 48.875 69.140625 
Q 55.078125 64.0625 55.078125 55.328125 
Q 55.078125 49.078125 51.53125 44.71875 
Q 48 40.375 41.703125 38.8125 
Q 48.828125 37.15625 52.796875 32.3125 
Q 56.78125 27.484375 56.78125 20.515625 
Q 56.78125 9.90625 50.3125 4.234375 
Q 43.84375 -1.421875 31.78125 -1.421875 
Q 19.734375 -1.421875 13.25 4.234375 
Q 6.78125 9.90625 6.78125 20.515625 
Q 6.78125 27.484375 10.78125 32.3125 
Q 14.796875 37.15625 21.921875 38.8125 
M 18.3125 54.390625 
Q 18.3125 48.734375 21.84375 45.5625 
Q 25.390625 42.390625 31.78125 42.390625 
Q 38.140625 42.390625 41.71875 45.5625 
Q 45.3125 48.734375 45.3125 54.390625 
Q 45.3125 60.0625 41.71875 63.234375 
Q 38.140625 66.40625 31.78125 66.40625 
Q 25.390625 66.40625 21.84375 63.234375 
Q 18.3125 60.0625 18.3125 54.390625 
" id="BitstreamVeraSans-Roman-38"/>
      </defs>
      <g transform="translate(753.208125 661.118125)scale(0.12 -0.12)">
       <use xlink:href="#BitstreamVeraSans-Roman-30"/>
       <use x="63.623046875" xlink:href="#BitstreamVeraSans-Roman-2e"/>
       <use x="95.41015625" xlink:href="#BitstreamVeraSans-Roman-38"/>
      </g>
     </g>
    </g>
    <g id="xtick_6">
     <g id="line2d_13">
      <g>
       <use style="stroke:#000000;stroke-width:0.5;" x="902.25" xlink:href="#mca91a9b08d" y="648.0"/>
      </g>
     </g>
     <g id="line2d_14">
      <g>
       <use style="stroke:#000000;stroke-width:0.5;" x="902.25" xlink:href="#m8c9cafb05f" y="72.0"/>
      </g>
     </g>
     <g id="text_6">
      <!-- 1.0 -->
      <defs>
       <path d="M 12.40625 8.296875 
L 28.515625 8.296875 
L 28.515625 63.921875 
L 10.984375 60.40625 
L 10.984375 69.390625 
L 28.421875 72.90625 
L 38.28125 72.90625 
L 38.28125 8.296875 
L 54.390625 8.296875 
L 54.390625 0 
L 12.40625 0 
z
" id="BitstreamVeraSans-Roman-31"/>
      </defs>
      <g transform="translate(892.708125 661.118125)scale(0.12 -0.12)">
       <use xlink:href="#BitstreamVeraSans-Roman-31"/>
       <use x="63.623046875" xlink:href="#BitstreamVeraSans-Roman-2e"/>
       <use x="95.41015625" xlink:href="#BitstreamVeraSans-Roman-30"/>
      </g>
     </g>
    </g>
   </g>
   <g id="matplotlib.axis_2">
    <g id="ytick_1">
     <g id="line2d_15">
      <defs>
       <path d="M 0 0 
L 4 0 
" id="m3ca08df554" style="stroke:#000000;stroke-width:0.5;"/>
      </defs>
      <g>
       <use style="stroke:#000000;stroke-width:0.5;" x="135.0" xlink:href="#m3ca08df554" y="583.2"/>
      </g>
     </g>
     <g id="line2d_16">
      <defs>
       <path d="M 0 0 
L -4 0 
" id="mfb614e9ac0" style="stroke:#000000;stroke-width:0.5;"/>
      </defs>
      <g>
       <use style="stroke:#000000;stroke-width:0.5;" x="972.0" xlink:href="#mfb614e9ac0" y="583.2"/>
      </g>
     </g>
     <g id="text_7">
      <!-- −0.3 -->
      <defs>
       <path d="M 10.59375 35.5 
L 73.1875 35.5 
L 73.1875 27.203125 
L 10.59375 27.203125 
z
" id="BitstreamVeraSans-Roman-2212"/>
       <path d="M 40.578125 39.3125 
Q 47.65625 37.796875 51.625 33 
Q 55.609375 28.21875 55.609375 21.1875 
Q 55.609375 10.40625 48.1875 4.484375 
Q 40.765625 -1.421875 27.09375 -1.421875 
Q 22.515625 -1.421875 17.65625 -0.515625 
Q 12.796875 0.390625 7.625 2.203125 
L 7.625 11.71875 
Q 11.71875 9.328125 16.59375 8.109375 
Q 21.484375 6.890625 26.8125 6.890625 
Q 36.078125 6.890625 40.9375 10.546875 
Q 45.796875 14.203125 45.796875 21.1875 
Q 45.796875 27.640625 41.28125 31.265625 
Q 36.765625 34.90625 28.71875 34.90625 
L 20.21875 34.90625 
L 20.21875 43.015625 
L 29.109375 43.015625 
Q 36.375 43.015625 40.234375 45.921875 
Q 44.09375 48.828125 44.09375 54.296875 
Q 44.09375 59.90625 40.109375 62.90625 
Q 36.140625 65.921875 28.71875 65.921875 
Q 24.65625 65.921875 20.015625 65.03125 
Q 15.375 64.15625 9.8125 62.3125 
L 9.8125 71.09375 
Q 15.4375 72.65625 20.34375 73.4375 
Q 25.25 74.21875 29.59375 74.21875 
Q 40.828125 74.21875 47.359375 69.109375 
Q 53.90625 64.015625 53.90625 55.328125 
Q 53.90625 49.265625 50.4375 45.09375 
Q 46.96875 40.921875 40.578125 39.3125 
" id="BitstreamVeraSans-Roman-33"/>
      </defs>
      <g transform="translate(101.860625 586.51125)scale(0.12 -0.12)">
       <use xlink:href="#BitstreamVeraSans-Roman-2212"/>
       <use x="83.7890625" xlink:href="#BitstreamVeraSans-Roman-30"/>
       <use x="147.412109375" xlink:href="#BitstreamVeraSans-Roman-2e"/>
       <use x="179.19921875" xlink:href="#BitstreamVeraSans-Roman-33"/>
      </g>
     </g>
    </g>
    <g id="ytick_2">
     <g id="line2d_17">
      <g>
       <use style="stroke:#000000;stroke-width:0.5;" x="135.0" xlink:href="#m3ca08df554" y="513.45"/>
      </g>
     </g>
     <g id="line2d_18">
      <g>
       <use style="stroke:#000000;stroke-width:0.5;" x="972.0" xlink:href="#mfb614e9ac0" y="513.45"/>
      </g>
     </g>
     <g id="text_8">
      <!-- −0.2 -->
      <g transform="translate(101.860625 516.76125)scale(0.12 -0.12)">
       <use xlink:href="#BitstreamVeraSans-Roman-2212"/>
       <use x="83.7890625" xlink:href="#BitstreamVeraSans-Roman-30"/>
       <use x="147.412109375" xlink:href="#BitstreamVeraSans-Roman-2e"/>
       <use x="179.19921875" xlink:href="#BitstreamVeraSans-Roman-32"/>
      </g>
     </g>
    </g>
    <g id="ytick_3">
     <g id="line2d_19">
      <g>
       <use style="stroke:#000000;stroke-width:0.5;" x="135.0" xlink:href="#m3ca08df554" y="443.7"/>
      </g>
     </g>
     <g id="line2d_20">
      <g>
       <use style="stroke:#000000;stroke-width:0.5;" x="972.0" xlink:href="#mfb614e9ac0" y="443.7"/>
      </g>
     </g>
     <g id="text_9">
      <!-- −0.1 -->
      <g transform="translate(101.860625 447.01125)scale(0.12 -0.12)">
       <use xlink:href="#BitstreamVeraSans-Roman-2212"/>
       <use x="83.7890625" xlink:href="#BitstreamVeraSans-Roman-30"/>
       <use x="147.412109375" xlink:href="#BitstreamVeraSans-Roman-2e"/>
       <use x="179.19921875" xlink:href="#BitstreamVeraSans-Roman-31"/>
      </g>
     </g>
    </g>
    <g id="ytick_4">
     <g id="line2d_21">
      <g>
       <use style="stroke:#000000;stroke-width:0.5;" x="135.0" xlink:href="#m3ca08df554" y="373.95"/>
      </g>
     </g>
     <g id="line2d_22">
      <g>
       <use style="stroke:#000000;stroke-width:0.5;" x="972.0" xlink:href="#mfb614e9ac0" y="373.95"/>
      </g>
     </g>
     <g id="text_10">
      <!-- 0.0 -->
      <g transform="translate(111.91625 377.26125)scale(0.12 -0.12)">
       <use xlink:href="#BitstreamVeraSans-Roman-30"/>
       <use x="63.623046875" xlink:href="#BitstreamVeraSans-Roman-2e"/>
       <use x="95.41015625" xlink:href="#BitstreamVeraSans-Roman-30"/>
      </g>
     </g>
    </g>
    <g id="ytick_5">
     <g id="line2d_23">
      <g>
       <use style="stroke:#000000;stroke-width:0.5;" x="135.0" xlink:href="#m3ca08df554" y="304.2"/>
      </g>
     </g>
     <g id="line2d_24">
      <g>
       <use style="stroke:#000000;stroke-width:0.5;" x="972.0" xlink:href="#mfb614e9ac0" y="304.2"/>
      </g>
     </g>
     <g id="text_11">
      <!-- 0.1 -->
      <g transform="translate(111.91625 307.51125)scale(0.12 -0.12)">
       <use xlink:href="#BitstreamVeraSans-Roman-30"/>
       <use x="63.623046875" xlink:href="#BitstreamVeraSans-Roman-2e"/>
       <use x="95.41015625" xlink:href="#BitstreamVeraSans-Roman-31"/>
      </g>
     </g>
    </g>
    <g id="ytick_6">
     <g id="line2d_25">
      <g>
       <use style="stroke:#000000;stroke-width:0.5;" x="135.0" xlink:href="#m3ca08df554" y="234.45"/>
      </g>
     </g>
     <g id="line2d_26">
      <g>
       <use style="stroke:#000000;stroke-width:0.5;" x="972.0" xlink:href="#mfb614e9ac0" y="234.45"/>
      </g>
     </g>
     <g id="text_12">
      <!-- 0.2 -->
      <g transform="translate(111.91625 237.76125)scale(0.12 -0.12)">
       <use xlink:href="#BitstreamVeraSans-Roman-30"/>
       <use x="63.623046875" xlink:href="#BitstreamVeraSans-Roman-2e"/>
       <use x="95.41015625" xlink:href="#BitstreamVeraSans-Roman-32"/>
      </g>
     </g>
    </g>
    <g id="ytick_7">
     <g id="line2d_27">
      <g>
       <use style="stroke:#000000;stroke-width:0.5;" x="135.0" xlink:href="#m3ca08df554" y="164.7"/>
      </g>
     </g>
     <g id="line2d_28">
      <g>
       <use style="stroke:#000000;stroke-width:0.5;" x="972.0" xlink:href="#mfb614e9ac0" y="164.7"/>
      </g>
     </g>
     <g id="text_13">
      <!-- 0.3 -->
      <g transform="translate(111.91625 168.01125)scale(0.12 -0.12)">
       <use xlink:href="#BitstreamVeraSans-Roman-30"/>
       <use x="63.623046875" xlink:href="#BitstreamVeraSans-Roman-2e"/>
       <use x="95.41015625" xlink:href="#BitstreamVeraSans-Roman-33"/>
      </g>
     </g>
    </g>
    <g id="ytick_8">
     <g id="line2d_29">
      <g>
       <use style="stroke:#000000;stroke-width:0.5;" x="135.0" xlink:href="#m3ca08df554" y="94.95"/>
      </g>
     </g>
     <g id="line2d_30">
      <g>
       <use style="stroke:#000000;stroke-width:0.5;" x="972.0" xlink:href="#mfb614e9ac0" y="94.95"/>
      </g>
     </g>
     <g id="text_14">
      <!-- 0.4 -->
      <g transform="translate(111.91625 98.26125)scale(0.12 -0.12)">
       <use xlink:href="#BitstreamVeraSans-Roman-30"/>
       <use x="63.623046875" xlink:href="#BitstreamVeraSans-Roman-2e"/>
       <use x="95.41015625" xlink:href="#BitstreamVeraSans-Roman-34"/>
      </g>
     </g>
    </g>
   </g>
   <g id="text_15">
    <!-- mh45  residuals: 0.000001  0 -->
    <defs>
     <path id="BitstreamVeraSans-Roman-20"/>
     <path d="M 10.796875 72.90625 
L 49.515625 72.90625 
L 49.515625 64.59375 
L 19.828125 64.59375 
L 19.828125 46.734375 
Q 21.96875 47.46875 24.109375 47.828125 
Q 26.265625 48.1875 28.421875 48.1875 
Q 40.625 48.1875 47.75 41.5 
Q 54.890625 34.8125 54.890625 23.390625 
Q 54.890625 11.625 47.5625 5.09375 
Q 40.234375 -1.421875 26.90625 -1.421875 
Q 22.3125 -1.421875 17.546875 -0.640625 
Q 12.796875 0.140625 7.71875 1.703125 
L 7.71875 11.625 
Q 12.109375 9.234375 16.796875 8.0625 
Q 21.484375 6.890625 26.703125 6.890625 
Q 35.15625 6.890625 40.078125 11.328125 
Q 45.015625 15.765625 45.015625 23.390625 
Q 45.015625 31 40.078125 35.4375 
Q 35.15625 39.890625 26.703125 39.890625 
Q 22.75 39.890625 18.8125 39.015625 
Q 14.890625 38.140625 10.796875 36.28125 
z
" id="BitstreamVeraSans-Roman-35"/>
     <path d="M 52 44.1875 
Q 55.375 50.25 60.0625 53.125 
Q 64.75 56 71.09375 56 
Q 79.640625 56 84.28125 50.015625 
Q 88.921875 44.046875 88.921875 33.015625 
L 88.921875 0 
L 79.890625 0 
L 79.890625 32.71875 
Q 79.890625 40.578125 77.09375 44.375 
Q 74.3125 48.1875 68.609375 48.1875 
Q 61.625 48.1875 57.5625 43.546875 
Q 53.515625 38.921875 53.515625 30.90625 
L 53.515625 0 
L 44.484375 0 
L 44.484375 32.71875 
Q 44.484375 40.625 41.703125 44.40625 
Q 38.921875 48.1875 33.109375 48.1875 
Q 26.21875 48.1875 22.15625 43.53125 
Q 18.109375 38.875 18.109375 30.90625 
L 18.109375 0 
L 9.078125 0 
L 9.078125 54.6875 
L 18.109375 54.6875 
L 18.109375 46.1875 
Q 21.1875 51.21875 25.484375 53.609375 
Q 29.78125 56 35.6875 56 
Q 41.65625 56 45.828125 52.96875 
Q 50 49.953125 52 44.1875 
" id="BitstreamVeraSans-Roman-6d"/>
     <path d="M 9.421875 75.984375 
L 18.40625 75.984375 
L 18.40625 0 
L 9.421875 0 
z
" id="BitstreamVeraSans-Roman-6c"/>
     <path d="M 11.71875 12.40625 
L 22.015625 12.40625 
L 22.015625 0 
L 11.71875 0 
z
M 11.71875 51.703125 
L 22.015625 51.703125 
L 22.015625 39.3125 
L 11.71875 39.3125 
z
" id="BitstreamVeraSans-Roman-3a"/>
     <path d="M 9.421875 54.6875 
L 18.40625 54.6875 
L 18.40625 0 
L 9.421875 0 
z
M 9.421875 75.984375 
L 18.40625 75.984375 
L 18.40625 64.59375 
L 9.421875 64.59375 
z
" id="BitstreamVeraSans-Roman-69"/>
     <path d="M 54.890625 33.015625 
L 54.890625 0 
L 45.90625 0 
L 45.90625 32.71875 
Q 45.90625 40.484375 42.875 44.328125 
Q 39.84375 48.1875 33.796875 48.1875 
Q 26.515625 48.1875 22.3125 43.546875 
Q 18.109375 38.921875 18.109375 30.90625 
L 18.109375 0 
L 9.078125 0 
L 9.078125 75.984375 
L 18.109375 75.984375 
L 18.109375 46.1875 
Q 21.34375 51.125 25.703125 53.5625 
Q 30.078125 56 35.796875 56 
Q 45.21875 56 50.046875 50.171875 
Q 54.890625 44.34375 54.890625 33.015625 
" id="BitstreamVeraSans-Roman-68"/>
     <path d="M 56.203125 29.59375 
L 56.203125 25.203125 
L 14.890625 25.203125 
Q 15.484375 15.921875 20.484375 11.0625 
Q 25.484375 6.203125 34.421875 6.203125 
Q 39.59375 6.203125 44.453125 7.46875 
Q 49.3125 8.734375 54.109375 11.28125 
L 54.109375 2.78125 
Q 49.265625 0.734375 44.1875 -0.34375 
Q 39.109375 -1.421875 33.890625 -1.421875 
Q 20.796875 -1.421875 13.15625 6.1875 
Q 5.515625 13.8125 5.515625 26.8125 
Q 5.515625 40.234375 12.765625 48.109375 
Q 20.015625 56 32.328125 56 
Q 43.359375 56 49.78125 48.890625 
Q 56.203125 41.796875 56.203125 29.59375 
M 47.21875 32.234375 
Q 47.125 39.59375 43.09375 43.984375 
Q 39.0625 48.390625 32.421875 48.390625 
Q 24.90625 48.390625 20.390625 44.140625 
Q 15.875 39.890625 15.1875 32.171875 
z
" id="BitstreamVeraSans-Roman-65"/>
     <path d="M 45.40625 46.390625 
L 45.40625 75.984375 
L 54.390625 75.984375 
L 54.390625 0 
L 45.40625 0 
L 45.40625 8.203125 
Q 42.578125 3.328125 38.25 0.953125 
Q 33.9375 -1.421875 27.875 -1.421875 
Q 17.96875 -1.421875 11.734375 6.484375 
Q 5.515625 14.40625 5.515625 27.296875 
Q 5.515625 40.1875 11.734375 48.09375 
Q 17.96875 56 27.875 56 
Q 33.9375 56 38.25 53.625 
Q 42.578125 51.265625 45.40625 46.390625 
M 14.796875 27.296875 
Q 14.796875 17.390625 18.875 11.75 
Q 22.953125 6.109375 30.078125 6.109375 
Q 37.203125 6.109375 41.296875 11.75 
Q 45.40625 17.390625 45.40625 27.296875 
Q 45.40625 37.203125 41.296875 42.84375 
Q 37.203125 48.484375 30.078125 48.484375 
Q 22.953125 48.484375 18.875 42.84375 
Q 14.796875 37.203125 14.796875 27.296875 
" id="BitstreamVeraSans-Roman-64"/>
     <path d="M 34.28125 27.484375 
Q 23.390625 27.484375 19.1875 25 
Q 14.984375 22.515625 14.984375 16.5 
Q 14.984375 11.71875 18.140625 8.90625 
Q 21.296875 6.109375 26.703125 6.109375 
Q 34.1875 6.109375 38.703125 11.40625 
Q 43.21875 16.703125 43.21875 25.484375 
L 43.21875 27.484375 
z
M 52.203125 31.203125 
L 52.203125 0 
L 43.21875 0 
L 43.21875 8.296875 
Q 40.140625 3.328125 35.546875 0.953125 
Q 30.953125 -1.421875 24.3125 -1.421875 
Q 15.921875 -1.421875 10.953125 3.296875 
Q 6 8.015625 6 15.921875 
Q 6 25.140625 12.171875 29.828125 
Q 18.359375 34.515625 30.609375 34.515625 
L 43.21875 34.515625 
L 43.21875 35.40625 
Q 43.21875 41.609375 39.140625 45 
Q 35.0625 48.390625 27.6875 48.390625 
Q 23 48.390625 18.546875 47.265625 
Q 14.109375 46.140625 10.015625 43.890625 
L 10.015625 52.203125 
Q 14.9375 54.109375 19.578125 55.046875 
Q 24.21875 56 28.609375 56 
Q 40.484375 56 46.34375 49.84375 
Q 52.203125 43.703125 52.203125 31.203125 
" id="BitstreamVeraSans-Roman-61"/>
     <path d="M 8.5 21.578125 
L 8.5 54.6875 
L 17.484375 54.6875 
L 17.484375 21.921875 
Q 17.484375 14.15625 20.5 10.265625 
Q 23.53125 6.390625 29.59375 6.390625 
Q 36.859375 6.390625 41.078125 11.03125 
Q 45.3125 15.671875 45.3125 23.6875 
L 45.3125 54.6875 
L 54.296875 54.6875 
L 54.296875 0 
L 45.3125 0 
L 45.3125 8.40625 
Q 42.046875 3.421875 37.71875 1 
Q 33.40625 -1.421875 27.6875 -1.421875 
Q 18.265625 -1.421875 13.375 4.4375 
Q 8.5 10.296875 8.5 21.578125 
" id="BitstreamVeraSans-Roman-75"/>
     <path d="M 41.109375 46.296875 
Q 39.59375 47.171875 37.8125 47.578125 
Q 36.03125 48 33.890625 48 
Q 26.265625 48 22.1875 43.046875 
Q 18.109375 38.09375 18.109375 28.8125 
L 18.109375 0 
L 9.078125 0 
L 9.078125 54.6875 
L 18.109375 54.6875 
L 18.109375 46.1875 
Q 20.953125 51.171875 25.484375 53.578125 
Q 30.03125 56 36.53125 56 
Q 37.453125 56 38.578125 55.875 
Q 39.703125 55.765625 41.0625 55.515625 
z
" id="BitstreamVeraSans-Roman-72"/>
     <path d="M 44.28125 53.078125 
L 44.28125 44.578125 
Q 40.484375 46.53125 36.375 47.5 
Q 32.28125 48.484375 27.875 48.484375 
Q 21.1875 48.484375 17.84375 46.4375 
Q 14.5 44.390625 14.5 40.28125 
Q 14.5 37.15625 16.890625 35.375 
Q 19.28125 33.59375 26.515625 31.984375 
L 29.59375 31.296875 
Q 39.15625 29.25 43.1875 25.515625 
Q 47.21875 21.78125 47.21875 15.09375 
Q 47.21875 7.46875 41.1875 3.015625 
Q 35.15625 -1.421875 24.609375 -1.421875 
Q 20.21875 -1.421875 15.453125 -0.5625 
Q 10.6875 0.296875 5.421875 2 
L 5.421875 11.28125 
Q 10.40625 8.6875 15.234375 7.390625 
Q 20.0625 6.109375 24.8125 6.109375 
Q 31.15625 6.109375 34.5625 8.28125 
Q 37.984375 10.453125 37.984375 14.40625 
Q 37.984375 18.0625 35.515625 20.015625 
Q 33.0625 21.96875 24.703125 23.78125 
L 21.578125 24.515625 
Q 13.234375 26.265625 9.515625 29.90625 
Q 5.8125 33.546875 5.8125 39.890625 
Q 5.8125 47.609375 11.28125 51.796875 
Q 16.75 56 26.8125 56 
Q 31.78125 56 36.171875 55.265625 
Q 40.578125 54.546875 44.28125 53.078125 
" id="BitstreamVeraSans-Roman-73"/>
    </defs>
    <g transform="translate(447.52275 67.0)scale(0.144 -0.144)">
     <use xlink:href="#BitstreamVeraSans-Roman-6d"/>
     <use x="97.412109375" xlink:href="#BitstreamVeraSans-Roman-68"/>
     <use x="160.791015625" xlink:href="#BitstreamVeraSans-Roman-34"/>
     <use x="224.4140625" xlink:href="#BitstreamVeraSans-Roman-35"/>
     <use x="288.037109375" xlink:href="#BitstreamVeraSans-Roman-20"/>
     <use x="319.82421875" xlink:href="#BitstreamVeraSans-Roman-20"/>
     <use x="351.611328125" xlink:href="#BitstreamVeraSans-Roman-72"/>
     <use x="392.693359375" xlink:href="#BitstreamVeraSans-Roman-65"/>
     <use x="454.216796875" xlink:href="#BitstreamVeraSans-Roman-73"/>
     <use x="506.31640625" xlink:href="#BitstreamVeraSans-Roman-69"/>
     <use x="534.099609375" xlink:href="#BitstreamVeraSans-Roman-64"/>
     <use x="597.576171875" xlink:href="#BitstreamVeraSans-Roman-75"/>
     <use x="660.955078125" xlink:href="#BitstreamVeraSans-Roman-61"/>
     <use x="722.234375" xlink:href="#BitstreamVeraSans-Roman-6c"/>
     <use x="750.017578125" xlink:href="#BitstreamVeraSans-Roman-73"/>
     <use x="802.1171875" xlink:href="#BitstreamVeraSans-Roman-3a"/>
     <use x="835.80859375" xlink:href="#BitstreamVeraSans-Roman-20"/>
     <use x="867.595703125" xlink:href="#BitstreamVeraSans-Roman-30"/>
     <use x="931.21875" xlink:href="#BitstreamVeraSans-Roman-2e"/>
     <use x="963.005859375" xlink:href="#BitstreamVeraSans-Roman-30"/>
     <use x="1026.62890625" xlink:href="#BitstreamVeraSans-Roman-30"/>
     <use x="1090.25195312" xlink:href="#BitstreamVeraSans-Roman-30"/>
     <use x="1153.875" xlink:href="#BitstreamVeraSans-Roman-30"/>
     <use x="1217.49804688" xlink:href="#BitstreamVeraSans-Roman-30"/>
     <use x="1281.12109375" xlink:href="#BitstreamVeraSans-Roman-31"/>
     <use x="1344.74414062" xlink:href="#BitstreamVeraSans-Roman-20"/>
     <use x="1376.53125" xlink:href="#BitstreamVeraSans-Roman-20"/>
     <use x="1408.31835938" xlink:href="#BitstreamVeraSans-Roman-30"/>
    </g>
   </g>
  </g>
 </g>
 <defs>
  <clipPath id="p9cf55f1d98">
   <rect height="576.0" width="837.0" x="135.0" y="72.0"/>
  </clipPath>
 </defs>
</svg>
